<?xml version="1.0" encoding="utf-8"?>
<svg xmlns="http://www.w3.org/2000/svg" xmlns:xlink="http://www.w3.org/1999/xlink" width="600" height="400" viewBox="0 0 2400 1600">
<defs>
  <clipPath id="clip980">
    <rect x="0" y="0" width="2400" height="1600"/>
  </clipPath>
</defs>
<path clip-path="url(#clip980)" d="M0 1600 L2400 1600 L2400 0 L0 0  Z" fill="#ffffff" fill-rule="evenodd" fill-opacity="1"/>
<defs>
  <clipPath id="clip981">
    <rect x="210" y="123" width="2143" height="1301"/>
  </clipPath>
</defs>
<path clip-path="url(#clip981)" d="M1171 1115.04 L1171 1013.75 L1290.51 963.11 L1497.5 992.349 L1497.5 1093.63 L1377.99 1144.28 L1171 1115.04  Z" fill="#ffffff" fill-rule="evenodd" fill-opacity="1"/>
<polyline clip-path="url(#clip981)" style="stroke:#000000; stroke-linecap:round; stroke-linejoin:round; stroke-width:2; stroke-opacity:0.1; fill:none" points="799.59,1175.68 1174.78,850.756 1174.78,200.902 "/>
<polyline clip-path="url(#clip981)" style="stroke:#000000; stroke-linecap:round; stroke-linejoin:round; stroke-width:2; stroke-opacity:0.1; fill:none" points="903.087,1205.56 1278.28,880.633 1278.28,230.779 "/>
<polyline clip-path="url(#clip981)" style="stroke:#000000; stroke-linecap:round; stroke-linejoin:round; stroke-width:2; stroke-opacity:0.1; fill:none" points="1006.58,1235.44 1381.78,910.51 1381.78,260.656 "/>
<polyline clip-path="url(#clip981)" style="stroke:#000000; stroke-linecap:round; stroke-linejoin:round; stroke-width:2; stroke-opacity:0.1; fill:none" points="1110.08,1265.31 1485.28,940.387 1485.28,290.534 "/>
<polyline clip-path="url(#clip981)" style="stroke:#000000; stroke-linecap:round; stroke-linejoin:round; stroke-width:2; stroke-opacity:0.1; fill:none" points="1213.58,1295.19 1588.77,970.264 1588.77,320.411 "/>
<polyline clip-path="url(#clip981)" style="stroke:#000000; stroke-linecap:round; stroke-linejoin:round; stroke-width:2; stroke-opacity:0.1; fill:none" points="1317.08,1325.07 1692.27,1000.14 1692.27,350.288 "/>
<polyline clip-path="url(#clip981)" style="stroke:#000000; stroke-linecap:round; stroke-linejoin:round; stroke-width:2; stroke-opacity:0.1; fill:none" points="1452.65,1325.45 802.793,1137.85 802.793,487.995 "/>
<polyline clip-path="url(#clip981)" style="stroke:#000000; stroke-linecap:round; stroke-linejoin:round; stroke-width:2; stroke-opacity:0.1; fill:none" points="1525.74,1262.14 875.889,1074.55 875.889,424.692 "/>
<polyline clip-path="url(#clip981)" style="stroke:#000000; stroke-linecap:round; stroke-linejoin:round; stroke-width:2; stroke-opacity:0.1; fill:none" points="1598.84,1198.84 948.985,1011.24 948.985,361.39 "/>
<polyline clip-path="url(#clip981)" style="stroke:#000000; stroke-linecap:round; stroke-linejoin:round; stroke-width:2; stroke-opacity:0.1; fill:none" points="1671.93,1135.54 1022.08,947.941 1022.08,298.087 "/>
<polyline clip-path="url(#clip981)" style="stroke:#000000; stroke-linecap:round; stroke-linejoin:round; stroke-width:2; stroke-opacity:0.1; fill:none" points="1745.03,1072.23 1095.18,884.638 1095.18,234.784 "/>
<polyline clip-path="url(#clip981)" style="stroke:#000000; stroke-linecap:round; stroke-linejoin:round; stroke-width:2; stroke-opacity:0.1; fill:none" points="769.227,1055.58 1144.42,730.652 1794.27,918.249 "/>
<polyline clip-path="url(#clip981)" style="stroke:#000000; stroke-linecap:round; stroke-linejoin:round; stroke-width:2; stroke-opacity:0.1; fill:none" points="769.227,942.893 1144.42,617.966 1794.27,805.563 "/>
<polyline clip-path="url(#clip981)" style="stroke:#000000; stroke-linecap:round; stroke-linejoin:round; stroke-width:2; stroke-opacity:0.1; fill:none" points="769.227,830.208 1144.42,505.281 1794.27,692.877 "/>
<polyline clip-path="url(#clip981)" style="stroke:#000000; stroke-linecap:round; stroke-linejoin:round; stroke-width:2; stroke-opacity:0.1; fill:none" points="769.227,717.522 1144.42,392.595 1794.27,580.192 "/>
<polyline clip-path="url(#clip981)" style="stroke:#000000; stroke-linecap:round; stroke-linejoin:round; stroke-width:2; stroke-opacity:0.1; fill:none" points="769.227,604.836 1144.42,279.909 1794.27,467.506 "/>
<polyline clip-path="url(#clip980)" style="stroke:#000000; stroke-linecap:round; stroke-linejoin:round; stroke-width:4; stroke-opacity:1; fill:none" points="769.227,1166.92 1419.08,1354.51 "/>
<polyline clip-path="url(#clip980)" style="stroke:#000000; stroke-linecap:round; stroke-linejoin:round; stroke-width:4; stroke-opacity:1; fill:none" points="799.59,1175.68 804.092,1171.78 "/>
<polyline clip-path="url(#clip980)" style="stroke:#000000; stroke-linecap:round; stroke-linejoin:round; stroke-width:4; stroke-opacity:1; fill:none" points="903.087,1205.56 907.59,1201.66 "/>
<polyline clip-path="url(#clip980)" style="stroke:#000000; stroke-linecap:round; stroke-linejoin:round; stroke-width:4; stroke-opacity:1; fill:none" points="1006.58,1235.44 1011.09,1231.54 "/>
<polyline clip-path="url(#clip980)" style="stroke:#000000; stroke-linecap:round; stroke-linejoin:round; stroke-width:4; stroke-opacity:1; fill:none" points="1110.08,1265.31 1114.58,1261.42 "/>
<polyline clip-path="url(#clip980)" style="stroke:#000000; stroke-linecap:round; stroke-linejoin:round; stroke-width:4; stroke-opacity:1; fill:none" points="1213.58,1295.19 1218.08,1291.29 "/>
<polyline clip-path="url(#clip980)" style="stroke:#000000; stroke-linecap:round; stroke-linejoin:round; stroke-width:4; stroke-opacity:1; fill:none" points="1317.08,1325.07 1321.58,1321.17 "/>
<path clip-path="url(#clip980)" d="M734.497 1204.65 L764.173 1204.65 L764.173 1208.59 L734.497 1208.59 L734.497 1204.65 Z" fill="#000000" fill-rule="nonzero" fill-opacity="1" /><path clip-path="url(#clip980)" d="M788.432 1202.85 Q791.789 1203.56 793.664 1205.83 Q795.562 1208.1 795.562 1211.43 Q795.562 1216.55 792.043 1219.35 Q788.525 1222.15 782.043 1222.15 Q779.867 1222.15 777.553 1221.71 Q775.261 1221.29 772.807 1220.44 L772.807 1215.92 Q774.752 1217.06 777.067 1217.64 Q779.381 1218.22 781.905 1218.22 Q786.303 1218.22 788.594 1216.48 Q790.909 1214.74 790.909 1211.43 Q790.909 1208.38 788.756 1206.67 Q786.627 1204.93 782.807 1204.93 L778.78 1204.93 L778.78 1201.09 L782.992 1201.09 Q786.442 1201.09 788.27 1199.72 Q790.099 1198.33 790.099 1195.74 Q790.099 1193.08 788.201 1191.67 Q786.326 1190.23 782.807 1190.23 Q780.886 1190.23 778.687 1190.65 Q776.488 1191.06 773.849 1191.94 L773.849 1187.78 Q776.511 1187.04 778.826 1186.67 Q781.164 1186.29 783.224 1186.29 Q788.548 1186.29 791.65 1188.73 Q794.752 1191.13 794.752 1195.25 Q794.752 1198.12 793.108 1200.11 Q791.465 1202.08 788.432 1202.85 Z" fill="#000000" fill-rule="nonzero" fill-opacity="1" /><path clip-path="url(#clip980)" d="M838.944 1234.53 L868.62 1234.53 L868.62 1238.46 L838.944 1238.46 L838.944 1234.53 Z" fill="#000000" fill-rule="nonzero" fill-opacity="1" /><path clip-path="url(#clip980)" d="M882.74 1247.42 L899.059 1247.42 L899.059 1251.36 L877.115 1251.36 L877.115 1247.42 Q879.777 1244.67 884.36 1240.04 Q888.967 1235.38 890.147 1234.04 Q892.393 1231.52 893.272 1229.78 Q894.175 1228.02 894.175 1226.33 Q894.175 1223.58 892.231 1221.84 Q890.309 1220.11 887.207 1220.11 Q885.008 1220.11 882.555 1220.87 Q880.124 1221.63 877.346 1223.19 L877.346 1218.46 Q880.17 1217.33 882.624 1216.75 Q885.078 1216.17 887.115 1216.17 Q892.485 1216.17 895.68 1218.86 Q898.874 1221.54 898.874 1226.03 Q898.874 1228.16 898.064 1230.08 Q897.277 1231.98 895.17 1234.57 Q894.592 1235.25 891.49 1238.46 Q888.388 1241.66 882.74 1247.42 Z" fill="#000000" fill-rule="nonzero" fill-opacity="1" /><path clip-path="url(#clip980)" d="M942.071 1264.41 L971.747 1264.41 L971.747 1268.34 L942.071 1268.34 L942.071 1264.41 Z" fill="#000000" fill-rule="nonzero" fill-opacity="1" /><path clip-path="url(#clip980)" d="M982.649 1277.3 L990.288 1277.3 L990.288 1250.93 L981.978 1252.6 L981.978 1248.34 L990.242 1246.67 L994.918 1246.67 L994.918 1277.3 L1002.56 1277.3 L1002.56 1281.23 L982.649 1281.23 L982.649 1277.3 Z" fill="#000000" fill-rule="nonzero" fill-opacity="1" /><path clip-path="url(#clip980)" d="M1094.11 1279.63 Q1090.5 1279.63 1088.67 1283.19 Q1086.86 1286.74 1086.86 1293.87 Q1086.86 1300.97 1088.67 1304.54 Q1090.5 1308.08 1094.11 1308.08 Q1097.74 1308.08 1099.55 1304.54 Q1101.38 1300.97 1101.38 1293.87 Q1101.38 1286.74 1099.55 1283.19 Q1097.74 1279.63 1094.11 1279.63 M1094.11 1275.93 Q1099.92 1275.93 1102.98 1280.53 Q1106.05 1285.12 1106.05 1293.87 Q1106.05 1302.59 1102.98 1307.2 Q1099.92 1311.78 1094.11 1311.78 Q1088.3 1311.78 1085.22 1307.2 Q1082.17 1302.59 1082.17 1293.87 Q1082.17 1285.12 1085.22 1280.53 Q1088.3 1275.93 1094.11 1275.93 Z" fill="#000000" fill-rule="nonzero" fill-opacity="1" /><path clip-path="url(#clip980)" d="M1189.64 1337.05 L1197.28 1337.05 L1197.28 1310.69 L1188.97 1312.35 L1188.97 1308.09 L1197.24 1306.43 L1201.91 1306.43 L1201.91 1337.05 L1209.55 1337.05 L1209.55 1340.99 L1189.64 1340.99 L1189.64 1337.05 Z" fill="#000000" fill-rule="nonzero" fill-opacity="1" /><path clip-path="url(#clip980)" d="M1296.73 1366.93 L1313.05 1366.93 L1313.05 1370.87 L1291.1 1370.87 L1291.1 1366.93 Q1293.77 1364.18 1298.35 1359.55 Q1302.96 1354.89 1304.14 1353.55 Q1306.38 1351.03 1307.26 1349.29 Q1308.16 1347.53 1308.16 1345.84 Q1308.16 1343.09 1306.22 1341.35 Q1304.3 1339.62 1301.2 1339.62 Q1299 1339.62 1296.54 1340.38 Q1294.11 1341.14 1291.34 1342.69 L1291.34 1337.97 Q1294.16 1336.84 1296.61 1336.26 Q1299.07 1335.68 1301.1 1335.68 Q1306.47 1335.68 1309.67 1338.37 Q1312.86 1341.05 1312.86 1345.54 Q1312.86 1347.67 1312.05 1349.59 Q1311.27 1351.49 1309.16 1354.08 Q1308.58 1354.75 1305.48 1357.97 Q1302.38 1361.17 1296.73 1366.93 Z" fill="#000000" fill-rule="nonzero" fill-opacity="1" /><path clip-path="url(#clip980)" d="M973.032 1406.74 Q973.032 1408.54 971.905 1409.57 Q970.777 1410.57 969.489 1410.57 Q968.265 1410.57 967.621 1409.86 Q966.977 1409.15 966.977 1408.25 Q966.977 1407.03 967.879 1405.96 Q968.781 1404.9 970.133 1404.68 Q968.813 1403.84 966.848 1403.84 Q965.56 1403.84 964.433 1404.52 Q963.338 1405.19 962.661 1406.06 Q962.017 1406.93 961.438 1408.19 Q960.89 1409.41 960.665 1410.15 Q960.471 1410.86 960.31 1411.63 L958.056 1420.65 Q956.961 1424.93 956.961 1426.45 Q956.961 1428.32 957.863 1429.57 Q958.765 1430.8 960.568 1430.8 Q961.277 1430.8 962.082 1430.6 Q962.887 1430.38 963.917 1429.8 Q964.98 1429.19 965.914 1428.28 Q966.88 1427.35 967.814 1425.77 Q968.748 1424.19 969.36 1422.16 Q969.554 1421.46 970.198 1421.46 Q971.003 1421.46 971.003 1422.1 Q971.003 1422.65 970.552 1423.81 Q970.133 1424.93 969.199 1426.42 Q968.297 1427.86 967.106 1429.19 Q965.914 1430.47 964.143 1431.38 Q962.372 1432.28 960.439 1432.28 Q957.67 1432.28 955.834 1430.8 Q953.998 1429.31 953.322 1427.25 Q953.161 1427.54 952.935 1427.93 Q952.71 1428.32 952.034 1429.19 Q951.389 1430.02 950.649 1430.67 Q949.908 1431.28 948.749 1431.76 Q947.621 1432.28 946.398 1432.28 Q944.852 1432.28 943.467 1431.83 Q942.114 1431.38 941.148 1430.34 Q940.182 1429.31 940.182 1427.9 Q940.182 1426.32 941.245 1425.22 Q942.34 1424.1 943.821 1424.1 Q944.755 1424.1 945.496 1424.64 Q946.269 1425.19 946.269 1426.38 Q946.269 1427.7 945.367 1428.7 Q944.465 1429.7 943.177 1429.96 Q944.497 1430.8 946.462 1430.8 Q948.588 1430.8 950.262 1428.93 Q951.937 1427.06 952.742 1423.94 Q954.739 1416.43 955.512 1413.08 Q956.285 1409.7 956.285 1408.25 Q956.285 1406.9 955.93 1405.96 Q955.576 1405.03 954.964 1404.61 Q954.385 1404.16 953.837 1404 Q953.322 1403.84 952.742 1403.84 Q951.776 1403.84 950.681 1404.23 Q949.618 1404.61 948.33 1405.51 Q947.074 1406.38 945.882 1408.19 Q944.691 1409.99 943.885 1412.47 Q943.724 1413.21 943.016 1413.21 Q942.243 1413.18 942.243 1412.53 Q942.243 1411.99 942.662 1410.86 Q943.113 1409.7 944.014 1408.25 Q944.948 1406.8 946.14 1405.51 Q947.364 1404.19 949.135 1403.29 Q950.939 1402.39 952.871 1402.39 Q953.74 1402.39 954.578 1402.58 Q955.447 1402.74 956.478 1403.23 Q957.541 1403.71 958.475 1404.77 Q959.409 1405.84 959.988 1407.38 Q960.375 1406.64 960.89 1405.93 Q961.438 1405.22 962.275 1404.35 Q963.145 1403.45 964.336 1402.94 Q965.56 1402.39 966.913 1402.39 Q968.233 1402.39 969.521 1402.74 Q970.81 1403.07 971.905 1404.13 Q973.032 1405.16 973.032 1406.74 Z" fill="#000000" fill-rule="nonzero" fill-opacity="1" /><path clip-path="url(#clip980)" d="M979.753 1424.19 L979.753 1422.75 Q985.299 1422.75 988.162 1419.8 Q988.951 1419.8 989.086 1419.98 Q989.222 1420.16 989.222 1420.99 L989.222 1446.9 Q989.222 1448.27 989.898 1448.7 Q990.574 1449.13 993.527 1449.13 L994.993 1449.13 L994.993 1450.55 Q993.37 1450.41 987.508 1450.41 Q981.647 1450.41 980.046 1450.55 L980.046 1449.13 L981.511 1449.13 Q984.42 1449.13 985.119 1448.72 Q985.817 1448.29 985.817 1446.9 L985.817 1422.98 Q983.405 1424.19 979.753 1424.19 Z" fill="#000000" fill-rule="nonzero" fill-opacity="1" /><polyline clip-path="url(#clip980)" style="stroke:#000000; stroke-linecap:round; stroke-linejoin:round; stroke-width:4; stroke-opacity:1; fill:none" points="1419.08,1354.51 1794.27,1029.59 "/>
<polyline clip-path="url(#clip980)" style="stroke:#000000; stroke-linecap:round; stroke-linejoin:round; stroke-width:4; stroke-opacity:1; fill:none" points="1452.65,1325.45 1444.85,1323.19 "/>
<polyline clip-path="url(#clip980)" style="stroke:#000000; stroke-linecap:round; stroke-linejoin:round; stroke-width:4; stroke-opacity:1; fill:none" points="1525.74,1262.14 1517.94,1259.89 "/>
<polyline clip-path="url(#clip980)" style="stroke:#000000; stroke-linecap:round; stroke-linejoin:round; stroke-width:4; stroke-opacity:1; fill:none" points="1598.84,1198.84 1591.04,1196.59 "/>
<polyline clip-path="url(#clip980)" style="stroke:#000000; stroke-linecap:round; stroke-linejoin:round; stroke-width:4; stroke-opacity:1; fill:none" points="1671.93,1135.54 1664.14,1133.29 "/>
<polyline clip-path="url(#clip980)" style="stroke:#000000; stroke-linecap:round; stroke-linejoin:round; stroke-width:4; stroke-opacity:1; fill:none" points="1745.03,1072.23 1737.23,1069.98 "/>
<path clip-path="url(#clip980)" d="M1463.88 1352.41 L1493.56 1352.41 L1493.56 1356.35 L1463.88 1356.35 L1463.88 1352.41 Z" fill="#000000" fill-rule="nonzero" fill-opacity="1" /><path clip-path="url(#clip980)" d="M1507.68 1365.31 L1524 1365.31 L1524 1369.24 L1502.06 1369.24 L1502.06 1365.31 Q1504.72 1362.55 1509.3 1357.92 Q1513.91 1353.27 1515.09 1351.93 Q1517.33 1349.41 1518.21 1347.67 Q1519.12 1345.91 1519.12 1344.22 Q1519.12 1341.47 1517.17 1339.73 Q1515.25 1337.99 1512.15 1337.99 Q1509.95 1337.99 1507.49 1338.76 Q1505.06 1339.52 1502.29 1341.07 L1502.29 1336.35 Q1505.11 1335.22 1507.56 1334.64 Q1510.02 1334.06 1512.05 1334.06 Q1517.43 1334.06 1520.62 1336.74 Q1523.81 1339.43 1523.81 1343.92 Q1523.81 1346.05 1523 1347.97 Q1522.22 1349.87 1520.11 1352.46 Q1519.53 1353.13 1516.43 1356.35 Q1513.33 1359.54 1507.68 1365.31 Z" fill="#000000" fill-rule="nonzero" fill-opacity="1" /><path clip-path="url(#clip980)" d="M1533.81 1363.36 L1538.7 1363.36 L1538.7 1369.24 L1533.81 1369.24 L1533.81 1363.36 Z" fill="#000000" fill-rule="nonzero" fill-opacity="1" /><path clip-path="url(#clip980)" d="M1548.93 1334.68 L1567.29 1334.68 L1567.29 1338.62 L1553.21 1338.62 L1553.21 1347.09 Q1554.23 1346.74 1555.25 1346.58 Q1556.27 1346.4 1557.29 1346.4 Q1563.07 1346.4 1566.45 1349.57 Q1569.83 1352.74 1569.83 1358.16 Q1569.83 1363.73 1566.36 1366.84 Q1562.89 1369.91 1556.57 1369.91 Q1554.39 1369.91 1552.12 1369.54 Q1549.88 1369.17 1547.47 1368.43 L1547.47 1363.73 Q1549.55 1364.87 1551.78 1365.42 Q1554 1365.98 1556.48 1365.98 Q1560.48 1365.98 1562.82 1363.87 Q1565.16 1361.77 1565.16 1358.16 Q1565.16 1354.54 1562.82 1352.44 Q1560.48 1350.33 1556.48 1350.33 Q1554.6 1350.33 1552.73 1350.75 Q1550.87 1351.16 1548.93 1352.04 L1548.93 1334.68 Z" fill="#000000" fill-rule="nonzero" fill-opacity="1" /><path clip-path="url(#clip980)" d="M1548.92 1274.46 Q1545.31 1274.46 1543.48 1278.02 Q1541.68 1281.57 1541.68 1288.7 Q1541.68 1295.8 1543.48 1299.37 Q1545.31 1302.91 1548.92 1302.91 Q1552.56 1302.91 1554.36 1299.37 Q1556.19 1295.8 1556.19 1288.7 Q1556.19 1281.57 1554.36 1278.02 Q1552.56 1274.46 1548.92 1274.46 M1548.92 1270.76 Q1554.73 1270.76 1557.79 1275.36 Q1560.87 1279.95 1560.87 1288.7 Q1560.87 1297.42 1557.79 1302.03 Q1554.73 1306.61 1548.92 1306.61 Q1543.11 1306.61 1540.04 1302.03 Q1536.98 1297.42 1536.98 1288.7 Q1536.98 1279.95 1540.04 1275.36 Q1543.11 1270.76 1548.92 1270.76 Z" fill="#000000" fill-rule="nonzero" fill-opacity="1" /><path clip-path="url(#clip980)" d="M1569.09 1300.06 L1573.97 1300.06 L1573.97 1305.94 L1569.09 1305.94 L1569.09 1300.06 Z" fill="#000000" fill-rule="nonzero" fill-opacity="1" /><path clip-path="url(#clip980)" d="M1594.16 1274.46 Q1590.54 1274.46 1588.72 1278.02 Q1586.91 1281.57 1586.91 1288.7 Q1586.91 1295.8 1588.72 1299.37 Q1590.54 1302.91 1594.16 1302.91 Q1597.79 1302.91 1599.6 1299.37 Q1601.42 1295.8 1601.42 1288.7 Q1601.42 1281.57 1599.6 1278.02 Q1597.79 1274.46 1594.16 1274.46 M1594.16 1270.76 Q1599.97 1270.76 1603.02 1275.36 Q1606.1 1279.95 1606.1 1288.7 Q1606.1 1297.42 1603.02 1302.03 Q1599.97 1306.61 1594.16 1306.61 Q1588.35 1306.61 1585.27 1302.03 Q1582.21 1297.42 1582.21 1288.7 Q1582.21 1279.95 1585.27 1275.36 Q1588.35 1270.76 1594.16 1270.76 Z" fill="#000000" fill-rule="nonzero" fill-opacity="1" /><path clip-path="url(#clip980)" d="M1615.7 1238.7 L1632.02 1238.7 L1632.02 1242.64 L1610.08 1242.64 L1610.08 1238.7 Q1612.74 1235.95 1617.32 1231.32 Q1621.93 1226.67 1623.11 1225.32 Q1625.35 1222.8 1626.23 1221.06 Q1627.14 1219.3 1627.14 1217.61 Q1627.14 1214.86 1625.19 1213.12 Q1623.27 1211.39 1620.17 1211.39 Q1617.97 1211.39 1615.52 1212.15 Q1613.08 1212.92 1610.31 1214.47 L1610.31 1209.74 Q1613.13 1208.61 1615.58 1208.03 Q1618.04 1207.45 1620.08 1207.45 Q1625.45 1207.45 1628.64 1210.14 Q1631.83 1212.82 1631.83 1217.31 Q1631.83 1219.44 1631.02 1221.36 Q1630.24 1223.26 1628.13 1225.86 Q1627.55 1226.53 1624.45 1229.74 Q1621.35 1232.94 1615.7 1238.7 Z" fill="#000000" fill-rule="nonzero" fill-opacity="1" /><path clip-path="url(#clip980)" d="M1641.83 1236.76 L1646.72 1236.76 L1646.72 1242.64 L1641.83 1242.64 L1641.83 1236.76 Z" fill="#000000" fill-rule="nonzero" fill-opacity="1" /><path clip-path="url(#clip980)" d="M1656.95 1208.08 L1675.31 1208.08 L1675.31 1212.01 L1661.23 1212.01 L1661.23 1220.48 Q1662.25 1220.14 1663.27 1219.98 Q1664.29 1219.79 1665.31 1219.79 Q1671.09 1219.79 1674.47 1222.96 Q1677.85 1226.13 1677.85 1231.55 Q1677.85 1237.13 1674.38 1240.23 Q1670.91 1243.31 1664.59 1243.31 Q1662.41 1243.31 1660.14 1242.94 Q1657.9 1242.57 1655.49 1241.83 L1655.49 1237.13 Q1657.58 1238.26 1659.8 1238.82 Q1662.02 1239.37 1664.5 1239.37 Q1668.5 1239.37 1670.84 1237.27 Q1673.18 1235.16 1673.18 1231.55 Q1673.18 1227.94 1670.84 1225.83 Q1668.5 1223.73 1664.5 1223.73 Q1662.62 1223.73 1660.75 1224.14 Q1658.89 1224.56 1656.95 1225.44 L1656.95 1208.08 Z" fill="#000000" fill-rule="nonzero" fill-opacity="1" /><path clip-path="url(#clip980)" d="M1684.63 1144.77 L1702.99 1144.77 L1702.99 1148.71 L1688.91 1148.71 L1688.91 1157.18 Q1689.93 1156.83 1690.95 1156.67 Q1691.97 1156.49 1692.99 1156.49 Q1698.77 1156.49 1702.15 1159.66 Q1705.53 1162.83 1705.53 1168.25 Q1705.53 1173.83 1702.06 1176.93 Q1698.59 1180.01 1692.27 1180.01 Q1690.09 1180.01 1687.82 1179.64 Q1685.58 1179.27 1683.17 1178.52 L1683.17 1173.83 Q1685.25 1174.96 1687.48 1175.52 Q1689.7 1176.07 1692.18 1176.07 Q1696.18 1176.07 1698.52 1173.96 Q1700.86 1171.86 1700.86 1168.25 Q1700.86 1164.64 1698.52 1162.53 Q1696.18 1160.42 1692.18 1160.42 Q1690.3 1160.42 1688.43 1160.84 Q1686.57 1161.26 1684.63 1162.14 L1684.63 1144.77 Z" fill="#000000" fill-rule="nonzero" fill-opacity="1" /><path clip-path="url(#clip980)" d="M1714.75 1173.46 L1719.63 1173.46 L1719.63 1179.33 L1714.75 1179.33 L1714.75 1173.46 Z" fill="#000000" fill-rule="nonzero" fill-opacity="1" /><path clip-path="url(#clip980)" d="M1739.81 1147.85 Q1736.2 1147.85 1734.37 1151.42 Q1732.57 1154.96 1732.57 1162.09 Q1732.57 1169.2 1734.37 1172.76 Q1736.2 1176.3 1739.81 1176.3 Q1743.45 1176.3 1745.25 1172.76 Q1747.08 1169.2 1747.08 1162.09 Q1747.08 1154.96 1745.25 1151.42 Q1743.45 1147.85 1739.81 1147.85 M1739.81 1144.15 Q1745.62 1144.15 1748.68 1148.76 Q1751.76 1153.34 1751.76 1162.09 Q1751.76 1170.82 1748.68 1175.42 Q1745.62 1180.01 1739.81 1180.01 Q1734 1180.01 1730.93 1175.42 Q1727.87 1170.82 1727.87 1162.09 Q1727.87 1153.34 1730.93 1148.76 Q1734 1144.15 1739.81 1144.15 Z" fill="#000000" fill-rule="nonzero" fill-opacity="1" /><path clip-path="url(#clip980)" d="M1756.27 1081.47 L1778.49 1081.47 L1778.49 1083.46 L1765.94 1116.03 L1761.06 1116.03 L1772.86 1085.41 L1756.27 1085.41 L1756.27 1081.47 Z" fill="#000000" fill-rule="nonzero" fill-opacity="1" /><path clip-path="url(#clip980)" d="M1787.61 1110.15 L1792.49 1110.15 L1792.49 1116.03 L1787.61 1116.03 L1787.61 1110.15 Z" fill="#000000" fill-rule="nonzero" fill-opacity="1" /><path clip-path="url(#clip980)" d="M1802.73 1081.47 L1821.08 1081.47 L1821.08 1085.41 L1807.01 1085.41 L1807.01 1093.88 Q1808.03 1093.53 1809.04 1093.37 Q1810.06 1093.18 1811.08 1093.18 Q1816.87 1093.18 1820.25 1096.36 Q1823.63 1099.53 1823.63 1104.94 Q1823.63 1110.52 1820.16 1113.62 Q1816.68 1116.7 1810.36 1116.7 Q1808.19 1116.7 1805.92 1116.33 Q1803.67 1115.96 1801.27 1115.22 L1801.27 1110.52 Q1803.35 1111.66 1805.57 1112.21 Q1807.79 1112.77 1810.27 1112.77 Q1814.28 1112.77 1816.61 1110.66 Q1818.95 1108.56 1818.95 1104.94 Q1818.95 1101.33 1816.61 1099.23 Q1814.28 1097.12 1810.27 1097.12 Q1808.4 1097.12 1806.52 1097.54 Q1804.67 1097.95 1802.73 1098.83 L1802.73 1081.47 Z" fill="#000000" fill-rule="nonzero" fill-opacity="1" /><path clip-path="url(#clip980)" d="M1730.21 1338.07 Q1730.21 1339.88 1729.09 1340.91 Q1727.96 1341.91 1726.67 1341.91 Q1725.45 1341.91 1724.8 1341.2 Q1724.16 1340.49 1724.16 1339.59 Q1724.16 1338.36 1725.06 1337.3 Q1725.96 1336.24 1727.32 1336.01 Q1726 1335.17 1724.03 1335.17 Q1722.74 1335.17 1721.62 1335.85 Q1720.52 1336.53 1719.84 1337.4 Q1719.2 1338.27 1718.62 1339.52 Q1718.07 1340.75 1717.85 1341.49 Q1717.65 1342.2 1717.49 1342.97 L1715.24 1351.99 Q1714.14 1356.27 1714.14 1357.78 Q1714.14 1359.65 1715.05 1360.91 Q1715.95 1362.13 1717.75 1362.13 Q1718.46 1362.13 1719.26 1361.94 Q1720.07 1361.71 1721.1 1361.13 Q1722.16 1360.52 1723.1 1359.62 Q1724.06 1358.68 1725 1357.11 Q1725.93 1355.53 1726.54 1353.5 Q1726.74 1352.79 1727.38 1352.79 Q1728.19 1352.79 1728.19 1353.43 Q1728.19 1353.98 1727.74 1355.14 Q1727.32 1356.27 1726.38 1357.75 Q1725.48 1359.2 1724.29 1360.52 Q1723.1 1361.81 1721.33 1362.71 Q1719.55 1363.61 1717.62 1363.61 Q1714.85 1363.61 1713.02 1362.13 Q1711.18 1360.65 1710.5 1358.59 Q1710.34 1358.88 1710.12 1359.26 Q1709.89 1359.65 1709.22 1360.52 Q1708.57 1361.36 1707.83 1362 Q1707.09 1362.61 1705.93 1363.1 Q1704.8 1363.61 1703.58 1363.61 Q1702.03 1363.61 1700.65 1363.16 Q1699.3 1362.71 1698.33 1361.68 Q1697.36 1360.65 1697.36 1359.23 Q1697.36 1357.65 1698.43 1356.56 Q1699.52 1355.43 1701 1355.43 Q1701.94 1355.43 1702.68 1355.98 Q1703.45 1356.53 1703.45 1357.72 Q1703.45 1359.04 1702.55 1360.04 Q1701.65 1361.04 1700.36 1361.29 Q1701.68 1362.13 1703.65 1362.13 Q1705.77 1362.13 1707.45 1360.26 Q1709.12 1358.39 1709.93 1355.27 Q1711.92 1347.77 1712.69 1344.42 Q1713.47 1341.04 1713.47 1339.59 Q1713.47 1338.23 1713.11 1337.3 Q1712.76 1336.37 1712.15 1335.95 Q1711.57 1335.5 1711.02 1335.34 Q1710.5 1335.17 1709.93 1335.17 Q1708.96 1335.17 1707.86 1335.56 Q1706.8 1335.95 1705.51 1336.85 Q1704.26 1337.72 1703.07 1339.52 Q1701.87 1341.33 1701.07 1343.81 Q1700.91 1344.55 1700.2 1344.55 Q1699.43 1344.51 1699.43 1343.87 Q1699.43 1343.32 1699.84 1342.2 Q1700.3 1341.04 1701.2 1339.59 Q1702.13 1338.14 1703.32 1336.85 Q1704.55 1335.53 1706.32 1334.63 Q1708.12 1333.72 1710.05 1333.72 Q1710.92 1333.72 1711.76 1333.92 Q1712.63 1334.08 1713.66 1334.56 Q1714.72 1335.05 1715.66 1336.11 Q1716.59 1337.17 1717.17 1338.72 Q1717.56 1337.98 1718.07 1337.27 Q1718.62 1336.56 1719.46 1335.69 Q1720.33 1334.79 1721.52 1334.27 Q1722.74 1333.72 1724.1 1333.72 Q1725.42 1333.72 1726.7 1334.08 Q1727.99 1334.4 1729.09 1335.46 Q1730.21 1336.49 1730.21 1338.07 Z" fill="#000000" fill-rule="nonzero" fill-opacity="1" /><path clip-path="url(#clip980)" d="M1736.94 1381.88 Q1736.94 1381.05 1737 1380.8 Q1737.09 1380.55 1737.45 1380.17 L1746.31 1370.29 Q1751.16 1364.84 1751.16 1360.08 Q1751.16 1356.99 1749.54 1354.78 Q1747.94 1352.57 1744.98 1352.57 Q1742.96 1352.57 1741.24 1353.81 Q1739.53 1355.05 1738.74 1357.26 Q1738.87 1357.22 1739.35 1357.22 Q1740.5 1357.22 1741.13 1357.94 Q1741.78 1358.66 1741.78 1359.63 Q1741.78 1360.87 1740.97 1361.48 Q1740.18 1362.07 1739.39 1362.07 Q1739.08 1362.07 1738.65 1362 Q1738.24 1361.93 1737.59 1361.3 Q1736.94 1360.65 1736.94 1359.5 Q1736.94 1356.27 1739.37 1353.7 Q1741.83 1351.13 1745.57 1351.13 Q1749.81 1351.13 1752.58 1353.66 Q1755.38 1356.16 1755.38 1360.08 Q1755.38 1361.46 1754.95 1362.72 Q1754.54 1363.96 1753.98 1364.93 Q1753.44 1365.9 1751.95 1367.45 Q1750.46 1369.01 1749.27 1370.11 Q1748.07 1371.22 1745.39 1373.56 L1740.5 1378.32 L1748.82 1378.32 Q1752.87 1378.32 1753.19 1377.96 Q1753.64 1377.31 1754.2 1373.86 L1755.38 1373.86 L1754.07 1381.88 L1736.94 1381.88 Z" fill="#000000" fill-rule="nonzero" fill-opacity="1" /><polyline clip-path="url(#clip980)" style="stroke:#000000; stroke-linecap:round; stroke-linejoin:round; stroke-width:4; stroke-opacity:1; fill:none" points="769.227,1166.92 769.227,517.064 "/>
<polyline clip-path="url(#clip980)" style="stroke:#000000; stroke-linecap:round; stroke-linejoin:round; stroke-width:4; stroke-opacity:1; fill:none" points="769.227,1055.58 773.73,1051.68 "/>
<polyline clip-path="url(#clip980)" style="stroke:#000000; stroke-linecap:round; stroke-linejoin:round; stroke-width:4; stroke-opacity:1; fill:none" points="769.227,942.893 773.73,938.994 "/>
<polyline clip-path="url(#clip980)" style="stroke:#000000; stroke-linecap:round; stroke-linejoin:round; stroke-width:4; stroke-opacity:1; fill:none" points="769.227,830.208 773.73,826.309 "/>
<polyline clip-path="url(#clip980)" style="stroke:#000000; stroke-linecap:round; stroke-linejoin:round; stroke-width:4; stroke-opacity:1; fill:none" points="769.227,717.522 773.73,713.623 "/>
<polyline clip-path="url(#clip980)" style="stroke:#000000; stroke-linecap:round; stroke-linejoin:round; stroke-width:4; stroke-opacity:1; fill:none" points="769.227,604.836 773.73,600.937 "/>
<path clip-path="url(#clip980)" d="M680.312 1056.03 L709.988 1056.03 L709.988 1059.97 L680.312 1059.97 L680.312 1056.03 Z" fill="#000000" fill-rule="nonzero" fill-opacity="1" /><path clip-path="url(#clip980)" d="M724.108 1068.92 L740.427 1068.92 L740.427 1072.86 L718.483 1072.86 L718.483 1068.92 Q721.145 1066.17 725.728 1061.54 Q730.335 1056.89 731.515 1055.54 Q733.761 1053.02 734.64 1051.29 Q735.543 1049.53 735.543 1047.84 Q735.543 1045.08 733.599 1043.35 Q731.677 1041.61 728.576 1041.61 Q726.376 1041.61 723.923 1042.37 Q721.492 1043.14 718.714 1044.69 L718.714 1039.97 Q721.539 1038.83 723.992 1038.25 Q726.446 1037.67 728.483 1037.67 Q733.853 1037.67 737.048 1040.36 Q740.242 1043.04 740.242 1047.54 Q740.242 1049.66 739.432 1051.59 Q738.645 1053.48 736.538 1056.08 Q735.96 1056.75 732.858 1059.97 Q729.756 1063.16 724.108 1068.92 Z" fill="#000000" fill-rule="nonzero" fill-opacity="1" /><path clip-path="url(#clip980)" d="M679.942 943.345 L709.617 943.345 L709.617 947.28 L679.942 947.28 L679.942 943.345 Z" fill="#000000" fill-rule="nonzero" fill-opacity="1" /><path clip-path="url(#clip980)" d="M720.52 956.238 L728.159 956.238 L728.159 929.873 L719.849 931.539 L719.849 927.28 L728.113 925.613 L732.788 925.613 L732.788 956.238 L740.427 956.238 L740.427 960.173 L720.52 960.173 L720.52 956.238 Z" fill="#000000" fill-rule="nonzero" fill-opacity="1" /><path clip-path="url(#clip980)" d="M728.483 816.006 Q724.872 816.006 723.043 819.571 Q721.238 823.113 721.238 830.242 Q721.238 837.349 723.043 840.914 Q724.872 844.455 728.483 844.455 Q732.117 844.455 733.923 840.914 Q735.751 837.349 735.751 830.242 Q735.751 823.113 733.923 819.571 Q732.117 816.006 728.483 816.006 M728.483 812.303 Q734.293 812.303 737.349 816.909 Q740.427 821.493 740.427 830.242 Q740.427 838.969 737.349 843.576 Q734.293 848.159 728.483 848.159 Q722.673 848.159 719.594 843.576 Q716.539 838.969 716.539 830.242 Q716.539 821.493 719.594 816.909 Q722.673 812.303 728.483 812.303 Z" fill="#000000" fill-rule="nonzero" fill-opacity="1" /><path clip-path="url(#clip980)" d="M720.52 730.867 L728.159 730.867 L728.159 704.501 L719.849 706.168 L719.849 701.909 L728.113 700.242 L732.788 700.242 L732.788 730.867 L740.427 730.867 L740.427 734.802 L720.52 734.802 L720.52 730.867 Z" fill="#000000" fill-rule="nonzero" fill-opacity="1" /><path clip-path="url(#clip980)" d="M724.108 618.181 L740.427 618.181 L740.427 622.116 L718.483 622.116 L718.483 618.181 Q721.145 615.427 725.728 610.797 Q730.335 606.144 731.515 604.802 Q733.761 602.279 734.64 600.542 Q735.543 598.783 735.543 597.093 Q735.543 594.339 733.599 592.603 Q731.677 590.867 728.576 590.867 Q726.376 590.867 723.923 591.63 Q721.492 592.394 718.714 593.945 L718.714 589.223 Q721.539 588.089 723.992 587.51 Q726.446 586.931 728.483 586.931 Q733.853 586.931 737.048 589.617 Q740.242 592.302 740.242 596.792 Q740.242 598.922 739.432 600.843 Q738.645 602.742 736.538 605.334 Q735.96 606.005 732.858 609.223 Q729.756 612.417 724.108 618.181 Z" fill="#000000" fill-rule="nonzero" fill-opacity="1" /><path clip-path="url(#clip980)" d="M587.86 841.935 Q589.663 841.935 590.694 843.062 Q591.692 844.189 591.692 845.478 Q591.692 846.702 590.984 847.346 Q590.275 847.99 589.374 847.99 Q588.15 847.99 587.087 847.088 Q586.024 846.186 585.799 844.834 Q584.961 846.154 584.961 848.119 Q584.961 849.407 585.638 850.534 Q586.314 851.629 587.184 852.305 Q588.053 852.949 589.309 853.529 Q590.533 854.077 591.274 854.302 Q591.982 854.495 592.755 854.656 L601.773 856.911 Q606.056 858.006 607.57 858.006 Q609.438 858.006 610.694 857.104 Q611.918 856.202 611.918 854.399 Q611.918 853.69 611.724 852.885 Q611.499 852.08 610.919 851.049 Q610.307 849.987 609.406 849.053 Q608.472 848.086 606.894 847.152 Q605.316 846.218 603.287 845.607 Q602.578 845.413 602.578 844.769 Q602.578 843.964 603.222 843.964 Q603.77 843.964 604.929 844.415 Q606.056 844.834 607.538 845.768 Q608.987 846.669 610.307 847.861 Q611.596 849.053 612.497 850.824 Q613.399 852.595 613.399 854.528 Q613.399 857.297 611.918 859.133 Q610.436 860.969 608.375 861.645 Q608.665 861.806 609.051 862.032 Q609.438 862.257 610.307 862.933 Q611.145 863.577 611.789 864.318 Q612.401 865.059 612.884 866.218 Q613.399 867.345 613.399 868.569 Q613.399 870.115 612.948 871.5 Q612.497 872.853 611.467 873.819 Q610.436 874.785 609.019 874.785 Q607.441 874.785 606.346 873.722 Q605.219 872.627 605.219 871.146 Q605.219 870.212 605.766 869.471 Q606.314 868.698 607.506 868.698 Q608.826 868.698 609.824 869.6 Q610.823 870.502 611.08 871.79 Q611.918 870.469 611.918 868.505 Q611.918 866.379 610.05 864.705 Q608.182 863.03 605.058 862.225 Q597.554 860.228 594.205 859.455 Q590.823 858.682 589.374 858.682 Q588.021 858.682 587.087 859.036 Q586.153 859.391 585.734 860.003 Q585.283 860.582 585.122 861.13 Q584.961 861.645 584.961 862.225 Q584.961 863.191 585.348 864.286 Q585.734 865.349 586.636 866.637 Q587.506 867.893 589.309 869.085 Q591.113 870.276 593.593 871.081 Q594.333 871.242 594.333 871.951 Q594.301 872.724 593.657 872.724 Q593.11 872.724 591.982 872.305 Q590.823 871.854 589.374 870.953 Q587.924 870.019 586.636 868.827 Q585.316 867.603 584.414 865.832 Q583.512 864.028 583.512 862.096 Q583.512 861.226 583.705 860.389 Q583.866 859.519 584.35 858.489 Q584.833 857.426 585.895 856.492 Q586.958 855.558 588.504 854.978 Q587.763 854.592 587.055 854.077 Q586.346 853.529 585.477 852.692 Q584.575 851.822 584.06 850.631 Q583.512 849.407 583.512 848.054 Q583.512 846.734 583.866 845.445 Q584.188 844.157 585.251 843.062 Q586.282 841.935 587.86 841.935 Z" fill="#000000" fill-rule="nonzero" fill-opacity="1" /><path clip-path="url(#clip980)" d="M625.447 835.214 Q624.072 835.214 623.418 834.425 Q622.764 833.636 622.764 832.621 Q622.764 831.562 623.463 830.818 Q624.14 830.051 625.335 830.051 Q626.62 830.051 627.341 830.953 Q628.062 831.832 627.882 833.095 Q629.731 831.99 630.565 829.961 Q631.399 827.909 631.399 826.016 Q631.399 824.032 629.686 822.431 Q627.972 820.808 623.779 820.808 Q620.217 820.808 618.165 822.206 Q616.114 823.581 616.114 826.309 L616.114 828.338 Q616.114 829.037 616.046 829.24 Q615.979 829.442 615.595 829.442 Q615.145 829.442 615.054 828.744 Q615.054 828.045 614.919 826.94 Q614.829 824.257 612.507 822.837 Q610.343 821.552 607.254 821.552 Q604.436 821.552 603.264 822.905 Q602.069 824.235 602.069 825.971 Q602.069 827.594 602.745 829.375 Q603.422 831.156 604.932 832.125 Q604.932 829.262 607.254 829.262 Q608.269 829.262 608.945 829.916 Q609.599 830.547 609.599 831.607 Q609.599 832.621 608.967 833.298 Q608.314 833.974 607.209 833.974 Q604.571 833.974 602.745 831.629 Q600.919 829.262 600.919 825.79 Q600.919 822.364 602.723 819.839 Q604.526 817.291 607.299 817.291 Q610.027 817.291 612.259 819.095 Q614.491 820.898 615.415 823.761 Q616.114 820.244 618.504 818.148 Q620.871 816.051 623.779 816.051 Q627.386 816.051 630.046 818.892 Q632.684 821.732 632.684 825.881 Q632.684 829.713 630.61 832.463 Q628.536 835.214 625.447 835.214 Z" fill="#000000" fill-rule="nonzero" fill-opacity="1" /><path clip-path="url(#clip980)" d="M682.075 12.096 L733.238 12.096 L733.238 18.9825 L711.768 18.9825 L711.768 72.576 L703.545 72.576 L703.545 18.9825 L682.075 18.9825 L682.075 12.096 Z" fill="#000000" fill-rule="nonzero" fill-opacity="1" /><path clip-path="url(#clip980)" d="M754.911 34.1734 Q753.655 33.4443 752.156 33.1202 Q750.698 32.7556 748.915 32.7556 Q742.596 32.7556 739.193 36.8875 Q735.831 40.9789 735.831 48.6757 L735.831 72.576 L728.337 72.576 L728.337 27.2059 L735.831 27.2059 L735.831 34.2544 Q738.18 30.1225 741.948 28.1376 Q745.715 26.1121 751.103 26.1121 Q751.872 26.1121 752.804 26.2337 Q753.736 26.3147 754.87 26.5172 L754.911 34.1734 Z" fill="#000000" fill-rule="nonzero" fill-opacity="1" /><path clip-path="url(#clip980)" d="M783.348 49.7694 Q774.314 49.7694 770.831 51.8354 Q767.347 53.9013 767.347 58.8839 Q767.347 62.8538 769.939 65.2034 Q772.573 67.5124 777.069 67.5124 Q783.267 67.5124 786.994 63.1374 Q790.761 58.7219 790.761 51.4303 L790.761 49.7694 L783.348 49.7694 M798.215 46.6907 L798.215 72.576 L790.761 72.576 L790.761 65.6895 Q788.209 69.8214 784.401 71.8063 Q780.593 73.7508 775.084 73.7508 Q768.117 73.7508 763.985 69.8619 Q759.893 65.9325 759.893 59.3701 Q759.893 51.7138 764.997 47.825 Q770.142 43.9361 780.31 43.9361 L790.761 43.9361 L790.761 43.2069 Q790.761 38.0623 787.358 35.2672 Q783.996 32.4315 777.879 32.4315 Q773.99 32.4315 770.304 33.3632 Q766.618 34.295 763.215 36.1584 L763.215 29.2718 Q767.306 27.692 771.155 26.9223 Q775.003 26.1121 778.649 26.1121 Q788.493 26.1121 793.354 31.2163 Q798.215 36.3204 798.215 46.6907 Z" fill="#000000" fill-rule="nonzero" fill-opacity="1" /><path clip-path="url(#clip980)" d="M813.568 27.2059 L821.021 27.2059 L821.021 73.3862 Q821.021 82.0551 817.7 85.944 Q814.418 89.8329 807.086 89.8329 L804.251 89.8329 L804.251 83.5134 L806.236 83.5134 Q810.489 83.5134 812.028 81.5285 Q813.568 79.5841 813.568 73.3862 L813.568 27.2059 M813.568 9.54393 L821.021 9.54393 L821.021 18.9825 L813.568 18.9825 L813.568 9.54393 Z" fill="#000000" fill-rule="nonzero" fill-opacity="1" /><path clip-path="url(#clip980)" d="M875.425 48.0275 L875.425 51.6733 L841.154 51.6733 Q841.64 59.3701 845.772 63.421 Q849.945 67.4314 857.358 67.4314 Q861.652 67.4314 865.662 66.3781 Q869.713 65.3249 873.683 63.2184 L873.683 70.267 Q869.673 71.9684 865.46 72.8596 Q861.247 73.7508 856.912 73.7508 Q846.056 73.7508 839.696 67.4314 Q833.377 61.1119 833.377 50.3365 Q833.377 39.1965 839.372 32.6746 Q845.408 26.1121 855.616 26.1121 Q864.771 26.1121 870.078 32.0264 Q875.425 37.9003 875.425 48.0275 M867.971 45.84 Q867.89 39.7232 864.528 36.0774 Q861.206 32.4315 855.697 32.4315 Q849.459 32.4315 845.691 35.9558 Q841.965 39.4801 841.397 45.8805 L867.971 45.84 Z" fill="#000000" fill-rule="nonzero" fill-opacity="1" /><path clip-path="url(#clip980)" d="M920.309 28.9478 L920.309 35.9153 Q917.149 34.1734 913.949 33.3227 Q910.789 32.4315 907.549 32.4315 Q900.298 32.4315 896.287 37.0496 Q892.277 41.6271 892.277 49.9314 Q892.277 58.2358 896.287 62.8538 Q900.298 67.4314 907.549 67.4314 Q910.789 67.4314 913.949 66.5807 Q917.149 65.6895 920.309 63.9476 L920.309 70.8341 Q917.19 72.2924 913.828 73.0216 Q910.506 73.7508 906.738 73.7508 Q896.49 73.7508 890.454 67.3098 Q884.418 60.8689 884.418 49.9314 Q884.418 38.832 890.494 32.472 Q896.611 26.1121 907.225 26.1121 Q910.668 26.1121 913.949 26.8413 Q917.23 27.5299 920.309 28.9478 Z" fill="#000000" fill-rule="nonzero" fill-opacity="1" /><path clip-path="url(#clip980)" d="M940.645 14.324 L940.645 27.2059 L955.997 27.2059 L955.997 32.9987 L940.645 32.9987 L940.645 57.6282 Q940.645 63.1779 942.143 64.7578 Q943.683 66.3376 948.341 66.3376 L955.997 66.3376 L955.997 72.576 L948.341 72.576 Q939.713 72.576 936.432 69.3758 Q933.15 66.1351 933.15 57.6282 L933.15 32.9987 L927.682 32.9987 L927.682 27.2059 L933.15 27.2059 L933.15 14.324 L940.645 14.324 Z" fill="#000000" fill-rule="nonzero" fill-opacity="1" /><path clip-path="url(#clip980)" d="M983.382 32.4315 Q977.386 32.4315 973.902 37.1306 Q970.419 41.7891 970.419 49.9314 Q970.419 58.0738 973.862 62.7728 Q977.346 67.4314 983.382 67.4314 Q989.336 67.4314 992.82 62.7323 Q996.304 58.0333 996.304 49.9314 Q996.304 41.8701 992.82 37.1711 Q989.336 32.4315 983.382 32.4315 M983.382 26.1121 Q993.104 26.1121 998.653 32.4315 Q1004.2 38.7509 1004.2 49.9314 Q1004.2 61.0714 998.653 67.4314 Q993.104 73.7508 983.382 73.7508 Q973.619 73.7508 968.069 67.4314 Q962.56 61.0714 962.56 49.9314 Q962.56 38.7509 968.069 32.4315 Q973.619 26.1121 983.382 26.1121 Z" fill="#000000" fill-rule="nonzero" fill-opacity="1" /><path clip-path="url(#clip980)" d="M1042.85 34.1734 Q1041.59 33.4443 1040.09 33.1202 Q1038.64 32.7556 1036.85 32.7556 Q1030.53 32.7556 1027.13 36.8875 Q1023.77 40.9789 1023.77 48.6757 L1023.77 72.576 L1016.27 72.576 L1016.27 27.2059 L1023.77 27.2059 L1023.77 34.2544 Q1026.12 30.1225 1029.89 28.1376 Q1033.65 26.1121 1039.04 26.1121 Q1039.81 26.1121 1040.74 26.2337 Q1041.67 26.3147 1042.81 26.5172 L1042.85 34.1734 Z" fill="#000000" fill-rule="nonzero" fill-opacity="1" /><path clip-path="url(#clip980)" d="M1069.54 76.7889 Q1066.38 84.8907 1063.39 87.3618 Q1060.39 89.8329 1055.37 89.8329 L1049.41 89.8329 L1049.41 83.5945 L1053.79 83.5945 Q1056.86 83.5945 1058.57 82.1361 Q1060.27 80.6778 1062.33 75.2496 L1063.67 71.8468 L1045.32 27.2059 L1053.22 27.2059 L1067.4 62.6918 L1081.58 27.2059 L1089.47 27.2059 L1069.54 76.7889 Z" fill="#000000" fill-rule="nonzero" fill-opacity="1" /><path clip-path="url(#clip980)" d="M1144.04 9.62495 Q1138.61 18.942 1135.98 28.0566 Q1133.35 37.1711 1133.35 46.5287 Q1133.35 55.8863 1135.98 65.0818 Q1138.65 74.2369 1144.04 83.5134 L1137.56 83.5134 Q1131.48 73.9938 1128.44 64.7983 Q1125.45 55.6027 1125.45 46.5287 Q1125.45 37.4952 1128.44 28.3401 Q1131.44 19.1851 1137.56 9.62495 L1144.04 9.62495 Z" fill="#000000" fill-rule="nonzero" fill-opacity="1" /><path clip-path="url(#clip980)" d="M1157.73 54.671 L1157.73 27.2059 L1165.19 27.2059 L1165.19 54.3874 Q1165.19 60.8284 1167.7 64.0691 Q1170.21 67.2693 1175.23 67.2693 Q1181.27 67.2693 1184.75 63.421 Q1188.28 59.5726 1188.28 52.9291 L1188.28 27.2059 L1195.73 27.2059 L1195.73 72.576 L1188.28 72.576 L1188.28 65.6084 Q1185.56 69.7404 1181.96 71.7658 Q1178.39 73.7508 1173.65 73.7508 Q1165.83 73.7508 1161.78 68.8897 Q1157.73 64.0286 1157.73 54.671 M1176.49 26.1121 L1176.49 26.1121 Z" fill="#000000" fill-rule="nonzero" fill-opacity="1" /><path clip-path="url(#clip980)" d="M1218.29 65.7705 L1218.29 89.8329 L1210.8 89.8329 L1210.8 27.2059 L1218.29 27.2059 L1218.29 34.0924 Q1220.64 30.0415 1224.21 28.0971 Q1227.81 26.1121 1232.8 26.1121 Q1241.06 26.1121 1246.2 32.6746 Q1251.39 39.2371 1251.39 49.9314 Q1251.39 60.6258 1246.2 67.1883 Q1241.06 73.7508 1232.8 73.7508 Q1227.81 73.7508 1224.21 71.8063 Q1220.64 69.8214 1218.29 65.7705 M1243.65 49.9314 Q1243.65 41.7081 1240.25 37.0496 Q1236.89 32.3505 1230.97 32.3505 Q1225.06 32.3505 1221.66 37.0496 Q1218.29 41.7081 1218.29 49.9314 Q1218.29 58.1548 1221.66 62.8538 Q1225.06 67.5124 1230.97 67.5124 Q1236.89 67.5124 1240.25 62.8538 Q1243.65 58.1548 1243.65 49.9314 Z" fill="#000000" fill-rule="nonzero" fill-opacity="1" /><path clip-path="url(#clip980)" d="M1297.49 14.324 L1297.49 27.2059 L1312.84 27.2059 L1312.84 32.9987 L1297.49 32.9987 L1297.49 57.6282 Q1297.49 63.1779 1298.99 64.7578 Q1300.53 66.3376 1305.19 66.3376 L1312.84 66.3376 L1312.84 72.576 L1305.19 72.576 Q1296.56 72.576 1293.28 69.3758 Q1289.99 66.1351 1289.99 57.6282 L1289.99 32.9987 L1284.53 32.9987 L1284.53 27.2059 L1289.99 27.2059 L1289.99 14.324 L1297.49 14.324 Z" fill="#000000" fill-rule="nonzero" fill-opacity="1" /><path clip-path="url(#clip980)" d="M1340.23 32.4315 Q1334.23 32.4315 1330.75 37.1306 Q1327.26 41.7891 1327.26 49.9314 Q1327.26 58.0738 1330.71 62.7728 Q1334.19 67.4314 1340.23 67.4314 Q1346.18 67.4314 1349.66 62.7323 Q1353.15 58.0333 1353.15 49.9314 Q1353.15 41.8701 1349.66 37.1711 Q1346.18 32.4315 1340.23 32.4315 M1340.23 26.1121 Q1349.95 26.1121 1355.5 32.4315 Q1361.05 38.7509 1361.05 49.9314 Q1361.05 61.0714 1355.5 67.4314 Q1349.95 73.7508 1340.23 73.7508 Q1330.46 73.7508 1324.91 67.4314 Q1319.4 61.0714 1319.4 49.9314 Q1319.4 38.7509 1324.91 32.4315 Q1330.46 26.1121 1340.23 26.1121 Z" fill="#000000" fill-rule="nonzero" fill-opacity="1" /><path clip-path="url(#clip980)" d="M1425.62 39.9662 Q1431.49 41.222 1434.77 45.1919 Q1438.1 49.1618 1438.1 54.9951 Q1438.1 63.9476 1431.94 68.8492 Q1425.78 73.7508 1414.44 73.7508 Q1410.63 73.7508 1406.58 72.9811 Q1402.57 72.2519 1398.28 70.7531 L1398.28 62.8538 Q1401.68 64.8388 1405.73 65.8515 Q1409.78 66.8642 1414.2 66.8642 Q1421.89 66.8642 1425.9 63.826 Q1429.95 60.7879 1429.95 54.9951 Q1429.95 49.6479 1426.19 46.6502 Q1422.46 43.612 1415.78 43.612 L1408.73 43.612 L1408.73 36.8875 L1416.1 36.8875 Q1422.14 36.8875 1425.34 34.4975 Q1428.54 32.067 1428.54 27.5299 Q1428.54 22.8714 1425.21 20.4004 Q1421.93 17.8888 1415.78 17.8888 Q1412.41 17.8888 1408.56 18.618 Q1404.72 19.3471 1400.1 20.8865 L1400.1 13.5948 Q1404.76 12.2985 1408.81 11.6504 Q1412.9 11.0023 1416.5 11.0023 Q1425.82 11.0023 1431.25 15.2557 Q1436.68 19.4686 1436.68 26.6793 Q1436.68 31.7024 1433.8 35.1862 Q1430.93 38.6294 1425.62 39.9662 Z" fill="#000000" fill-rule="nonzero" fill-opacity="1" /><path clip-path="url(#clip980)" d="M1471.11 17.4837 Q1464.79 17.4837 1461.59 23.7221 Q1458.43 29.92 1458.43 42.3968 Q1458.43 54.833 1461.59 61.0714 Q1464.79 67.2693 1471.11 67.2693 Q1477.47 67.2693 1480.63 61.0714 Q1483.83 54.833 1483.83 42.3968 Q1483.83 29.92 1480.63 23.7221 Q1477.47 17.4837 1471.11 17.4837 M1471.11 11.0023 Q1481.28 11.0023 1486.63 19.0636 Q1492.01 27.0843 1492.01 42.3968 Q1492.01 57.6687 1486.63 65.73 Q1481.28 73.7508 1471.11 73.7508 Q1460.94 73.7508 1455.55 65.73 Q1450.21 57.6687 1450.21 42.3968 Q1450.21 27.0843 1455.55 19.0636 Q1460.94 11.0023 1471.11 11.0023 Z" fill="#000000" fill-rule="nonzero" fill-opacity="1" /><path clip-path="url(#clip980)" d="M1523.89 17.4837 Q1517.57 17.4837 1514.37 23.7221 Q1511.21 29.92 1511.21 42.3968 Q1511.21 54.833 1514.37 61.0714 Q1517.57 67.2693 1523.89 67.2693 Q1530.25 67.2693 1533.41 61.0714 Q1536.61 54.833 1536.61 42.3968 Q1536.61 29.92 1533.41 23.7221 Q1530.25 17.4837 1523.89 17.4837 M1523.89 11.0023 Q1534.06 11.0023 1539.41 19.0636 Q1544.8 27.0843 1544.8 42.3968 Q1544.8 57.6687 1539.41 65.73 Q1534.06 73.7508 1523.89 73.7508 Q1513.73 73.7508 1508.34 65.73 Q1502.99 57.6687 1502.99 42.3968 Q1502.99 27.0843 1508.34 19.0636 Q1513.73 11.0023 1523.89 11.0023 Z" fill="#000000" fill-rule="nonzero" fill-opacity="1" /><path clip-path="url(#clip980)" d="M1623.3 48.0275 L1623.3 51.6733 L1589.03 51.6733 Q1589.52 59.3701 1593.65 63.421 Q1597.82 67.4314 1605.24 67.4314 Q1609.53 67.4314 1613.54 66.3781 Q1617.59 65.3249 1621.56 63.2184 L1621.56 70.267 Q1617.55 71.9684 1613.34 72.8596 Q1609.12 73.7508 1604.79 73.7508 Q1593.93 73.7508 1587.57 67.4314 Q1581.25 61.1119 1581.25 50.3365 Q1581.25 39.1965 1587.25 32.6746 Q1593.29 26.1121 1603.49 26.1121 Q1612.65 26.1121 1617.96 32.0264 Q1623.3 37.9003 1623.3 48.0275 M1615.85 45.84 Q1615.77 39.7232 1612.41 36.0774 Q1609.08 32.4315 1603.58 32.4315 Q1597.34 32.4315 1593.57 35.9558 Q1589.84 39.4801 1589.28 45.8805 L1615.85 45.84 Z" fill="#000000" fill-rule="nonzero" fill-opacity="1" /><path clip-path="url(#clip980)" d="M1630.19 27.2059 L1638.09 27.2059 L1652.27 65.2844 L1666.45 27.2059 L1674.34 27.2059 L1657.33 72.576 L1647.2 72.576 L1630.19 27.2059 Z" fill="#000000" fill-rule="nonzero" fill-opacity="1" /><path clip-path="url(#clip980)" d="M1723.44 48.0275 L1723.44 51.6733 L1689.17 51.6733 Q1689.66 59.3701 1693.79 63.421 Q1697.96 67.4314 1705.37 67.4314 Q1709.67 67.4314 1713.68 66.3781 Q1717.73 65.3249 1721.7 63.2184 L1721.7 70.267 Q1717.69 71.9684 1713.48 72.8596 Q1709.26 73.7508 1704.93 73.7508 Q1694.07 73.7508 1687.71 67.4314 Q1681.39 61.1119 1681.39 50.3365 Q1681.39 39.1965 1687.39 32.6746 Q1693.42 26.1121 1703.63 26.1121 Q1712.79 26.1121 1718.09 32.0264 Q1723.44 37.9003 1723.44 48.0275 M1715.99 45.84 Q1715.91 39.7232 1712.54 36.0774 Q1709.22 32.4315 1703.71 32.4315 Q1697.47 32.4315 1693.71 35.9558 Q1689.98 39.4801 1689.41 45.8805 L1715.99 45.84 Z" fill="#000000" fill-rule="nonzero" fill-opacity="1" /><path clip-path="url(#clip980)" d="M1773.39 45.1919 L1773.39 72.576 L1765.94 72.576 L1765.94 45.4349 Q1765.94 38.994 1763.42 35.7938 Q1760.91 32.5936 1755.89 32.5936 Q1749.85 32.5936 1746.37 36.4419 Q1742.89 40.2903 1742.89 46.9338 L1742.89 72.576 L1735.39 72.576 L1735.39 27.2059 L1742.89 27.2059 L1742.89 34.2544 Q1745.56 30.163 1749.16 28.1376 Q1752.81 26.1121 1757.55 26.1121 Q1765.37 26.1121 1769.38 30.9732 Q1773.39 35.7938 1773.39 45.1919 Z" fill="#000000" fill-rule="nonzero" fill-opacity="1" /><path clip-path="url(#clip980)" d="M1795.63 14.324 L1795.63 27.2059 L1810.98 27.2059 L1810.98 32.9987 L1795.63 32.9987 L1795.63 57.6282 Q1795.63 63.1779 1797.13 64.7578 Q1798.67 66.3376 1803.33 66.3376 L1810.98 66.3376 L1810.98 72.576 L1803.33 72.576 Q1794.7 72.576 1791.42 69.3758 Q1788.13 66.1351 1788.13 57.6282 L1788.13 32.9987 L1782.67 32.9987 L1782.67 27.2059 L1788.13 27.2059 L1788.13 14.324 L1795.63 14.324 Z" fill="#000000" fill-rule="nonzero" fill-opacity="1" /><path clip-path="url(#clip980)" d="M1849.71 28.5427 L1849.71 35.5912 Q1846.55 33.9709 1843.15 33.1607 Q1839.74 32.3505 1836.1 32.3505 Q1830.55 32.3505 1827.75 34.0519 Q1825 35.7533 1825 39.156 Q1825 41.7486 1826.98 43.2475 Q1828.97 44.7058 1834.96 46.0426 L1837.51 46.6097 Q1845.45 48.3111 1848.78 51.4303 Q1852.14 54.509 1852.14 60.0587 Q1852.14 66.3781 1847.12 70.0644 Q1842.13 73.7508 1833.38 73.7508 Q1829.74 73.7508 1825.77 73.0216 Q1821.84 72.3329 1817.46 70.9151 L1817.46 63.2184 Q1821.59 65.3654 1825.61 66.4591 Q1829.62 67.5124 1833.54 67.5124 Q1838.81 67.5124 1841.65 65.73 Q1844.48 63.9071 1844.48 60.6258 Q1844.48 57.5877 1842.42 55.9673 Q1840.39 54.3469 1833.46 52.8481 L1830.87 52.2405 Q1823.94 50.7821 1820.87 47.7845 Q1817.79 44.7463 1817.79 39.4801 Q1817.79 33.0797 1822.32 29.5959 Q1826.86 26.1121 1835.21 26.1121 Q1839.34 26.1121 1842.98 26.7198 Q1846.63 27.3274 1849.71 28.5427 Z" fill="#000000" fill-rule="nonzero" fill-opacity="1" /><path clip-path="url(#clip980)" d="M1862.83 9.62495 L1869.31 9.62495 Q1875.39 19.1851 1878.39 28.3401 Q1881.43 37.4952 1881.43 46.5287 Q1881.43 55.6027 1878.39 64.7983 Q1875.39 73.9938 1869.31 83.5134 L1862.83 83.5134 Q1868.22 74.2369 1870.85 65.0818 Q1873.53 55.8863 1873.53 46.5287 Q1873.53 37.1711 1870.85 28.0566 Q1868.22 18.942 1862.83 9.62495 Z" fill="#000000" fill-rule="nonzero" fill-opacity="1" /><polyline clip-path="url(#clip981)" style="stroke:#78c2ad; stroke-linecap:round; stroke-linejoin:round; stroke-width:8; stroke-opacity:1; fill:none" points="1216.74,836.232 1363.85,716.398 1456.04,743.751 1420.14,706.761 1207.49,1035.76 1017.34,907.462 1308.25,763.159 1297.93,643.181 1253.92,948.86 1168.35,954.262 1262.5,663.217 1319.13,981.115 1376.65,936.097 1292.43,791.696 1192.49,675.564 1038.83,796.278 1134.24,1016.51 1245.89,892.5 1300.59,831.866 1257.33,676.728 1065.41,1075.13 1126.93,1130 1262.9,1113.76 1459.99,786.932 1448.67,652.184 1561.17,663.244 1471.74,641.915 1405.43,1099.07 1474.71,1095.4 1359.22,814.522 1449.47,750.851 1420.56,701.104 1466.24,757.091 1447.61,786.212 1478.46,920.416 1383.43,990.363 1337.09,982.396 1083.88,870.208 1342.74,795.076 1138.22,633.386 1083.56,883.242 1204.23,883.581 1270.19,773.377 1159.26,615.693 1069.37,807.57 1188.74,872.913 1070.7,860.677 1132.35,661.401 1238.03,895.549 1064.32,897.334 1285.99,1033.81 1166.65,1112.12 1129.29,1098.42 1046.11,883.786 1222.24,790.51 1213.95,971.155 1110.66,909.527 1222.51,598.602 1312.47,675.97 1340.43,861.03 1069.96,806.86 1163.76,757.083 1073.46,794.378 1215.78,1017.31 1222.65,670 1172.54,788.423 1070.42,848.279 1206.92,1076.86 1201.79,1058.47 1138.86,524.346 1054.21,635.867 1365.52,1004.26 1286.95,1018.54 1061.07,826.123 1133.79,719.416 1233.76,740.153 1102.32,880.22 1145.87,850.852 1090.2,700.067 1130.56,678.954 1093.11,747.569 1149.57,789.147 1044.08,823.858 1127.75,1008.39 1273.6,848.786 1186.75,752.218 1083.81,702.195 1247.62,623.98 1392.88,796.696 1317.42,776.362 1397.55,868.81 1178.07,1017.49 1033.77,811.789 1187.22,838.203 1308.33,869.929 1252.88,848.74 1231.13,901.708 1120.46,820.006 1467.25,781.011 1439.13,686.837 1485.02,717.766 1249.42,1057.33 1111.25,1017.58 1238.83,589.262 1394.13,785.885 1092.38,750.638 1427.68,946.548 1300.08,1003.19 1312.09,938.065 1095.17,745.758 1330.11,783.485 1166.41,1153.3 1088.3,1053.79 1220.95,867.6 1123.43,790.15 1583.07,938.076 1627.43,921.342 1580.79,840.192 1653.76,807.046 1632.91,709.254 1631.13,727.818 1597.09,715.259 1566.85,803.998 1489.25,721.536 1496.19,709.041 1122.84,750.81 1222.61,1005.95 1145.23,987.706 1150.41,659.275 1032.63,683.147 1181.23,826.819 1238.61,1065.71 1138.75,778.499 1115.13,786.09 1199.43,954.747 1079.94,878.194 1360.05,663.215 1295.44,614.517 1337.89,1074.19 1112.92,1043.2 1161.98,762.264 1086.69,730.186 1283.24,826.799 1049.69,1025.01 1194.49,1120.35 1285.49,930.526 1200.08,641.726 1071.65,819.267 1168.41,899.358 1262.75,894.117 1036.95,748.007 1171.2,653.892 1331.49,892.211 1183.94,950.902 1080.98,809.81 1129.4,789.627 1236.15,1021.26 1087.01,577.015 1151.91,564.101 1080.86,649.507 1132.07,675.783 1062.44,677.764 1134.52,817.465 1111.64,912.046 1050.54,735.861 1278.02,624.718 1288.68,648.133 1141.07,800.145 1055.19,897.78 1131.37,1035.29 1064.92,976.266 1112.88,642.11 1087.06,637.177 1377.75,925.31 1249.73,1049.79 1067.95,914.111 1235.51,849.806 1105.44,654.254 1191.03,685.442 1079.22,1002.27 1372.54,1017.25 1265.33,768.919 1099.25,806.087 1209.4,897.775 1504.71,729.316 1464.64,707.665 1510.62,860.847 1375.17,915.603 1377.67,1040.28 1095.12,965.788 1288.38,839.983 1276.74,660.457 1351.5,924.396 1276.56,963.028 1061.58,743.283 1386.02,802.881 1365.72,815.649 1379.56,973.653 1119.95,917.688 1097.25,884.965 1083.86,690.464 1306.81,823.225 1234.04,907.218 1086.98,1008.12 1165.72,1077.99 1283.71,793.129 1356.87,869.344 1059.7,920.788 1103.33,917.213 1187.27,906.519 1064.11,742.099 1140.59,661.73 1358.6,882.816 1364.05,878.963 1089.34,772.417 1120.66,755.43 1288.53,1231.46 1070.29,1146.03 1183.72,775.461 1097.1,657.142 1134.28,620.569 1067.91,678.806 1243.41,1131.76 1131.61,817.149 1165.5,690.702 1224.6,748.476 1210.79,952.469 1143.46,863.229 1184.08,629.332 1279.3,659.738 1073.33,883.01 1181.26,978.219 1250.55,932.659 1134.75,860.97 1171.18,828.01 1240.79,935.594 1179.96,889.517 1124.96,815.235 1228.31,733.771 1129.84,912.549 1155.21,808.929 1200.7,816.479 1295.9,1099.79 1474.31,1018.2 1082.33,743.33 1136.56,695.246 1100.47,662.781 1126.51,894.6 1056.98,867.587 1169.64,833.017 1196.71,675.402 1045.1,654.146 1168.17,689.612 1111.54,942.325 1255.93,1006.64 1133.74,814.324 1441.18,702.558 1389.24,711.114 1479,841.725 1401.54,906.397 1413.38,973.421 1090.51,936.412 1295.07,809.661 1082.59,697.721 1211.59,781.202 1075.07,696.12 1124.09,687.4 1096.77,703.967 1131.96,737.917 1074.3,735.31 1135.34,752.253 1079.69,684.864 1146.26,649.406 1084.15,518.491 1179.8,489.284 1130.09,465.489 1177.93,499.562 1156.05,609.418 1162.59,606.267 1149.65,254.213 1119.4,298.013 1154.42,323.452 1087.12,574.04 1150.54,687.024 1106.57,732.934 1132.47,748.913 1106.29,720.89 1232.03,1096.56 1103.6,939.532 1117.01,766.562 1325.2,674.405 1345.44,592.007 1370.98,671.682 1315.65,972.098 1137.3,929.955 1043.34,765.909 1491.35,789.187 1447.45,842.666 1467.8,880.102 1400.64,882.043 "/>
</svg>
