<?xml version="1.0" encoding="utf-8"?>
<svg xmlns="http://www.w3.org/2000/svg" xmlns:xlink="http://www.w3.org/1999/xlink" width="600" height="400" viewBox="0 0 2400 1600">
<defs>
  <clipPath id="clip330">
    <rect x="0" y="0" width="2400" height="1600"/>
  </clipPath>
</defs>
<path clip-path="url(#clip330)" d="M0 1600 L2400 1600 L2400 8.88178e-14 L0 8.88178e-14  Z" fill="#ffffff" fill-rule="evenodd" fill-opacity="1"/>
<defs>
  <clipPath id="clip331">
    <rect x="480" y="0" width="1681" height="1600"/>
  </clipPath>
</defs>
<path clip-path="url(#clip330)" d="M249.542 1423.18 L2352.76 1423.18 L2352.76 123.472 L249.542 123.472  Z" fill="#ffffff" fill-rule="evenodd" fill-opacity="1"/>
<defs>
  <clipPath id="clip332">
    <rect x="249" y="123" width="2104" height="1301"/>
  </clipPath>
</defs>
<polyline clip-path="url(#clip332)" style="stroke:#000000; stroke-linecap:round; stroke-linejoin:round; stroke-width:2; stroke-opacity:0.1; fill:none" points="309.067,1423.18 309.067,123.472 "/>
<polyline clip-path="url(#clip332)" style="stroke:#000000; stroke-linecap:round; stroke-linejoin:round; stroke-width:2; stroke-opacity:0.1; fill:none" points="805.108,1423.18 805.108,123.472 "/>
<polyline clip-path="url(#clip332)" style="stroke:#000000; stroke-linecap:round; stroke-linejoin:round; stroke-width:2; stroke-opacity:0.1; fill:none" points="1301.15,1423.18 1301.15,123.472 "/>
<polyline clip-path="url(#clip332)" style="stroke:#000000; stroke-linecap:round; stroke-linejoin:round; stroke-width:2; stroke-opacity:0.1; fill:none" points="1797.19,1423.18 1797.19,123.472 "/>
<polyline clip-path="url(#clip332)" style="stroke:#000000; stroke-linecap:round; stroke-linejoin:round; stroke-width:2; stroke-opacity:0.1; fill:none" points="2293.23,1423.18 2293.23,123.472 "/>
<polyline clip-path="url(#clip332)" style="stroke:#000000; stroke-linecap:round; stroke-linejoin:round; stroke-width:2; stroke-opacity:0.1; fill:none" points="249.542,1386.4 2352.76,1386.4 "/>
<polyline clip-path="url(#clip332)" style="stroke:#000000; stroke-linecap:round; stroke-linejoin:round; stroke-width:2; stroke-opacity:0.1; fill:none" points="249.542,1079.86 2352.76,1079.86 "/>
<polyline clip-path="url(#clip332)" style="stroke:#000000; stroke-linecap:round; stroke-linejoin:round; stroke-width:2; stroke-opacity:0.1; fill:none" points="249.542,773.326 2352.76,773.326 "/>
<polyline clip-path="url(#clip332)" style="stroke:#000000; stroke-linecap:round; stroke-linejoin:round; stroke-width:2; stroke-opacity:0.1; fill:none" points="249.542,466.791 2352.76,466.791 "/>
<polyline clip-path="url(#clip332)" style="stroke:#000000; stroke-linecap:round; stroke-linejoin:round; stroke-width:2; stroke-opacity:0.1; fill:none" points="249.542,160.256 2352.76,160.256 "/>
<polyline clip-path="url(#clip330)" style="stroke:#000000; stroke-linecap:round; stroke-linejoin:round; stroke-width:4; stroke-opacity:1; fill:none" points="249.542,1423.18 2352.76,1423.18 "/>
<polyline clip-path="url(#clip330)" style="stroke:#000000; stroke-linecap:round; stroke-linejoin:round; stroke-width:4; stroke-opacity:1; fill:none" points="309.067,1423.18 309.067,1404.28 "/>
<polyline clip-path="url(#clip330)" style="stroke:#000000; stroke-linecap:round; stroke-linejoin:round; stroke-width:4; stroke-opacity:1; fill:none" points="805.108,1423.18 805.108,1404.28 "/>
<polyline clip-path="url(#clip330)" style="stroke:#000000; stroke-linecap:round; stroke-linejoin:round; stroke-width:4; stroke-opacity:1; fill:none" points="1301.15,1423.18 1301.15,1404.28 "/>
<polyline clip-path="url(#clip330)" style="stroke:#000000; stroke-linecap:round; stroke-linejoin:round; stroke-width:4; stroke-opacity:1; fill:none" points="1797.19,1423.18 1797.19,1404.28 "/>
<polyline clip-path="url(#clip330)" style="stroke:#000000; stroke-linecap:round; stroke-linejoin:round; stroke-width:4; stroke-opacity:1; fill:none" points="2293.23,1423.18 2293.23,1404.28 "/>
<path clip-path="url(#clip330)" d="M263.13 1468.75 L292.805 1468.75 L292.805 1472.69 L263.13 1472.69 L263.13 1468.75 Z" fill="#000000" fill-rule="nonzero" fill-opacity="1" /><path clip-path="url(#clip330)" d="M303.708 1481.64 L311.347 1481.64 L311.347 1455.28 L303.037 1456.95 L303.037 1452.69 L311.301 1451.02 L315.977 1451.02 L315.977 1481.64 L323.615 1481.64 L323.615 1485.58 L303.708 1485.58 L303.708 1481.64 Z" fill="#000000" fill-rule="nonzero" fill-opacity="1" /><path clip-path="url(#clip330)" d="M343.06 1454.1 Q339.449 1454.1 337.62 1457.66 Q335.814 1461.2 335.814 1468.33 Q335.814 1475.44 337.62 1479.01 Q339.449 1482.55 343.06 1482.55 Q346.694 1482.55 348.5 1479.01 Q350.328 1475.44 350.328 1468.33 Q350.328 1461.2 348.5 1457.66 Q346.694 1454.1 343.06 1454.1 M343.06 1450.39 Q348.87 1450.39 351.926 1455 Q355.004 1459.58 355.004 1468.33 Q355.004 1477.06 351.926 1481.67 Q348.87 1486.25 343.06 1486.25 Q337.25 1486.25 334.171 1481.67 Q331.115 1477.06 331.115 1468.33 Q331.115 1459.58 334.171 1455 Q337.25 1450.39 343.06 1450.39 Z" fill="#000000" fill-rule="nonzero" fill-opacity="1" /><path clip-path="url(#clip330)" d="M774.749 1468.75 L804.425 1468.75 L804.425 1472.69 L774.749 1472.69 L774.749 1468.75 Z" fill="#000000" fill-rule="nonzero" fill-opacity="1" /><path clip-path="url(#clip330)" d="M814.564 1451.02 L832.92 1451.02 L832.92 1454.96 L818.846 1454.96 L818.846 1463.43 Q819.865 1463.08 820.883 1462.92 Q821.902 1462.73 822.92 1462.73 Q828.707 1462.73 832.087 1465.9 Q835.467 1469.08 835.467 1474.49 Q835.467 1480.07 831.994 1483.17 Q828.522 1486.25 822.203 1486.25 Q820.027 1486.25 817.758 1485.88 Q815.513 1485.51 813.106 1484.77 L813.106 1480.07 Q815.189 1481.2 817.411 1481.76 Q819.633 1482.32 822.11 1482.32 Q826.115 1482.32 828.453 1480.21 Q830.791 1478.1 830.791 1474.49 Q830.791 1470.88 828.453 1468.77 Q826.115 1466.67 822.11 1466.67 Q820.235 1466.67 818.36 1467.08 Q816.508 1467.5 814.564 1468.38 L814.564 1451.02 Z" fill="#000000" fill-rule="nonzero" fill-opacity="1" /><path clip-path="url(#clip330)" d="M1301.15 1454.1 Q1297.54 1454.1 1295.71 1457.66 Q1293.9 1461.2 1293.9 1468.33 Q1293.9 1475.44 1295.71 1479.01 Q1297.54 1482.55 1301.15 1482.55 Q1304.78 1482.55 1306.59 1479.01 Q1308.42 1475.44 1308.42 1468.33 Q1308.42 1461.2 1306.59 1457.66 Q1304.78 1454.1 1301.15 1454.1 M1301.15 1450.39 Q1306.96 1450.39 1310.01 1455 Q1313.09 1459.58 1313.09 1468.33 Q1313.09 1477.06 1310.01 1481.67 Q1306.96 1486.25 1301.15 1486.25 Q1295.34 1486.25 1292.26 1481.67 Q1289.2 1477.06 1289.2 1468.33 Q1289.2 1459.58 1292.26 1455 Q1295.34 1450.39 1301.15 1450.39 Z" fill="#000000" fill-rule="nonzero" fill-opacity="1" /><path clip-path="url(#clip330)" d="M1787.47 1451.02 L1805.82 1451.02 L1805.82 1454.96 L1791.75 1454.96 L1791.75 1463.43 Q1792.77 1463.08 1793.79 1462.92 Q1794.81 1462.73 1795.82 1462.73 Q1801.61 1462.73 1804.99 1465.9 Q1808.37 1469.08 1808.37 1474.49 Q1808.37 1480.07 1804.9 1483.17 Q1801.43 1486.25 1795.11 1486.25 Q1792.93 1486.25 1790.66 1485.88 Q1788.42 1485.51 1786.01 1484.77 L1786.01 1480.07 Q1788.09 1481.2 1790.32 1481.76 Q1792.54 1482.32 1795.01 1482.32 Q1799.02 1482.32 1801.36 1480.21 Q1803.69 1478.1 1803.69 1474.49 Q1803.69 1470.88 1801.36 1468.77 Q1799.02 1466.67 1795.01 1466.67 Q1793.14 1466.67 1791.26 1467.08 Q1789.41 1467.5 1787.47 1468.38 L1787.47 1451.02 Z" fill="#000000" fill-rule="nonzero" fill-opacity="1" /><path clip-path="url(#clip330)" d="M2267.92 1481.64 L2275.56 1481.64 L2275.56 1455.28 L2267.25 1456.95 L2267.25 1452.69 L2275.51 1451.02 L2280.19 1451.02 L2280.19 1481.64 L2287.83 1481.64 L2287.83 1485.58 L2267.92 1485.58 L2267.92 1481.64 Z" fill="#000000" fill-rule="nonzero" fill-opacity="1" /><path clip-path="url(#clip330)" d="M2307.27 1454.1 Q2303.66 1454.1 2301.83 1457.66 Q2300.02 1461.2 2300.02 1468.33 Q2300.02 1475.44 2301.83 1479.01 Q2303.66 1482.55 2307.27 1482.55 Q2310.9 1482.55 2312.71 1479.01 Q2314.54 1475.44 2314.54 1468.33 Q2314.54 1461.2 2312.71 1457.66 Q2310.9 1454.1 2307.27 1454.1 M2307.27 1450.39 Q2313.08 1450.39 2316.14 1455 Q2319.21 1459.58 2319.21 1468.33 Q2319.21 1477.06 2316.14 1481.67 Q2313.08 1486.25 2307.27 1486.25 Q2301.46 1486.25 2298.38 1481.67 Q2295.33 1477.06 2295.33 1468.33 Q2295.33 1459.58 2298.38 1455 Q2301.46 1450.39 2307.27 1450.39 Z" fill="#000000" fill-rule="nonzero" fill-opacity="1" /><path clip-path="url(#clip330)" d="M1315.32 1528.8 Q1315.32 1530.61 1314.2 1531.64 Q1313.07 1532.64 1311.78 1532.64 Q1310.56 1532.64 1309.91 1531.93 Q1309.27 1531.22 1309.27 1530.32 Q1309.27 1529.09 1310.17 1528.03 Q1311.07 1526.97 1312.42 1526.74 Q1311.1 1525.91 1309.14 1525.91 Q1307.85 1525.91 1306.72 1526.58 Q1305.63 1527.26 1304.95 1528.13 Q1304.31 1529 1303.73 1530.25 Q1303.18 1531.48 1302.96 1532.22 Q1302.76 1532.93 1302.6 1533.7 L1300.35 1542.72 Q1299.25 1547 1299.25 1548.51 Q1299.25 1550.38 1300.15 1551.64 Q1301.06 1552.86 1302.86 1552.86 Q1303.57 1552.86 1304.37 1552.67 Q1305.18 1552.44 1306.21 1551.86 Q1307.27 1551.25 1308.2 1550.35 Q1309.17 1549.42 1310.11 1547.84 Q1311.04 1546.26 1311.65 1544.23 Q1311.84 1543.52 1312.49 1543.52 Q1313.29 1543.52 1313.29 1544.17 Q1313.29 1544.71 1312.84 1545.87 Q1312.42 1547 1311.49 1548.48 Q1310.59 1549.93 1309.4 1551.25 Q1308.2 1552.54 1306.43 1553.44 Q1304.66 1554.34 1302.73 1554.34 Q1299.96 1554.34 1298.12 1552.86 Q1296.29 1551.38 1295.61 1549.32 Q1295.45 1549.61 1295.23 1550 Q1295 1550.38 1294.32 1551.25 Q1293.68 1552.09 1292.94 1552.73 Q1292.2 1553.34 1291.04 1553.83 Q1289.91 1554.34 1288.69 1554.34 Q1287.14 1554.34 1285.76 1553.89 Q1284.4 1553.44 1283.44 1552.41 Q1282.47 1551.38 1282.47 1549.96 Q1282.47 1548.38 1283.54 1547.29 Q1284.63 1546.16 1286.11 1546.16 Q1287.05 1546.16 1287.79 1546.71 Q1288.56 1547.26 1288.56 1548.45 Q1288.56 1549.77 1287.66 1550.77 Q1286.76 1551.77 1285.47 1552.02 Q1286.79 1552.86 1288.75 1552.86 Q1290.88 1552.86 1292.55 1550.99 Q1294.23 1549.13 1295.03 1546 Q1297.03 1538.5 1297.8 1535.15 Q1298.58 1531.77 1298.58 1530.32 Q1298.58 1528.96 1298.22 1528.03 Q1297.87 1527.1 1297.25 1526.68 Q1296.68 1526.23 1296.13 1526.07 Q1295.61 1525.91 1295.03 1525.91 Q1294.07 1525.91 1292.97 1526.29 Q1291.91 1526.68 1290.62 1527.58 Q1289.36 1528.45 1288.17 1530.25 Q1286.98 1532.06 1286.18 1534.54 Q1286.02 1535.28 1285.31 1535.28 Q1284.53 1535.24 1284.53 1534.6 Q1284.53 1534.05 1284.95 1532.93 Q1285.4 1531.77 1286.3 1530.32 Q1287.24 1528.87 1288.43 1527.58 Q1289.65 1526.26 1291.43 1525.36 Q1293.23 1524.46 1295.16 1524.46 Q1296.03 1524.46 1296.87 1524.65 Q1297.74 1524.81 1298.77 1525.29 Q1299.83 1525.78 1300.77 1526.84 Q1301.7 1527.9 1302.28 1529.45 Q1302.67 1528.71 1303.18 1528 Q1303.73 1527.29 1304.57 1526.42 Q1305.44 1525.52 1306.63 1525 Q1307.85 1524.46 1309.2 1524.46 Q1310.52 1524.46 1311.81 1524.81 Q1313.1 1525.13 1314.2 1526.19 Q1315.32 1527.23 1315.32 1528.8 Z" fill="#000000" fill-rule="nonzero" fill-opacity="1" /><polyline clip-path="url(#clip330)" style="stroke:#000000; stroke-linecap:round; stroke-linejoin:round; stroke-width:4; stroke-opacity:1; fill:none" points="249.542,1423.18 249.542,123.472 "/>
<polyline clip-path="url(#clip330)" style="stroke:#000000; stroke-linecap:round; stroke-linejoin:round; stroke-width:4; stroke-opacity:1; fill:none" points="249.542,1386.4 268.44,1386.4 "/>
<polyline clip-path="url(#clip330)" style="stroke:#000000; stroke-linecap:round; stroke-linejoin:round; stroke-width:4; stroke-opacity:1; fill:none" points="249.542,1079.86 268.44,1079.86 "/>
<polyline clip-path="url(#clip330)" style="stroke:#000000; stroke-linecap:round; stroke-linejoin:round; stroke-width:4; stroke-opacity:1; fill:none" points="249.542,773.326 268.44,773.326 "/>
<polyline clip-path="url(#clip330)" style="stroke:#000000; stroke-linecap:round; stroke-linejoin:round; stroke-width:4; stroke-opacity:1; fill:none" points="249.542,466.791 268.44,466.791 "/>
<polyline clip-path="url(#clip330)" style="stroke:#000000; stroke-linecap:round; stroke-linejoin:round; stroke-width:4; stroke-opacity:1; fill:none" points="249.542,160.256 268.44,160.256 "/>
<path clip-path="url(#clip330)" d="M126.205 1372.19 Q122.593 1372.19 120.765 1375.76 Q118.959 1379.3 118.959 1386.43 Q118.959 1393.54 120.765 1397.1 Q122.593 1400.64 126.205 1400.64 Q129.839 1400.64 131.644 1397.1 Q133.473 1393.54 133.473 1386.43 Q133.473 1379.3 131.644 1375.76 Q129.839 1372.19 126.205 1372.19 M126.205 1368.49 Q132.015 1368.49 135.07 1373.1 Q138.149 1377.68 138.149 1386.43 Q138.149 1395.16 135.07 1399.76 Q132.015 1404.35 126.205 1404.35 Q120.394 1404.35 117.316 1399.76 Q114.26 1395.16 114.26 1386.43 Q114.26 1377.68 117.316 1373.1 Q120.394 1368.49 126.205 1368.49 Z" fill="#000000" fill-rule="nonzero" fill-opacity="1" /><path clip-path="url(#clip330)" d="M146.366 1397.8 L151.251 1397.8 L151.251 1403.68 L146.366 1403.68 L146.366 1397.8 Z" fill="#000000" fill-rule="nonzero" fill-opacity="1" /><path clip-path="url(#clip330)" d="M171.436 1372.19 Q167.825 1372.19 165.996 1375.76 Q164.19 1379.3 164.19 1386.43 Q164.19 1393.54 165.996 1397.1 Q167.825 1400.64 171.436 1400.64 Q175.07 1400.64 176.876 1397.1 Q178.704 1393.54 178.704 1386.43 Q178.704 1379.3 176.876 1375.76 Q175.07 1372.19 171.436 1372.19 M171.436 1368.49 Q177.246 1368.49 180.301 1373.1 Q183.38 1377.68 183.38 1386.43 Q183.38 1395.16 180.301 1399.76 Q177.246 1404.35 171.436 1404.35 Q165.626 1404.35 162.547 1399.76 Q159.491 1395.16 159.491 1386.43 Q159.491 1377.68 162.547 1373.1 Q165.626 1368.49 171.436 1368.49 Z" fill="#000000" fill-rule="nonzero" fill-opacity="1" /><path clip-path="url(#clip330)" d="M201.598 1372.19 Q197.987 1372.19 196.158 1375.76 Q194.352 1379.3 194.352 1386.43 Q194.352 1393.54 196.158 1397.1 Q197.987 1400.64 201.598 1400.64 Q205.232 1400.64 207.037 1397.1 Q208.866 1393.54 208.866 1386.43 Q208.866 1379.3 207.037 1375.76 Q205.232 1372.19 201.598 1372.19 M201.598 1368.49 Q207.408 1368.49 210.463 1373.1 Q213.542 1377.68 213.542 1386.43 Q213.542 1395.16 210.463 1399.76 Q207.408 1404.35 201.598 1404.35 Q195.787 1404.35 192.709 1399.76 Q189.653 1395.16 189.653 1386.43 Q189.653 1377.68 192.709 1373.1 Q195.787 1368.49 201.598 1368.49 Z" fill="#000000" fill-rule="nonzero" fill-opacity="1" /><path clip-path="url(#clip330)" d="M127.2 1065.66 Q123.589 1065.66 121.76 1069.22 Q119.955 1072.77 119.955 1079.9 Q119.955 1087 121.76 1090.57 Q123.589 1094.11 127.2 1094.11 Q130.834 1094.11 132.64 1090.57 Q134.468 1087 134.468 1079.9 Q134.468 1072.77 132.64 1069.22 Q130.834 1065.66 127.2 1065.66 M127.2 1061.96 Q133.01 1061.96 136.066 1066.56 Q139.144 1071.15 139.144 1079.9 Q139.144 1088.62 136.066 1093.23 Q133.01 1097.81 127.2 1097.81 Q121.39 1097.81 118.311 1093.23 Q115.256 1088.62 115.256 1079.9 Q115.256 1071.15 118.311 1066.56 Q121.39 1061.96 127.2 1061.96 Z" fill="#000000" fill-rule="nonzero" fill-opacity="1" /><path clip-path="url(#clip330)" d="M147.362 1091.26 L152.246 1091.26 L152.246 1097.14 L147.362 1097.14 L147.362 1091.26 Z" fill="#000000" fill-rule="nonzero" fill-opacity="1" /><path clip-path="url(#clip330)" d="M166.459 1093.21 L182.778 1093.21 L182.778 1097.14 L160.834 1097.14 L160.834 1093.21 Q163.496 1090.45 168.079 1085.82 Q172.686 1081.17 173.866 1079.83 Q176.112 1077.3 176.991 1075.57 Q177.894 1073.81 177.894 1072.12 Q177.894 1069.36 175.95 1067.63 Q174.028 1065.89 170.927 1065.89 Q168.727 1065.89 166.274 1066.65 Q163.843 1067.42 161.065 1068.97 L161.065 1064.25 Q163.89 1063.11 166.343 1062.53 Q168.797 1061.96 170.834 1061.96 Q176.204 1061.96 179.399 1064.64 Q182.593 1067.33 182.593 1071.82 Q182.593 1073.95 181.783 1075.87 Q180.996 1077.77 178.889 1080.36 Q178.311 1081.03 175.209 1084.25 Q172.107 1087.44 166.459 1093.21 Z" fill="#000000" fill-rule="nonzero" fill-opacity="1" /><path clip-path="url(#clip330)" d="M192.639 1062.58 L210.996 1062.58 L210.996 1066.52 L196.922 1066.52 L196.922 1074.99 Q197.94 1074.64 198.959 1074.48 Q199.977 1074.29 200.996 1074.29 Q206.783 1074.29 210.162 1077.47 Q213.542 1080.64 213.542 1086.05 Q213.542 1091.63 210.07 1094.73 Q206.598 1097.81 200.278 1097.81 Q198.102 1097.81 195.834 1097.44 Q193.588 1097.07 191.181 1096.33 L191.181 1091.63 Q193.264 1092.77 195.487 1093.32 Q197.709 1093.88 200.186 1093.88 Q204.19 1093.88 206.528 1091.77 Q208.866 1089.66 208.866 1086.05 Q208.866 1082.44 206.528 1080.34 Q204.19 1078.23 200.186 1078.23 Q198.311 1078.23 196.436 1078.65 Q194.584 1079.06 192.639 1079.94 L192.639 1062.58 Z" fill="#000000" fill-rule="nonzero" fill-opacity="1" /><path clip-path="url(#clip330)" d="M126.205 759.125 Q122.593 759.125 120.765 762.689 Q118.959 766.231 118.959 773.361 Q118.959 780.467 120.765 784.032 Q122.593 787.574 126.205 787.574 Q129.839 787.574 131.644 784.032 Q133.473 780.467 133.473 773.361 Q133.473 766.231 131.644 762.689 Q129.839 759.125 126.205 759.125 M126.205 755.421 Q132.015 755.421 135.07 760.027 Q138.149 764.611 138.149 773.361 Q138.149 782.088 135.07 786.694 Q132.015 791.277 126.205 791.277 Q120.394 791.277 117.316 786.694 Q114.26 782.088 114.26 773.361 Q114.26 764.611 117.316 760.027 Q120.394 755.421 126.205 755.421 Z" fill="#000000" fill-rule="nonzero" fill-opacity="1" /><path clip-path="url(#clip330)" d="M146.366 784.726 L151.251 784.726 L151.251 790.606 L146.366 790.606 L146.366 784.726 Z" fill="#000000" fill-rule="nonzero" fill-opacity="1" /><path clip-path="url(#clip330)" d="M161.482 756.046 L179.839 756.046 L179.839 759.981 L165.765 759.981 L165.765 768.453 Q166.783 768.106 167.802 767.944 Q168.82 767.759 169.839 767.759 Q175.626 767.759 179.005 770.93 Q182.385 774.101 182.385 779.518 Q182.385 785.097 178.913 788.199 Q175.44 791.277 169.121 791.277 Q166.945 791.277 164.677 790.907 Q162.431 790.537 160.024 789.796 L160.024 785.097 Q162.107 786.231 164.329 786.787 Q166.552 787.342 169.028 787.342 Q173.033 787.342 175.371 785.236 Q177.709 783.129 177.709 779.518 Q177.709 775.907 175.371 773.801 Q173.033 771.694 169.028 771.694 Q167.153 771.694 165.278 772.111 Q163.427 772.527 161.482 773.407 L161.482 756.046 Z" fill="#000000" fill-rule="nonzero" fill-opacity="1" /><path clip-path="url(#clip330)" d="M201.598 759.125 Q197.987 759.125 196.158 762.689 Q194.352 766.231 194.352 773.361 Q194.352 780.467 196.158 784.032 Q197.987 787.574 201.598 787.574 Q205.232 787.574 207.037 784.032 Q208.866 780.467 208.866 773.361 Q208.866 766.231 207.037 762.689 Q205.232 759.125 201.598 759.125 M201.598 755.421 Q207.408 755.421 210.463 760.027 Q213.542 764.611 213.542 773.361 Q213.542 782.088 210.463 786.694 Q207.408 791.277 201.598 791.277 Q195.787 791.277 192.709 786.694 Q189.653 782.088 189.653 773.361 Q189.653 764.611 192.709 760.027 Q195.787 755.421 201.598 755.421 Z" fill="#000000" fill-rule="nonzero" fill-opacity="1" /><path clip-path="url(#clip330)" d="M127.2 452.59 Q123.589 452.59 121.76 456.155 Q119.955 459.696 119.955 466.826 Q119.955 473.932 121.76 477.497 Q123.589 481.039 127.2 481.039 Q130.834 481.039 132.64 477.497 Q134.468 473.932 134.468 466.826 Q134.468 459.696 132.64 456.155 Q130.834 452.59 127.2 452.59 M127.2 448.886 Q133.01 448.886 136.066 453.493 Q139.144 458.076 139.144 466.826 Q139.144 475.553 136.066 480.159 Q133.01 484.742 127.2 484.742 Q121.39 484.742 118.311 480.159 Q115.256 475.553 115.256 466.826 Q115.256 458.076 118.311 453.493 Q121.39 448.886 127.2 448.886 Z" fill="#000000" fill-rule="nonzero" fill-opacity="1" /><path clip-path="url(#clip330)" d="M147.362 478.192 L152.246 478.192 L152.246 484.071 L147.362 484.071 L147.362 478.192 Z" fill="#000000" fill-rule="nonzero" fill-opacity="1" /><path clip-path="url(#clip330)" d="M161.251 449.511 L183.473 449.511 L183.473 451.502 L170.927 484.071 L166.042 484.071 L177.848 453.446 L161.251 453.446 L161.251 449.511 Z" fill="#000000" fill-rule="nonzero" fill-opacity="1" /><path clip-path="url(#clip330)" d="M192.639 449.511 L210.996 449.511 L210.996 453.446 L196.922 453.446 L196.922 461.918 Q197.94 461.571 198.959 461.409 Q199.977 461.224 200.996 461.224 Q206.783 461.224 210.162 464.395 Q213.542 467.567 213.542 472.983 Q213.542 478.562 210.07 481.664 Q206.598 484.742 200.278 484.742 Q198.102 484.742 195.834 484.372 Q193.588 484.002 191.181 483.261 L191.181 478.562 Q193.264 479.696 195.487 480.252 Q197.709 480.807 200.186 480.807 Q204.19 480.807 206.528 478.701 Q208.866 476.594 208.866 472.983 Q208.866 469.372 206.528 467.266 Q204.19 465.159 200.186 465.159 Q198.311 465.159 196.436 465.576 Q194.584 465.993 192.639 466.872 L192.639 449.511 Z" fill="#000000" fill-rule="nonzero" fill-opacity="1" /><path clip-path="url(#clip330)" d="M117.015 173.601 L124.654 173.601 L124.654 147.236 L116.343 148.902 L116.343 144.643 L124.607 142.976 L129.283 142.976 L129.283 173.601 L136.922 173.601 L136.922 177.536 L117.015 177.536 L117.015 173.601 Z" fill="#000000" fill-rule="nonzero" fill-opacity="1" /><path clip-path="url(#clip330)" d="M146.366 171.657 L151.251 171.657 L151.251 177.536 L146.366 177.536 L146.366 171.657 Z" fill="#000000" fill-rule="nonzero" fill-opacity="1" /><path clip-path="url(#clip330)" d="M171.436 146.055 Q167.825 146.055 165.996 149.62 Q164.19 153.161 164.19 160.291 Q164.19 167.397 165.996 170.962 Q167.825 174.504 171.436 174.504 Q175.07 174.504 176.876 170.962 Q178.704 167.397 178.704 160.291 Q178.704 153.161 176.876 149.62 Q175.07 146.055 171.436 146.055 M171.436 142.351 Q177.246 142.351 180.301 146.958 Q183.38 151.541 183.38 160.291 Q183.38 169.018 180.301 173.624 Q177.246 178.208 171.436 178.208 Q165.626 178.208 162.547 173.624 Q159.491 169.018 159.491 160.291 Q159.491 151.541 162.547 146.958 Q165.626 142.351 171.436 142.351 Z" fill="#000000" fill-rule="nonzero" fill-opacity="1" /><path clip-path="url(#clip330)" d="M201.598 146.055 Q197.987 146.055 196.158 149.62 Q194.352 153.161 194.352 160.291 Q194.352 167.397 196.158 170.962 Q197.987 174.504 201.598 174.504 Q205.232 174.504 207.037 170.962 Q208.866 167.397 208.866 160.291 Q208.866 153.161 207.037 149.62 Q205.232 146.055 201.598 146.055 M201.598 142.351 Q207.408 142.351 210.463 146.958 Q213.542 151.541 213.542 160.291 Q213.542 169.018 210.463 173.624 Q207.408 178.208 201.598 178.208 Q195.787 178.208 192.709 173.624 Q189.653 169.018 189.653 160.291 Q189.653 151.541 192.709 146.958 Q195.787 142.351 201.598 142.351 Z" fill="#000000" fill-rule="nonzero" fill-opacity="1" /><path clip-path="url(#clip330)" d="M47.4691 802.201 Q52.1712 802.201 56.7122 804.585 Q61.2532 806.936 64.0551 810.639 Q66.8248 814.343 66.8248 818.111 Q66.8248 820.366 65.601 821.879 Q64.345 823.361 62.5737 824.166 Q64.7637 824.778 70.0132 826.098 Q75.2628 827.419 75.7781 827.419 Q76.0679 827.419 76.1967 827.354 Q76.3256 827.29 76.4866 827 Q76.6798 826.71 76.7442 826.002 Q76.8409 825.293 76.8409 824.101 Q76.8409 823.489 76.8409 823.264 Q76.8731 823.006 77.0341 822.781 Q77.1951 822.523 77.5494 822.523 Q78.8698 822.523 78.8698 823.715 Q78.8698 824.778 78.7732 826.968 Q78.6766 829.158 78.6766 830.253 Q78.6766 831.187 78.7732 833.055 Q78.8698 834.923 78.8698 835.792 Q78.8698 836.662 78.0969 836.662 Q77.646 836.662 77.3561 836.533 Q77.0985 836.436 76.9697 836.179 Q76.8731 835.921 76.8409 835.696 Q76.8409 835.502 76.8409 835.116 Q76.8409 833.634 76.5832 832.99 Q76.3578 832.346 75.8747 832.121 Q75.4238 831.863 74.1356 831.573 L44.7638 824.166 Q42.7993 823.715 41.4144 823.715 Q39.6753 823.715 39.0312 824.262 Q38.3871 824.81 38.3871 825.776 Q38.3871 827.451 40.3838 828.546 Q42.3806 829.641 46.2453 830.575 Q47.3081 830.865 47.5335 831.058 Q47.759 831.219 47.759 831.702 Q47.7268 832.507 47.0826 832.507 Q46.9216 832.507 45.891 832.249 Q44.8282 831.992 43.2823 831.509 Q41.7043 830.993 40.7059 830.446 Q40.0296 830.124 39.5787 829.834 Q39.1278 829.544 38.4193 828.964 Q37.7107 828.353 37.3243 827.483 Q36.9378 826.613 36.9378 825.551 Q36.9378 823.489 38.1616 821.783 Q39.3854 820.076 41.8653 819.625 Q39.7075 817.789 38.3226 815.535 Q36.9378 813.28 36.9378 810.994 Q36.9378 807.193 39.9007 804.713 Q42.8315 802.201 47.4691 802.201 M44.5706 806.968 Q41.6398 806.968 40.0296 808.095 Q38.3871 809.19 38.3871 811.187 Q38.3871 813.667 40.8991 816.533 Q43.2823 819.367 45.5045 819.947 L58.4191 823.2 L59.4819 823.393 Q59.6751 823.393 60.2548 823.296 Q60.8023 823.167 61.7041 822.813 Q62.6059 822.427 63.411 821.911 Q64.1839 821.364 64.7637 820.398 Q65.3434 819.399 65.3434 818.176 Q65.3434 816.211 63.6042 814.085 Q61.8651 811.928 58.5801 810.317 Q56.4545 809.319 51.8813 808.159 Q47.2759 806.968 44.5706 806.968 Z" fill="#000000" fill-rule="nonzero" fill-opacity="1" /><path clip-path="url(#clip330)" d="M49.5947 794.83 Q38.4515 794.83 29.466 790.676 Q25.6979 788.904 22.5418 786.425 Q19.3856 783.945 18.0007 782.302 Q16.6159 780.66 16.6159 780.209 Q16.6159 779.565 17.26 779.532 Q17.5821 779.532 18.3872 780.402 Q29.2084 791.03 49.5947 790.998 Q70.0454 790.998 80.4479 780.66 Q81.5751 779.532 81.9294 779.532 Q82.5735 779.532 82.5735 780.209 Q82.5735 780.66 81.2531 782.238 Q79.9326 783.816 76.9053 786.263 Q73.8779 788.711 70.1742 790.482 Q61.1888 794.83 49.5947 794.83 Z" fill="#000000" fill-rule="nonzero" fill-opacity="1" /><path clip-path="url(#clip330)" d="M41.2856 741.669 Q43.0891 741.669 44.1197 742.796 Q45.1181 743.923 45.1181 745.211 Q45.1181 746.435 44.4096 747.079 Q43.701 747.724 42.7993 747.724 Q41.5754 747.724 40.5126 746.822 Q39.4498 745.92 39.2244 744.567 Q38.3871 745.888 38.3871 747.852 Q38.3871 749.141 39.0634 750.268 Q39.7397 751.363 40.6093 752.039 Q41.4788 752.683 42.7348 753.263 Q43.9587 753.81 44.6994 754.036 Q45.4079 754.229 46.1809 754.39 L55.1985 756.645 Q59.4819 757.74 60.9956 757.74 Q62.8635 757.74 64.1195 756.838 Q65.3434 755.936 65.3434 754.133 Q65.3434 753.424 65.1501 752.619 Q64.9247 751.814 64.345 750.783 Q63.7331 749.72 62.8313 748.786 Q61.8973 747.82 60.3192 746.886 Q58.7412 745.952 56.7122 745.34 Q56.0037 745.147 56.0037 744.503 Q56.0037 743.698 56.6478 743.698 Q57.1953 743.698 58.3547 744.149 Q59.4819 744.567 60.9634 745.501 Q62.4126 746.403 63.7331 747.595 Q65.0213 748.786 65.9231 750.558 Q66.8248 752.329 66.8248 754.261 Q66.8248 757.031 65.3434 758.867 Q63.8619 760.703 61.8007 761.379 Q62.0906 761.54 62.477 761.765 Q62.8635 761.991 63.7331 762.667 Q64.5704 763.311 65.2145 764.052 Q65.8264 764.793 66.3095 765.952 Q66.8248 767.079 66.8248 768.303 Q66.8248 769.849 66.3739 771.234 Q65.9231 772.586 64.8925 773.553 Q63.8619 774.519 62.4448 774.519 Q60.8667 774.519 59.7717 773.456 Q58.6445 772.361 58.6445 770.88 Q58.6445 769.946 59.192 769.205 Q59.7395 768.432 60.9312 768.432 Q62.2516 768.432 63.25 769.334 Q64.2484 770.235 64.506 771.524 Q65.3434 770.203 65.3434 768.239 Q65.3434 766.113 63.4754 764.438 Q61.6075 762.764 58.4835 761.959 Q50.9795 759.962 47.6301 759.189 Q44.2485 758.416 42.7993 758.416 Q41.4466 758.416 40.5126 758.77 Q39.5787 759.124 39.16 759.736 Q38.7091 760.316 38.5481 760.864 Q38.3871 761.379 38.3871 761.959 Q38.3871 762.925 38.7735 764.02 Q39.16 765.083 40.0618 766.371 Q40.9313 767.627 42.7348 768.818 Q44.5384 770.01 47.0182 770.815 Q47.759 770.976 47.759 771.685 Q47.7268 772.458 47.0826 772.458 Q46.5351 772.458 45.4079 772.039 Q44.2485 771.588 42.7993 770.686 Q41.35 769.752 40.0618 768.561 Q38.7413 767.337 37.8396 765.566 Q36.9378 763.762 36.9378 761.83 Q36.9378 760.96 37.131 760.123 Q37.2921 759.253 37.7751 758.223 Q38.2582 757.16 39.321 756.226 Q40.3838 755.292 41.9297 754.712 Q41.189 754.326 40.4804 753.81 Q39.7719 753.263 38.9023 752.426 Q38.0006 751.556 37.4853 750.364 Q36.9378 749.141 36.9378 747.788 Q36.9378 746.468 37.2921 745.179 Q37.6141 743.891 38.6769 742.796 Q39.7075 741.669 41.2856 741.669 Z" fill="#000000" fill-rule="nonzero" fill-opacity="1" /><path clip-path="url(#clip330)" d="M81.9294 735.318 Q81.6073 735.318 80.8022 734.48 Q69.981 723.852 49.5947 723.852 Q29.144 723.852 18.8059 734.062 Q17.6143 735.318 17.26 735.318 Q16.6159 735.318 16.6159 734.674 Q16.6159 734.223 17.9363 732.645 Q19.2568 731.034 22.2841 728.619 Q25.3115 726.171 29.0151 724.368 Q38.0006 720.02 49.5947 720.02 Q60.7379 720.02 69.7234 724.174 Q73.4914 725.946 76.6476 728.426 Q79.8038 730.905 81.1886 732.548 Q82.5735 734.19 82.5735 734.674 Q82.5735 735.318 81.9294 735.318 Z" fill="#000000" fill-rule="nonzero" fill-opacity="1" /><path clip-path="url(#clip330)" d="M932.274 63.9476 L932.274 47.7034 L918.906 47.7034 L918.906 40.9789 L940.375 40.9789 L940.375 66.9452 Q935.636 70.3075 929.924 72.0494 Q924.212 73.7508 917.731 73.7508 Q903.553 73.7508 895.532 65.4869 Q887.552 57.1826 887.552 42.3968 Q887.552 27.5705 895.532 19.3066 Q903.553 11.0023 917.731 11.0023 Q923.645 11.0023 928.952 12.4606 Q934.299 13.9189 938.796 16.7545 L938.796 25.464 Q934.259 21.6156 929.154 19.6712 Q924.05 17.7268 918.42 17.7268 Q907.32 17.7268 901.73 23.9246 Q896.18 30.1225 896.18 42.3968 Q896.18 54.6305 901.73 60.8284 Q907.32 67.0263 918.42 67.0263 Q922.754 67.0263 926.157 66.2971 Q929.56 65.5274 932.274 63.9476 Z" fill="#000000" fill-rule="nonzero" fill-opacity="1" /><path clip-path="url(#clip330)" d="M975.618 49.7694 Q966.585 49.7694 963.101 51.8354 Q959.617 53.9013 959.617 58.8839 Q959.617 62.8538 962.21 65.2034 Q964.843 67.5124 969.339 67.5124 Q975.537 67.5124 979.264 63.1374 Q983.031 58.7219 983.031 51.4303 L983.031 49.7694 L975.618 49.7694 M990.485 46.6907 L990.485 72.576 L983.031 72.576 L983.031 65.6895 Q980.479 69.8214 976.672 71.8063 Q972.864 73.7508 967.354 73.7508 Q960.387 73.7508 956.255 69.8619 Q952.164 65.9325 952.164 59.3701 Q952.164 51.7138 957.268 47.825 Q962.412 43.9361 972.58 43.9361 L983.031 43.9361 L983.031 43.2069 Q983.031 38.0623 979.629 35.2672 Q976.266 32.4315 970.15 32.4315 Q966.261 32.4315 962.574 33.3632 Q958.888 34.295 955.485 36.1584 L955.485 29.2718 Q959.577 27.692 963.425 26.9223 Q967.273 26.1121 970.919 26.1121 Q980.763 26.1121 985.624 31.2163 Q990.485 36.3204 990.485 46.6907 Z" fill="#000000" fill-rule="nonzero" fill-opacity="1" /><path clip-path="url(#clip330)" d="M1005.07 54.671 L1005.07 27.2059 L1012.52 27.2059 L1012.52 54.3874 Q1012.52 60.8284 1015.03 64.0691 Q1017.55 67.2693 1022.57 67.2693 Q1028.6 67.2693 1032.09 63.421 Q1035.61 59.5726 1035.61 52.9291 L1035.61 27.2059 L1043.07 27.2059 L1043.07 72.576 L1035.61 72.576 L1035.61 65.6084 Q1032.9 69.7404 1029.29 71.7658 Q1025.73 73.7508 1020.99 73.7508 Q1013.17 73.7508 1009.12 68.8897 Q1005.07 64.0286 1005.07 54.671 M1023.82 26.1121 L1023.82 26.1121 Z" fill="#000000" fill-rule="nonzero" fill-opacity="1" /><path clip-path="url(#clip330)" d="M1087.34 28.5427 L1087.34 35.5912 Q1084.18 33.9709 1080.78 33.1607 Q1077.38 32.3505 1073.73 32.3505 Q1068.18 32.3505 1065.39 34.0519 Q1062.63 35.7533 1062.63 39.156 Q1062.63 41.7486 1064.62 43.2475 Q1066.6 44.7058 1072.6 46.0426 L1075.15 46.6097 Q1083.09 48.3111 1086.41 51.4303 Q1089.77 54.509 1089.77 60.0587 Q1089.77 66.3781 1084.75 70.0644 Q1079.77 73.7508 1071.02 73.7508 Q1067.37 73.7508 1063.4 73.0216 Q1059.47 72.3329 1055.1 70.9151 L1055.1 63.2184 Q1059.23 65.3654 1063.24 66.4591 Q1067.25 67.5124 1071.18 67.5124 Q1076.45 67.5124 1079.28 65.73 Q1082.12 63.9071 1082.12 60.6258 Q1082.12 57.5877 1080.05 55.9673 Q1078.03 54.3469 1071.1 52.8481 L1068.51 52.2405 Q1061.58 50.7821 1058.5 47.7845 Q1055.42 44.7463 1055.42 39.4801 Q1055.42 33.0797 1059.96 29.5959 Q1064.5 26.1121 1072.84 26.1121 Q1076.97 26.1121 1080.62 26.7198 Q1084.26 27.3274 1087.34 28.5427 Z" fill="#000000" fill-rule="nonzero" fill-opacity="1" /><path clip-path="url(#clip330)" d="M1130.57 28.5427 L1130.57 35.5912 Q1127.41 33.9709 1124 33.1607 Q1120.6 32.3505 1116.95 32.3505 Q1111.4 32.3505 1108.61 34.0519 Q1105.85 35.7533 1105.85 39.156 Q1105.85 41.7486 1107.84 43.2475 Q1109.82 44.7058 1115.82 46.0426 L1118.37 46.6097 Q1126.31 48.3111 1129.63 51.4303 Q1133 54.509 1133 60.0587 Q1133 66.3781 1127.97 70.0644 Q1122.99 73.7508 1114.24 73.7508 Q1110.59 73.7508 1106.62 73.0216 Q1102.7 72.3329 1098.32 70.9151 L1098.32 63.2184 Q1102.45 65.3654 1106.46 66.4591 Q1110.47 67.5124 1114.4 67.5124 Q1119.67 67.5124 1122.5 65.73 Q1125.34 63.9071 1125.34 60.6258 Q1125.34 57.5877 1123.27 55.9673 Q1121.25 54.3469 1114.32 52.8481 L1111.73 52.2405 Q1104.8 50.7821 1101.72 47.7845 Q1098.64 44.7463 1098.64 39.4801 Q1098.64 33.0797 1103.18 29.5959 Q1107.72 26.1121 1116.06 26.1121 Q1120.2 26.1121 1123.84 26.7198 Q1127.49 27.3274 1130.57 28.5427 Z" fill="#000000" fill-rule="nonzero" fill-opacity="1" /><path clip-path="url(#clip330)" d="M1144.87 27.2059 L1152.32 27.2059 L1152.32 72.576 L1144.87 72.576 L1144.87 27.2059 M1144.87 9.54393 L1152.32 9.54393 L1152.32 18.9825 L1144.87 18.9825 L1144.87 9.54393 Z" fill="#000000" fill-rule="nonzero" fill-opacity="1" /><path clip-path="url(#clip330)" d="M1188.53 49.7694 Q1179.5 49.7694 1176.02 51.8354 Q1172.53 53.9013 1172.53 58.8839 Q1172.53 62.8538 1175.13 65.2034 Q1177.76 67.5124 1182.25 67.5124 Q1188.45 67.5124 1192.18 63.1374 Q1195.95 58.7219 1195.95 51.4303 L1195.95 49.7694 L1188.53 49.7694 M1203.4 46.6907 L1203.4 72.576 L1195.95 72.576 L1195.95 65.6895 Q1193.39 69.8214 1189.59 71.8063 Q1185.78 73.7508 1180.27 73.7508 Q1173.3 73.7508 1169.17 69.8619 Q1165.08 65.9325 1165.08 59.3701 Q1165.08 51.7138 1170.18 47.825 Q1175.33 43.9361 1185.5 43.9361 L1195.95 43.9361 L1195.95 43.2069 Q1195.95 38.0623 1192.54 35.2672 Q1189.18 32.4315 1183.07 32.4315 Q1179.18 32.4315 1175.49 33.3632 Q1171.8 34.295 1168.4 36.1584 L1168.4 29.2718 Q1172.49 27.692 1176.34 26.9223 Q1180.19 26.1121 1183.83 26.1121 Q1193.68 26.1121 1198.54 31.2163 Q1203.4 36.3204 1203.4 46.6907 Z" fill="#000000" fill-rule="nonzero" fill-opacity="1" /><path clip-path="url(#clip330)" d="M1256.47 45.1919 L1256.47 72.576 L1249.01 72.576 L1249.01 45.4349 Q1249.01 38.994 1246.5 35.7938 Q1243.99 32.5936 1238.97 32.5936 Q1232.93 32.5936 1229.45 36.4419 Q1225.96 40.2903 1225.96 46.9338 L1225.96 72.576 L1218.47 72.576 L1218.47 27.2059 L1225.96 27.2059 L1225.96 34.2544 Q1228.64 30.163 1232.24 28.1376 Q1235.89 26.1121 1240.63 26.1121 Q1248.45 26.1121 1252.46 30.9732 Q1256.47 35.7938 1256.47 45.1919 Z" fill="#000000" fill-rule="nonzero" fill-opacity="1" /><path clip-path="url(#clip330)" d="M1292.36 27.2059 L1300.26 27.2059 L1314.44 65.2844 L1328.61 27.2059 L1336.51 27.2059 L1319.5 72.576 L1309.37 72.576 L1292.36 27.2059 Z" fill="#000000" fill-rule="nonzero" fill-opacity="1" /><path clip-path="url(#clip330)" d="M1375.73 28.5427 L1375.73 35.5912 Q1372.57 33.9709 1369.16 33.1607 Q1365.76 32.3505 1362.12 32.3505 Q1356.57 32.3505 1353.77 34.0519 Q1351.02 35.7533 1351.02 39.156 Q1351.02 41.7486 1353 43.2475 Q1354.99 44.7058 1360.98 46.0426 L1363.53 46.6097 Q1371.47 48.3111 1374.79 51.4303 Q1378.16 54.509 1378.16 60.0587 Q1378.16 66.3781 1373.13 70.0644 Q1368.15 73.7508 1359.4 73.7508 Q1355.76 73.7508 1351.79 73.0216 Q1347.86 72.3329 1343.48 70.9151 L1343.48 63.2184 Q1347.61 65.3654 1351.62 66.4591 Q1355.63 67.5124 1359.56 67.5124 Q1364.83 67.5124 1367.66 65.73 Q1370.5 63.9071 1370.5 60.6258 Q1370.5 57.5877 1368.43 55.9673 Q1366.41 54.3469 1359.48 52.8481 L1356.89 52.2405 Q1349.96 50.7821 1346.88 47.7845 Q1343.8 44.7463 1343.8 39.4801 Q1343.8 33.0797 1348.34 29.5959 Q1352.88 26.1121 1361.22 26.1121 Q1365.36 26.1121 1369 26.7198 Q1372.65 27.3274 1375.73 28.5427 Z" fill="#000000" fill-rule="nonzero" fill-opacity="1" /><path clip-path="url(#clip330)" d="M1462.01 16.7545 L1462.01 25.383 Q1457.88 21.5346 1453.18 19.6307 Q1448.52 17.7268 1443.25 17.7268 Q1432.88 17.7268 1427.38 24.0867 Q1421.87 30.4061 1421.87 42.3968 Q1421.87 54.3469 1427.38 60.7069 Q1432.88 67.0263 1443.25 67.0263 Q1448.52 67.0263 1453.18 65.1223 Q1457.88 63.2184 1462.01 59.3701 L1462.01 67.9175 Q1457.72 70.8341 1452.9 72.2924 Q1448.12 73.7508 1442.77 73.7508 Q1429.04 73.7508 1421.14 65.3654 Q1413.24 56.9395 1413.24 42.3968 Q1413.24 27.8135 1421.14 19.4281 Q1429.04 11.0023 1442.77 11.0023 Q1448.2 11.0023 1452.98 12.4606 Q1457.8 13.8784 1462.01 16.7545 Z" fill="#000000" fill-rule="nonzero" fill-opacity="1" /><path clip-path="url(#clip330)" d="M1494.94 49.7694 Q1485.91 49.7694 1482.43 51.8354 Q1478.94 53.9013 1478.94 58.8839 Q1478.94 62.8538 1481.54 65.2034 Q1484.17 67.5124 1488.67 67.5124 Q1494.86 67.5124 1498.59 63.1374 Q1502.36 58.7219 1502.36 51.4303 L1502.36 49.7694 L1494.94 49.7694 M1509.81 46.6907 L1509.81 72.576 L1502.36 72.576 L1502.36 65.6895 Q1499.81 69.8214 1496 71.8063 Q1492.19 73.7508 1486.68 73.7508 Q1479.71 73.7508 1475.58 69.8619 Q1471.49 65.9325 1471.49 59.3701 Q1471.49 51.7138 1476.59 47.825 Q1481.74 43.9361 1491.91 43.9361 L1502.36 43.9361 L1502.36 43.2069 Q1502.36 38.0623 1498.95 35.2672 Q1495.59 32.4315 1489.48 32.4315 Q1485.59 32.4315 1481.9 33.3632 Q1478.21 34.295 1474.81 36.1584 L1474.81 29.2718 Q1478.9 27.692 1482.75 26.9223 Q1486.6 26.1121 1490.25 26.1121 Q1500.09 26.1121 1504.95 31.2163 Q1509.81 36.3204 1509.81 46.6907 Z" fill="#000000" fill-rule="nonzero" fill-opacity="1" /><path clip-path="url(#clip330)" d="M1524.39 54.671 L1524.39 27.2059 L1531.85 27.2059 L1531.85 54.3874 Q1531.85 60.8284 1534.36 64.0691 Q1536.87 67.2693 1541.89 67.2693 Q1547.93 67.2693 1551.41 63.421 Q1554.94 59.5726 1554.94 52.9291 L1554.94 27.2059 L1562.39 27.2059 L1562.39 72.576 L1554.94 72.576 L1554.94 65.6084 Q1552.22 69.7404 1548.62 71.7658 Q1545.05 73.7508 1540.31 73.7508 Q1532.5 73.7508 1528.45 68.8897 Q1524.39 64.0286 1524.39 54.671 M1543.15 26.1121 L1543.15 26.1121 Z" fill="#000000" fill-rule="nonzero" fill-opacity="1" /><path clip-path="url(#clip330)" d="M1610.39 28.9478 L1610.39 35.9153 Q1607.24 34.1734 1604.04 33.3227 Q1600.88 32.4315 1597.63 32.4315 Q1590.38 32.4315 1586.37 37.0496 Q1582.36 41.6271 1582.36 49.9314 Q1582.36 58.2358 1586.37 62.8538 Q1590.38 67.4314 1597.63 67.4314 Q1600.88 67.4314 1604.04 66.5807 Q1607.24 65.6895 1610.39 63.9476 L1610.39 70.8341 Q1607.28 72.2924 1603.91 73.0216 Q1600.59 73.7508 1596.82 73.7508 Q1586.58 73.7508 1580.54 67.3098 Q1574.5 60.8689 1574.5 49.9314 Q1574.5 38.832 1580.58 32.472 Q1586.7 26.1121 1597.31 26.1121 Q1600.75 26.1121 1604.04 26.8413 Q1607.32 27.5299 1610.39 28.9478 Z" fill="#000000" fill-rule="nonzero" fill-opacity="1" /><path clip-path="url(#clip330)" d="M1661.07 45.1919 L1661.07 72.576 L1653.62 72.576 L1653.62 45.4349 Q1653.62 38.994 1651.11 35.7938 Q1648.6 32.5936 1643.57 32.5936 Q1637.54 32.5936 1634.05 36.4419 Q1630.57 40.2903 1630.57 46.9338 L1630.57 72.576 L1623.07 72.576 L1623.07 9.54393 L1630.57 9.54393 L1630.57 34.2544 Q1633.24 30.163 1636.85 28.1376 Q1640.49 26.1121 1645.23 26.1121 Q1653.05 26.1121 1657.06 30.9732 Q1661.07 35.7938 1661.07 45.1919 Z" fill="#000000" fill-rule="nonzero" fill-opacity="1" /><path clip-path="url(#clip330)" d="M1694.82 76.7889 Q1691.66 84.8907 1688.66 87.3618 Q1685.66 89.8329 1680.64 89.8329 L1674.68 89.8329 L1674.68 83.5945 L1679.06 83.5945 Q1682.14 83.5945 1683.84 82.1361 Q1685.54 80.6778 1687.61 75.2496 L1688.94 71.8468 L1670.59 27.2059 L1678.49 27.2059 L1692.67 62.6918 L1706.85 27.2059 L1714.75 27.2059 L1694.82 76.7889 Z" fill="#000000" fill-rule="nonzero" fill-opacity="1" /><polyline clip-path="url(#clip332)" style="stroke:#78c2ad; stroke-linecap:round; stroke-linejoin:round; stroke-width:4; stroke-opacity:1; fill:none" points="309.067,1386.4 318.988,1386.4 328.909,1386.4 338.829,1386.4 348.75,1386.4 358.671,1386.4 368.592,1386.4 378.513,1386.4 388.434,1386.4 398.354,1386.4 408.275,1386.4 418.196,1386.4 428.117,1386.4 438.038,1386.4 447.958,1386.4 457.879,1386.4 467.8,1386.4 477.721,1386.4 487.642,1386.4 497.563,1386.4 507.483,1386.4 517.404,1386.4 527.325,1386.4 537.246,1386.4 547.167,1386.4 557.087,1386.4 567.008,1386.4 576.929,1386.4 586.85,1386.4 596.771,1386.4 606.692,1386.4 616.612,1386.4 626.533,1386.4 636.454,1386.4 646.375,1386.4 656.296,1386.4 666.216,1386.4 676.137,1386.4 686.058,1386.4 695.979,1386.4 705.9,1386.4 715.821,1386.4 725.741,1386.4 735.662,1386.4 745.583,1386.4 755.504,1386.4 765.425,1386.4 775.346,1386.39 785.266,1386.39 795.187,1386.39 805.108,1386.39 815.029,1386.39 824.95,1386.38 834.87,1386.38 844.791,1386.36 854.712,1386.35 864.633,1386.32 874.554,1386.28 884.475,1386.21 894.395,1386.12 904.316,1385.98 914.237,1385.79 924.158,1385.5 934.079,1385.09 943.999,1384.51 953.92,1383.71 963.841,1382.61 973.762,1381.1 983.683,1379.07 993.604,1376.36 1003.52,1372.77 1013.45,1368.1 1023.37,1362.07 1033.29,1354.37 1043.21,1344.65 1053.13,1332.52 1063.05,1317.57 1072.97,1299.33 1082.89,1277.37 1092.81,1251.21 1102.73,1220.46 1112.65,1184.73 1122.57,1143.74 1132.5,1097.34 1142.42,1045.48 1152.34,988.326 1162.26,926.212 1172.18,859.698 1182.1,789.57 1192.02,716.832 1201.94,642.705 1211.86,568.589 1221.78,496.036 1231.7,426.691 1241.62,362.238 1251.54,304.331 1261.47,254.526 1271.39,214.21 1281.31,184.535 1291.23,166.372 1301.15,160.256 1311.07,166.372 1320.99,184.535 1330.91,214.21 1340.83,254.526 1350.75,304.331 1360.67,362.238 1370.59,426.691 1380.52,496.036 1390.44,568.589 1400.36,642.705 1410.28,716.832 1420.2,789.57 1430.12,859.698 1440.04,926.212 1449.96,988.326 1459.88,1045.48 1469.8,1097.34 1479.72,1143.74 1489.64,1184.73 1499.57,1220.46 1509.49,1251.21 1519.41,1277.37 1529.33,1299.33 1539.25,1317.57 1549.17,1332.52 1559.09,1344.65 1569.01,1354.37 1578.93,1362.07 1588.85,1368.1 1598.77,1372.77 1608.69,1376.36 1618.62,1379.07 1628.54,1381.1 1638.46,1382.61 1648.38,1383.71 1658.3,1384.51 1668.22,1385.09 1678.14,1385.5 1688.06,1385.79 1697.98,1385.98 1707.9,1386.12 1717.82,1386.21 1727.74,1386.28 1737.67,1386.32 1747.59,1386.35 1757.51,1386.36 1767.43,1386.38 1777.35,1386.38 1787.27,1386.39 1797.19,1386.39 1807.11,1386.39 1817.03,1386.39 1826.95,1386.39 1836.87,1386.4 1846.79,1386.4 1856.71,1386.4 1866.64,1386.4 1876.56,1386.4 1886.48,1386.4 1896.4,1386.4 1906.32,1386.4 1916.24,1386.4 1926.16,1386.4 1936.08,1386.4 1946,1386.4 1955.92,1386.4 1965.84,1386.4 1975.76,1386.4 1985.69,1386.4 1995.61,1386.4 2005.53,1386.4 2015.45,1386.4 2025.37,1386.4 2035.29,1386.4 2045.21,1386.4 2055.13,1386.4 2065.05,1386.4 2074.97,1386.4 2084.89,1386.4 2094.81,1386.4 2104.74,1386.4 2114.66,1386.4 2124.58,1386.4 2134.5,1386.4 2144.42,1386.4 2154.34,1386.4 2164.26,1386.4 2174.18,1386.4 2184.1,1386.4 2194.02,1386.4 2203.94,1386.4 2213.86,1386.4 2223.79,1386.4 2233.71,1386.4 2243.63,1386.4 2253.55,1386.4 2263.47,1386.4 2273.39,1386.4 2283.31,1386.4 2293.23,1386.4 "/>
<polyline clip-path="url(#clip332)" style="stroke:#e95420; stroke-linecap:round; stroke-linejoin:round; stroke-width:4; stroke-opacity:1; fill:none" points="309.067,1374.26 318.988,1374.01 328.909,1373.76 338.829,1373.5 348.75,1373.23 358.671,1372.96 368.592,1372.67 378.513,1372.38 388.434,1372.08 398.354,1371.77 408.275,1371.44 418.196,1371.11 428.117,1370.76 438.038,1370.41 447.958,1370.04 457.879,1369.66 467.8,1369.26 477.721,1368.85 487.642,1368.43 497.563,1367.99 507.483,1367.53 517.404,1367.06 527.325,1366.57 537.246,1366.06 547.167,1365.53 557.087,1364.98 567.008,1364.41 576.929,1363.81 586.85,1363.19 596.771,1362.55 606.692,1361.87 616.612,1361.17 626.533,1360.44 636.454,1359.68 646.375,1358.88 656.296,1358.05 666.216,1357.17 676.137,1356.26 686.058,1355.31 695.979,1354.31 705.9,1353.26 715.821,1352.16 725.741,1351 735.662,1349.78 745.583,1348.51 755.504,1347.16 765.425,1345.74 775.346,1344.25 785.266,1342.67 795.187,1341 805.108,1339.24 815.029,1337.37 824.95,1335.39 834.87,1333.29 844.791,1331.06 854.712,1328.69 864.633,1326.17 874.554,1323.48 884.475,1320.62 894.395,1317.55 904.316,1314.27 914.237,1310.75 924.158,1306.98 934.079,1302.93 943.999,1298.56 953.92,1293.86 963.841,1288.77 973.762,1283.27 983.683,1277.31 993.604,1270.83 1003.52,1263.78 1013.45,1256.09 1023.37,1247.69 1033.29,1238.49 1043.21,1228.39 1053.13,1217.27 1063.05,1205.01 1072.97,1191.46 1082.89,1176.44 1092.81,1159.75 1102.73,1141.17 1112.65,1120.42 1122.57,1097.21 1132.5,1071.19 1142.42,1041.97 1152.34,1009.12 1162.26,972.159 1172.18,930.582 1182.1,883.88 1192.02,831.581 1201.94,773.326 1211.86,708.971 1221.78,638.75 1231.7,563.483 1241.62,484.823 1251.54,405.484 1261.47,329.379 1271.39,261.497 1281.31,207.416 1291.23,172.396 1301.15,160.256 1311.07,172.396 1320.99,207.416 1330.91,261.497 1340.83,329.379 1350.75,405.484 1360.67,484.823 1370.59,563.483 1380.52,638.75 1390.44,708.971 1400.36,773.326 1410.28,831.581 1420.2,883.88 1430.12,930.582 1440.04,972.159 1449.96,1009.12 1459.88,1041.97 1469.8,1071.19 1479.72,1097.21 1489.64,1120.42 1499.57,1141.17 1509.49,1159.75 1519.41,1176.44 1529.33,1191.46 1539.25,1205.01 1549.17,1217.27 1559.09,1228.39 1569.01,1238.49 1578.93,1247.69 1588.85,1256.09 1598.77,1263.78 1608.69,1270.83 1618.62,1277.31 1628.54,1283.27 1638.46,1288.77 1648.38,1293.86 1658.3,1298.56 1668.22,1302.93 1678.14,1306.98 1688.06,1310.75 1697.98,1314.27 1707.9,1317.55 1717.82,1320.62 1727.74,1323.48 1737.67,1326.17 1747.59,1328.69 1757.51,1331.06 1767.43,1333.29 1777.35,1335.39 1787.27,1337.37 1797.19,1339.24 1807.11,1341 1817.03,1342.67 1826.95,1344.25 1836.87,1345.74 1846.79,1347.16 1856.71,1348.51 1866.64,1349.78 1876.56,1351 1886.48,1352.16 1896.4,1353.26 1906.32,1354.31 1916.24,1355.31 1926.16,1356.26 1936.08,1357.17 1946,1358.05 1955.92,1358.88 1965.84,1359.68 1975.76,1360.44 1985.69,1361.17 1995.61,1361.87 2005.53,1362.55 2015.45,1363.19 2025.37,1363.81 2035.29,1364.41 2045.21,1364.98 2055.13,1365.53 2065.05,1366.06 2074.97,1366.57 2084.89,1367.06 2094.81,1367.53 2104.74,1367.99 2114.66,1368.43 2124.58,1368.85 2134.5,1369.26 2144.42,1369.66 2154.34,1370.04 2164.26,1370.41 2174.18,1370.76 2184.1,1371.11 2194.02,1371.44 2203.94,1371.77 2213.86,1372.08 2223.79,1372.38 2233.71,1372.67 2243.63,1372.96 2253.55,1373.23 2263.47,1373.5 2273.39,1373.76 2283.31,1374.01 2293.23,1374.26 "/>
<path clip-path="url(#clip330)" d="M1670.01 322.316 L2282.65 322.316 L2282.65 166.796 L1670.01 166.796  Z" fill="#ffffff" fill-rule="evenodd" fill-opacity="1"/>
<polyline clip-path="url(#clip330)" style="stroke:#000000; stroke-linecap:round; stroke-linejoin:round; stroke-width:4; stroke-opacity:1; fill:none" points="1670.01,322.316 2282.65,322.316 2282.65,166.796 1670.01,166.796 1670.01,322.316 "/>
<polyline clip-path="url(#clip330)" style="stroke:#78c2ad; stroke-linecap:round; stroke-linejoin:round; stroke-width:4; stroke-opacity:1; fill:none" points="1693.38,218.636 1833.6,218.636 "/>
<path clip-path="url(#clip330)" d="M1882.52 230.985 L1882.52 221.703 L1874.88 221.703 L1874.88 217.86 L1887.15 217.86 L1887.15 232.698 Q1884.44 234.619 1881.18 235.615 Q1877.92 236.587 1874.21 236.587 Q1866.11 236.587 1861.53 231.865 Q1856.97 227.119 1856.97 218.67 Q1856.97 210.198 1861.53 205.476 Q1866.11 200.731 1874.21 200.731 Q1877.59 200.731 1880.62 201.564 Q1883.68 202.397 1886.25 204.018 L1886.25 208.995 Q1883.66 206.796 1880.74 205.684 Q1877.82 204.573 1874.61 204.573 Q1868.26 204.573 1865.07 208.115 Q1861.9 211.657 1861.9 218.67 Q1861.9 225.661 1865.07 229.203 Q1868.26 232.744 1874.61 232.744 Q1877.08 232.744 1879.03 232.328 Q1880.97 231.888 1882.52 230.985 Z" fill="#000000" fill-rule="nonzero" fill-opacity="1" /><path clip-path="url(#clip330)" d="M1907.29 222.883 Q1902.13 222.883 1900.14 224.064 Q1898.15 225.244 1898.15 228.092 Q1898.15 230.36 1899.63 231.703 Q1901.13 233.022 1903.7 233.022 Q1907.24 233.022 1909.37 230.522 Q1911.53 227.999 1911.53 223.832 L1911.53 222.883 L1907.29 222.883 M1915.79 221.124 L1915.79 235.916 L1911.53 235.916 L1911.53 231.981 Q1910.07 234.342 1907.89 235.476 Q1905.72 236.587 1902.57 236.587 Q1898.59 236.587 1896.23 234.365 Q1893.89 232.119 1893.89 228.369 Q1893.89 223.994 1896.8 221.772 Q1899.74 219.55 1905.55 219.55 L1911.53 219.55 L1911.53 219.133 Q1911.53 216.194 1909.58 214.596 Q1907.66 212.976 1904.17 212.976 Q1901.94 212.976 1899.84 213.508 Q1897.73 214.041 1895.79 215.106 L1895.79 211.17 Q1898.12 210.268 1900.32 209.828 Q1902.52 209.365 1904.61 209.365 Q1910.23 209.365 1913.01 212.282 Q1915.79 215.198 1915.79 221.124 Z" fill="#000000" fill-rule="nonzero" fill-opacity="1" /><path clip-path="url(#clip330)" d="M1924.12 225.684 L1924.12 209.99 L1928.38 209.99 L1928.38 225.522 Q1928.38 229.203 1929.81 231.055 Q1931.25 232.883 1934.12 232.883 Q1937.57 232.883 1939.56 230.684 Q1941.57 228.485 1941.57 224.689 L1941.57 209.99 L1945.83 209.99 L1945.83 235.916 L1941.57 235.916 L1941.57 231.934 Q1940.02 234.295 1937.96 235.453 Q1935.92 236.587 1933.22 236.587 Q1928.75 236.587 1926.43 233.809 Q1924.12 231.031 1924.12 225.684 M1934.84 209.365 L1934.84 209.365 Z" fill="#000000" fill-rule="nonzero" fill-opacity="1" /><path clip-path="url(#clip330)" d="M1971.13 210.754 L1971.13 214.782 Q1969.33 213.856 1967.38 213.393 Q1965.44 212.93 1963.36 212.93 Q1960.18 212.93 1958.59 213.902 Q1957.01 214.874 1957.01 216.819 Q1957.01 218.3 1958.15 219.157 Q1959.28 219.99 1962.71 220.754 L1964.17 221.078 Q1968.7 222.05 1970.6 223.832 Q1972.52 225.592 1972.52 228.763 Q1972.52 232.374 1969.65 234.481 Q1966.8 236.587 1961.8 236.587 Q1959.72 236.587 1957.45 236.17 Q1955.21 235.777 1952.71 234.967 L1952.71 230.569 Q1955.07 231.795 1957.36 232.42 Q1959.65 233.022 1961.9 233.022 Q1964.91 233.022 1966.53 232.004 Q1968.15 230.962 1968.15 229.087 Q1968.15 227.351 1966.97 226.425 Q1965.81 225.499 1961.85 224.643 L1960.37 224.295 Q1956.41 223.462 1954.65 221.749 Q1952.89 220.013 1952.89 217.004 Q1952.89 213.346 1955.49 211.356 Q1958.08 209.365 1962.85 209.365 Q1965.21 209.365 1967.29 209.712 Q1969.37 210.059 1971.13 210.754 Z" fill="#000000" fill-rule="nonzero" fill-opacity="1" /><path clip-path="url(#clip330)" d="M1995.83 210.754 L1995.83 214.782 Q1994.03 213.856 1992.08 213.393 Q1990.14 212.93 1988.05 212.93 Q1984.88 212.93 1983.29 213.902 Q1981.71 214.874 1981.71 216.819 Q1981.71 218.3 1982.85 219.157 Q1983.98 219.99 1987.41 220.754 L1988.86 221.078 Q1993.4 222.05 1995.3 223.832 Q1997.22 225.592 1997.22 228.763 Q1997.22 232.374 1994.35 234.481 Q1991.5 236.587 1986.5 236.587 Q1984.42 236.587 1982.15 236.17 Q1979.91 235.777 1977.41 234.967 L1977.41 230.569 Q1979.77 231.795 1982.06 232.42 Q1984.35 233.022 1986.6 233.022 Q1989.61 233.022 1991.23 232.004 Q1992.85 230.962 1992.85 229.087 Q1992.85 227.351 1991.67 226.425 Q1990.51 225.499 1986.55 224.643 L1985.07 224.295 Q1981.11 223.462 1979.35 221.749 Q1977.59 220.013 1977.59 217.004 Q1977.59 213.346 1980.18 211.356 Q1982.78 209.365 1987.55 209.365 Q1989.91 209.365 1991.99 209.712 Q1994.07 210.059 1995.83 210.754 Z" fill="#000000" fill-rule="nonzero" fill-opacity="1" /><path clip-path="url(#clip330)" d="M2004 209.99 L2008.26 209.99 L2008.26 235.916 L2004 235.916 L2004 209.99 M2004 199.897 L2008.26 199.897 L2008.26 205.291 L2004 205.291 L2004 199.897 Z" fill="#000000" fill-rule="nonzero" fill-opacity="1" /><path clip-path="url(#clip330)" d="M2028.96 222.883 Q2023.79 222.883 2021.8 224.064 Q2019.81 225.244 2019.81 228.092 Q2019.81 230.36 2021.29 231.703 Q2022.8 233.022 2025.37 233.022 Q2028.91 233.022 2031.04 230.522 Q2033.19 227.999 2033.19 223.832 L2033.19 222.883 L2028.96 222.883 M2037.45 221.124 L2037.45 235.916 L2033.19 235.916 L2033.19 231.981 Q2031.73 234.342 2029.56 235.476 Q2027.38 236.587 2024.23 236.587 Q2020.25 236.587 2017.89 234.365 Q2015.55 232.119 2015.55 228.369 Q2015.55 223.994 2018.47 221.772 Q2021.41 219.55 2027.22 219.55 L2033.19 219.55 L2033.19 219.133 Q2033.19 216.194 2031.25 214.596 Q2029.33 212.976 2025.83 212.976 Q2023.61 212.976 2021.5 213.508 Q2019.4 214.041 2017.45 215.106 L2017.45 211.17 Q2019.79 210.268 2021.99 209.828 Q2024.19 209.365 2026.27 209.365 Q2031.9 209.365 2034.67 212.282 Q2037.45 215.198 2037.45 221.124 Z" fill="#000000" fill-rule="nonzero" fill-opacity="1" /><path clip-path="url(#clip330)" d="M2067.78 220.268 L2067.78 235.916 L2063.52 235.916 L2063.52 220.407 Q2063.52 216.726 2062.08 214.897 Q2060.65 213.069 2057.78 213.069 Q2054.33 213.069 2052.34 215.268 Q2050.35 217.467 2050.35 221.263 L2050.35 235.916 L2046.06 235.916 L2046.06 209.99 L2050.35 209.99 L2050.35 214.018 Q2051.87 211.68 2053.93 210.522 Q2056.02 209.365 2058.73 209.365 Q2063.19 209.365 2065.48 212.143 Q2067.78 214.897 2067.78 220.268 Z" fill="#000000" fill-rule="nonzero" fill-opacity="1" /><path clip-path="url(#clip330)" d="M2108.4 213.925 L2108.4 199.897 L2112.66 199.897 L2112.66 235.916 L2108.4 235.916 L2108.4 232.027 Q2107.06 234.342 2105 235.476 Q2102.96 236.587 2100.09 236.587 Q2095.39 236.587 2092.43 232.837 Q2089.49 229.087 2089.49 222.976 Q2089.49 216.865 2092.43 213.115 Q2095.39 209.365 2100.09 209.365 Q2102.96 209.365 2105 210.499 Q2107.06 211.61 2108.4 213.925 M2093.89 222.976 Q2093.89 227.675 2095.81 230.36 Q2097.75 233.022 2101.13 233.022 Q2104.51 233.022 2106.46 230.36 Q2108.4 227.675 2108.4 222.976 Q2108.4 218.277 2106.46 215.615 Q2104.51 212.93 2101.13 212.93 Q2097.75 212.93 2095.81 215.615 Q2093.89 218.277 2093.89 222.976 Z" fill="#000000" fill-rule="nonzero" fill-opacity="1" /><path clip-path="url(#clip330)" d="M2143.61 221.888 L2143.61 223.971 L2124.03 223.971 Q2124.3 228.369 2126.66 230.684 Q2129.05 232.976 2133.29 232.976 Q2135.74 232.976 2138.03 232.374 Q2140.35 231.772 2142.61 230.569 L2142.61 234.596 Q2140.32 235.568 2137.91 236.078 Q2135.51 236.587 2133.03 236.587 Q2126.83 236.587 2123.19 232.976 Q2119.58 229.365 2119.58 223.207 Q2119.58 216.842 2123.01 213.115 Q2126.46 209.365 2132.29 209.365 Q2137.52 209.365 2140.55 212.745 Q2143.61 216.101 2143.61 221.888 M2139.35 220.638 Q2139.3 217.143 2137.38 215.059 Q2135.48 212.976 2132.34 212.976 Q2128.77 212.976 2126.62 214.99 Q2124.49 217.004 2124.16 220.661 L2139.35 220.638 Z" fill="#000000" fill-rule="nonzero" fill-opacity="1" /><path clip-path="url(#clip330)" d="M2172.15 220.268 L2172.15 235.916 L2167.89 235.916 L2167.89 220.407 Q2167.89 216.726 2166.46 214.897 Q2165.02 213.069 2162.15 213.069 Q2158.7 213.069 2156.71 215.268 Q2154.72 217.467 2154.72 221.263 L2154.72 235.916 L2150.44 235.916 L2150.44 209.99 L2154.72 209.99 L2154.72 214.018 Q2156.25 211.68 2158.31 210.522 Q2160.39 209.365 2163.1 209.365 Q2167.57 209.365 2169.86 212.143 Q2172.15 214.897 2172.15 220.268 Z" fill="#000000" fill-rule="nonzero" fill-opacity="1" /><path clip-path="url(#clip330)" d="M2197.17 210.754 L2197.17 214.782 Q2195.37 213.856 2193.42 213.393 Q2191.48 212.93 2189.4 212.93 Q2186.22 212.93 2184.63 213.902 Q2183.05 214.874 2183.05 216.819 Q2183.05 218.3 2184.19 219.157 Q2185.32 219.99 2188.75 220.754 L2190.21 221.078 Q2194.74 222.05 2196.64 223.832 Q2198.56 225.592 2198.56 228.763 Q2198.56 232.374 2195.69 234.481 Q2192.84 236.587 2187.84 236.587 Q2185.76 236.587 2183.49 236.17 Q2181.25 235.777 2178.75 234.967 L2178.75 230.569 Q2181.11 231.795 2183.4 232.42 Q2185.69 233.022 2187.94 233.022 Q2190.95 233.022 2192.57 232.004 Q2194.19 230.962 2194.19 229.087 Q2194.19 227.351 2193.01 226.425 Q2191.85 225.499 2187.89 224.643 L2186.41 224.295 Q2182.45 223.462 2180.69 221.749 Q2178.93 220.013 2178.93 217.004 Q2178.93 213.346 2181.53 211.356 Q2184.12 209.365 2188.89 209.365 Q2191.25 209.365 2193.33 209.712 Q2195.41 210.059 2197.17 210.754 Z" fill="#000000" fill-rule="nonzero" fill-opacity="1" /><path clip-path="url(#clip330)" d="M2205.34 209.99 L2209.6 209.99 L2209.6 235.916 L2205.34 235.916 L2205.34 209.99 M2205.34 199.897 L2209.6 199.897 L2209.6 205.291 L2205.34 205.291 L2205.34 199.897 Z" fill="#000000" fill-rule="nonzero" fill-opacity="1" /><path clip-path="url(#clip330)" d="M2222.73 202.629 L2222.73 209.99 L2231.5 209.99 L2231.5 213.3 L2222.73 213.3 L2222.73 227.374 Q2222.73 230.545 2223.59 231.448 Q2224.47 232.351 2227.13 232.351 L2231.5 232.351 L2231.5 235.916 L2227.13 235.916 Q2222.2 235.916 2220.32 234.087 Q2218.45 232.235 2218.45 227.374 L2218.45 213.3 L2215.32 213.3 L2215.32 209.99 L2218.45 209.99 L2218.45 202.629 L2222.73 202.629 Z" fill="#000000" fill-rule="nonzero" fill-opacity="1" /><path clip-path="url(#clip330)" d="M2247.89 238.323 Q2246.09 242.953 2244.37 244.365 Q2242.66 245.777 2239.79 245.777 L2236.39 245.777 L2236.39 242.212 L2238.89 242.212 Q2240.65 242.212 2241.62 241.379 Q2242.59 240.545 2243.77 237.443 L2244.53 235.499 L2234.05 209.99 L2238.56 209.99 L2246.66 230.268 L2254.77 209.99 L2259.28 209.99 L2247.89 238.323 Z" fill="#000000" fill-rule="nonzero" fill-opacity="1" /><polyline clip-path="url(#clip330)" style="stroke:#e95420; stroke-linecap:round; stroke-linejoin:round; stroke-width:4; stroke-opacity:1; fill:none" points="1693.38,270.476 1833.6,270.476 "/>
<path clip-path="url(#clip330)" d="M1884.84 255.858 L1884.84 260.788 Q1882.48 258.589 1879.79 257.501 Q1877.13 256.413 1874.12 256.413 Q1868.19 256.413 1865.05 260.048 Q1861.9 263.659 1861.9 270.51 Q1861.9 277.339 1865.05 280.973 Q1868.19 284.584 1874.12 284.584 Q1877.13 284.584 1879.79 283.496 Q1882.48 282.409 1884.84 280.209 L1884.84 285.094 Q1882.38 286.76 1879.63 287.594 Q1876.9 288.427 1873.84 288.427 Q1865.99 288.427 1861.48 283.635 Q1856.97 278.821 1856.97 270.51 Q1856.97 262.177 1861.48 257.386 Q1865.99 252.571 1873.84 252.571 Q1876.94 252.571 1879.68 253.404 Q1882.43 254.214 1884.84 255.858 Z" fill="#000000" fill-rule="nonzero" fill-opacity="1" /><path clip-path="url(#clip330)" d="M1903.66 274.723 Q1898.49 274.723 1896.5 275.904 Q1894.51 277.084 1894.51 279.932 Q1894.51 282.2 1895.99 283.543 Q1897.5 284.862 1900.07 284.862 Q1903.61 284.862 1905.74 282.362 Q1907.89 279.839 1907.89 275.672 L1907.89 274.723 L1903.66 274.723 M1912.15 272.964 L1912.15 287.756 L1907.89 287.756 L1907.89 283.821 Q1906.43 286.182 1904.26 287.316 Q1902.08 288.427 1898.93 288.427 Q1894.95 288.427 1892.59 286.205 Q1890.25 283.959 1890.25 280.209 Q1890.25 275.834 1893.17 273.612 Q1896.11 271.39 1901.92 271.39 L1907.89 271.39 L1907.89 270.973 Q1907.89 268.034 1905.95 266.436 Q1904.03 264.816 1900.53 264.816 Q1898.31 264.816 1896.2 265.348 Q1894.1 265.881 1892.15 266.946 L1892.15 263.01 Q1894.49 262.108 1896.69 261.668 Q1898.89 261.205 1900.97 261.205 Q1906.6 261.205 1909.37 264.122 Q1912.15 267.038 1912.15 272.964 Z" fill="#000000" fill-rule="nonzero" fill-opacity="1" /><path clip-path="url(#clip330)" d="M1920.49 277.524 L1920.49 261.83 L1924.74 261.83 L1924.74 277.362 Q1924.74 281.043 1926.18 282.895 Q1927.61 284.723 1930.49 284.723 Q1933.93 284.723 1935.92 282.524 Q1937.94 280.325 1937.94 276.529 L1937.94 261.83 L1942.2 261.83 L1942.2 287.756 L1937.94 287.756 L1937.94 283.774 Q1936.39 286.135 1934.33 287.293 Q1932.29 288.427 1929.58 288.427 Q1925.11 288.427 1922.8 285.649 Q1920.49 282.871 1920.49 277.524 M1931.2 261.205 L1931.2 261.205 Z" fill="#000000" fill-rule="nonzero" fill-opacity="1" /><path clip-path="url(#clip330)" d="M1969.63 262.825 L1969.63 266.807 Q1967.82 265.811 1965.99 265.325 Q1964.19 264.816 1962.34 264.816 Q1958.19 264.816 1955.9 267.455 Q1953.61 270.071 1953.61 274.816 Q1953.61 279.561 1955.9 282.2 Q1958.19 284.816 1962.34 284.816 Q1964.19 284.816 1965.99 284.33 Q1967.82 283.821 1969.63 282.825 L1969.63 286.76 Q1967.85 287.594 1965.92 288.01 Q1964.03 288.427 1961.87 288.427 Q1956.02 288.427 1952.57 284.746 Q1949.12 281.066 1949.12 274.816 Q1949.12 268.473 1952.59 264.839 Q1956.09 261.205 1962.15 261.205 Q1964.12 261.205 1965.99 261.622 Q1967.87 262.015 1969.63 262.825 Z" fill="#000000" fill-rule="nonzero" fill-opacity="1" /><path clip-path="url(#clip330)" d="M1998.59 272.108 L1998.59 287.756 L1994.33 287.756 L1994.33 272.247 Q1994.33 268.566 1992.89 266.737 Q1991.46 264.909 1988.59 264.909 Q1985.14 264.909 1983.15 267.108 Q1981.16 269.307 1981.16 273.103 L1981.16 287.756 L1976.87 287.756 L1976.87 251.737 L1981.16 251.737 L1981.16 265.858 Q1982.68 263.52 1984.74 262.362 Q1986.83 261.205 1989.54 261.205 Q1994 261.205 1996.3 263.983 Q1998.59 266.737 1998.59 272.108 Z" fill="#000000" fill-rule="nonzero" fill-opacity="1" /><path clip-path="url(#clip330)" d="M2017.87 290.163 Q2016.06 294.793 2014.35 296.205 Q2012.64 297.617 2009.77 297.617 L2006.36 297.617 L2006.36 294.052 L2008.86 294.052 Q2010.62 294.052 2011.6 293.219 Q2012.57 292.385 2013.75 289.283 L2014.51 287.339 L2004.03 261.83 L2008.54 261.83 L2016.64 282.108 L2024.74 261.83 L2029.26 261.83 L2017.87 290.163 Z" fill="#000000" fill-rule="nonzero" fill-opacity="1" /><path clip-path="url(#clip330)" d="M2067.27 265.765 L2067.27 251.737 L2071.53 251.737 L2071.53 287.756 L2067.27 287.756 L2067.27 283.867 Q2065.92 286.182 2063.86 287.316 Q2061.83 288.427 2058.96 288.427 Q2054.26 288.427 2051.29 284.677 Q2048.35 280.927 2048.35 274.816 Q2048.35 268.705 2051.29 264.955 Q2054.26 261.205 2058.96 261.205 Q2061.83 261.205 2063.86 262.339 Q2065.92 263.45 2067.27 265.765 M2052.75 274.816 Q2052.75 279.515 2054.67 282.2 Q2056.62 284.862 2060 284.862 Q2063.38 284.862 2065.32 282.2 Q2067.27 279.515 2067.27 274.816 Q2067.27 270.117 2065.32 267.455 Q2063.38 264.77 2060 264.77 Q2056.62 264.77 2054.67 267.455 Q2052.75 270.117 2052.75 274.816 Z" fill="#000000" fill-rule="nonzero" fill-opacity="1" /><path clip-path="url(#clip330)" d="M2102.48 273.728 L2102.48 275.811 L2082.89 275.811 Q2083.17 280.209 2085.53 282.524 Q2087.91 284.816 2092.15 284.816 Q2094.6 284.816 2096.9 284.214 Q2099.21 283.612 2101.48 282.409 L2101.48 286.436 Q2099.19 287.408 2096.78 287.918 Q2094.37 288.427 2091.9 288.427 Q2085.69 288.427 2082.06 284.816 Q2078.45 281.205 2078.45 275.047 Q2078.45 268.682 2081.87 264.955 Q2085.32 261.205 2091.16 261.205 Q2096.39 261.205 2099.42 264.585 Q2102.48 267.941 2102.48 273.728 M2098.22 272.478 Q2098.17 268.983 2096.25 266.899 Q2094.35 264.816 2091.2 264.816 Q2087.64 264.816 2085.48 266.83 Q2083.35 268.844 2083.03 272.501 L2098.22 272.478 Z" fill="#000000" fill-rule="nonzero" fill-opacity="1" /><path clip-path="url(#clip330)" d="M2131.02 272.108 L2131.02 287.756 L2126.76 287.756 L2126.76 272.247 Q2126.76 268.566 2125.32 266.737 Q2123.89 264.909 2121.02 264.909 Q2117.57 264.909 2115.58 267.108 Q2113.59 269.307 2113.59 273.103 L2113.59 287.756 L2109.3 287.756 L2109.3 261.83 L2113.59 261.83 L2113.59 265.858 Q2115.11 263.52 2117.17 262.362 Q2119.26 261.205 2121.97 261.205 Q2126.43 261.205 2128.72 263.983 Q2131.02 266.737 2131.02 272.108 Z" fill="#000000" fill-rule="nonzero" fill-opacity="1" /><path clip-path="url(#clip330)" d="M2156.04 262.594 L2156.04 266.622 Q2154.23 265.696 2152.29 265.233 Q2150.35 264.77 2148.26 264.77 Q2145.09 264.77 2143.49 265.742 Q2141.92 266.714 2141.92 268.659 Q2141.92 270.14 2143.05 270.997 Q2144.19 271.83 2147.61 272.594 L2149.07 272.918 Q2153.61 273.89 2155.51 275.672 Q2157.43 277.432 2157.43 280.603 Q2157.43 284.214 2154.56 286.321 Q2151.71 288.427 2146.71 288.427 Q2144.63 288.427 2142.36 288.01 Q2140.11 287.617 2137.61 286.807 L2137.61 282.409 Q2139.97 283.635 2142.27 284.26 Q2144.56 284.862 2146.8 284.862 Q2149.81 284.862 2151.43 283.844 Q2153.05 282.802 2153.05 280.927 Q2153.05 279.191 2151.87 278.265 Q2150.72 277.339 2146.76 276.483 L2145.28 276.135 Q2141.32 275.302 2139.56 273.589 Q2137.8 271.853 2137.8 268.844 Q2137.8 265.186 2140.39 263.196 Q2142.98 261.205 2147.75 261.205 Q2150.11 261.205 2152.2 261.552 Q2154.28 261.899 2156.04 262.594 Z" fill="#000000" fill-rule="nonzero" fill-opacity="1" /><path clip-path="url(#clip330)" d="M2164.21 261.83 L2168.47 261.83 L2168.47 287.756 L2164.21 287.756 L2164.21 261.83 M2164.21 251.737 L2168.47 251.737 L2168.47 257.131 L2164.21 257.131 L2164.21 251.737 Z" fill="#000000" fill-rule="nonzero" fill-opacity="1" /><path clip-path="url(#clip330)" d="M2181.59 254.469 L2181.59 261.83 L2190.37 261.83 L2190.37 265.14 L2181.59 265.14 L2181.59 279.214 Q2181.59 282.385 2182.45 283.288 Q2183.33 284.191 2185.99 284.191 L2190.37 284.191 L2190.37 287.756 L2185.99 287.756 Q2181.06 287.756 2179.19 285.927 Q2177.31 284.075 2177.31 279.214 L2177.31 265.14 L2174.19 265.14 L2174.19 261.83 L2177.31 261.83 L2177.31 254.469 L2181.59 254.469 Z" fill="#000000" fill-rule="nonzero" fill-opacity="1" /><path clip-path="url(#clip330)" d="M2206.76 290.163 Q2204.95 294.793 2203.24 296.205 Q2201.53 297.617 2198.66 297.617 L2195.25 297.617 L2195.25 294.052 L2197.75 294.052 Q2199.51 294.052 2200.48 293.219 Q2201.46 292.385 2202.64 289.283 L2203.4 287.339 L2192.91 261.83 L2197.43 261.83 L2205.53 282.108 L2213.63 261.83 L2218.15 261.83 L2206.76 290.163 Z" fill="#000000" fill-rule="nonzero" fill-opacity="1" /></svg>
