<?xml version="1.0" encoding="utf-8"?>
<svg xmlns="http://www.w3.org/2000/svg" xmlns:xlink="http://www.w3.org/1999/xlink" width="600" height="400" viewBox="0 0 2400 1600">
<defs>
  <clipPath id="clip560">
    <rect x="0" y="0" width="2400" height="1600"/>
  </clipPath>
</defs>
<path clip-path="url(#clip560)" d="M0 1600 L2400 1600 L2400 0 L0 0  Z" fill="#ffffff" fill-rule="evenodd" fill-opacity="1"/>
<defs>
  <clipPath id="clip561">
    <rect x="211" y="123" width="2142" height="1301"/>
  </clipPath>
</defs>
<path clip-path="url(#clip561)" d="M1347.06 1186.2 L1347.06 1107.44 L1459.76 1068.06 L1654.96 1090.8 L1654.96 1169.55 L1542.26 1208.93 L1347.06 1186.2  Z" fill="#ffffff" fill-rule="evenodd" fill-opacity="1"/>
<polyline clip-path="url(#clip561)" style="stroke:#000000; stroke-linecap:round; stroke-linejoin:round; stroke-width:2; stroke-opacity:0.1; fill:none" points="770.496,1167.2 1145.69,842.274 1145.69,192.42 "/>
<polyline clip-path="url(#clip561)" style="stroke:#000000; stroke-linecap:round; stroke-linejoin:round; stroke-width:2; stroke-opacity:0.1; fill:none" points="868.095,1195.38 1243.29,870.448 1243.29,220.594 "/>
<polyline clip-path="url(#clip561)" style="stroke:#000000; stroke-linecap:round; stroke-linejoin:round; stroke-width:2; stroke-opacity:0.1; fill:none" points="965.694,1223.55 1340.89,898.623 1340.89,248.769 "/>
<polyline clip-path="url(#clip561)" style="stroke:#000000; stroke-linecap:round; stroke-linejoin:round; stroke-width:2; stroke-opacity:0.1; fill:none" points="1063.29,1251.72 1438.49,926.797 1438.49,276.943 "/>
<polyline clip-path="url(#clip561)" style="stroke:#000000; stroke-linecap:round; stroke-linejoin:round; stroke-width:2; stroke-opacity:0.1; fill:none" points="1160.89,1279.9 1536.09,954.972 1536.09,305.118 "/>
<polyline clip-path="url(#clip561)" style="stroke:#000000; stroke-linecap:round; stroke-linejoin:round; stroke-width:2; stroke-opacity:0.1; fill:none" points="1258.49,1308.07 1633.69,983.146 1633.69,333.293 "/>
<polyline clip-path="url(#clip561)" style="stroke:#000000; stroke-linecap:round; stroke-linejoin:round; stroke-width:2; stroke-opacity:0.1; fill:none" points="1356.09,1336.25 1731.29,1011.32 1731.29,361.467 "/>
<polyline clip-path="url(#clip561)" style="stroke:#000000; stroke-linecap:round; stroke-linejoin:round; stroke-width:2; stroke-opacity:0.1; fill:none" points="1456.08,1322.72 806.228,1135.12 806.228,485.271 "/>
<polyline clip-path="url(#clip561)" style="stroke:#000000; stroke-linecap:round; stroke-linejoin:round; stroke-width:2; stroke-opacity:0.1; fill:none" points="1501.55,1283.34 851.698,1095.75 851.698,445.893 "/>
<polyline clip-path="url(#clip561)" style="stroke:#000000; stroke-linecap:round; stroke-linejoin:round; stroke-width:2; stroke-opacity:0.1; fill:none" points="1547.02,1243.97 897.167,1056.37 897.167,406.516 "/>
<polyline clip-path="url(#clip561)" style="stroke:#000000; stroke-linecap:round; stroke-linejoin:round; stroke-width:2; stroke-opacity:0.1; fill:none" points="1592.49,1204.59 942.636,1016.99 942.636,367.138 "/>
<polyline clip-path="url(#clip561)" style="stroke:#000000; stroke-linecap:round; stroke-linejoin:round; stroke-width:2; stroke-opacity:0.1; fill:none" points="1637.96,1165.21 988.106,977.614 988.106,327.761 "/>
<polyline clip-path="url(#clip561)" style="stroke:#000000; stroke-linecap:round; stroke-linejoin:round; stroke-width:2; stroke-opacity:0.1; fill:none" points="1683.43,1125.83 1033.58,938.237 1033.58,288.383 "/>
<polyline clip-path="url(#clip561)" style="stroke:#000000; stroke-linecap:round; stroke-linejoin:round; stroke-width:2; stroke-opacity:0.1; fill:none" points="1728.9,1086.46 1079.04,898.859 1079.04,249.005 "/>
<polyline clip-path="url(#clip561)" style="stroke:#000000; stroke-linecap:round; stroke-linejoin:round; stroke-width:2; stroke-opacity:0.1; fill:none" points="1774.37,1047.08 1124.51,859.481 1124.51,209.628 "/>
<polyline clip-path="url(#clip561)" style="stroke:#000000; stroke-linecap:round; stroke-linejoin:round; stroke-width:2; stroke-opacity:0.1; fill:none" points="769.517,1126.08 1144.71,801.148 1794.56,988.745 "/>
<polyline clip-path="url(#clip561)" style="stroke:#000000; stroke-linecap:round; stroke-linejoin:round; stroke-width:2; stroke-opacity:0.1; fill:none" points="769.517,1035.07 1144.71,710.139 1794.56,897.735 "/>
<polyline clip-path="url(#clip561)" style="stroke:#000000; stroke-linecap:round; stroke-linejoin:round; stroke-width:2; stroke-opacity:0.1; fill:none" points="769.517,944.056 1144.71,619.129 1794.56,806.726 "/>
<polyline clip-path="url(#clip561)" style="stroke:#000000; stroke-linecap:round; stroke-linejoin:round; stroke-width:2; stroke-opacity:0.1; fill:none" points="769.517,853.046 1144.71,528.119 1794.56,715.716 "/>
<polyline clip-path="url(#clip561)" style="stroke:#000000; stroke-linecap:round; stroke-linejoin:round; stroke-width:2; stroke-opacity:0.1; fill:none" points="769.517,762.036 1144.71,437.109 1794.56,624.706 "/>
<polyline clip-path="url(#clip561)" style="stroke:#000000; stroke-linecap:round; stroke-linejoin:round; stroke-width:2; stroke-opacity:0.1; fill:none" points="769.517,671.027 1144.71,346.1 1794.56,533.696 "/>
<polyline clip-path="url(#clip561)" style="stroke:#000000; stroke-linecap:round; stroke-linejoin:round; stroke-width:2; stroke-opacity:0.1; fill:none" points="769.517,580.017 1144.71,255.09 1794.56,442.686 "/>
<polyline clip-path="url(#clip560)" style="stroke:#000000; stroke-linecap:round; stroke-linejoin:round; stroke-width:4; stroke-opacity:1; fill:none" points="769.517,1166.92 1419.37,1354.51 "/>
<polyline clip-path="url(#clip560)" style="stroke:#000000; stroke-linecap:round; stroke-linejoin:round; stroke-width:4; stroke-opacity:1; fill:none" points="770.496,1167.2 774.998,1163.3 "/>
<polyline clip-path="url(#clip560)" style="stroke:#000000; stroke-linecap:round; stroke-linejoin:round; stroke-width:4; stroke-opacity:1; fill:none" points="868.095,1195.38 872.597,1191.48 "/>
<polyline clip-path="url(#clip560)" style="stroke:#000000; stroke-linecap:round; stroke-linejoin:round; stroke-width:4; stroke-opacity:1; fill:none" points="965.694,1223.55 970.197,1219.65 "/>
<polyline clip-path="url(#clip560)" style="stroke:#000000; stroke-linecap:round; stroke-linejoin:round; stroke-width:4; stroke-opacity:1; fill:none" points="1063.29,1251.72 1067.8,1247.83 "/>
<polyline clip-path="url(#clip560)" style="stroke:#000000; stroke-linecap:round; stroke-linejoin:round; stroke-width:4; stroke-opacity:1; fill:none" points="1160.89,1279.9 1165.4,1276 "/>
<polyline clip-path="url(#clip560)" style="stroke:#000000; stroke-linecap:round; stroke-linejoin:round; stroke-width:4; stroke-opacity:1; fill:none" points="1258.49,1308.07 1263,1304.17 "/>
<polyline clip-path="url(#clip560)" style="stroke:#000000; stroke-linecap:round; stroke-linejoin:round; stroke-width:4; stroke-opacity:1; fill:none" points="1356.09,1336.25 1360.59,1332.35 "/>
<path clip-path="url(#clip560)" d="M704.965 1196.26 L734.641 1196.26 L734.641 1200.19 L704.965 1200.19 L704.965 1196.26 Z" fill="#000000" fill-rule="nonzero" fill-opacity="1" /><path clip-path="url(#clip560)" d="M757.58 1182.6 L745.775 1201.05 L757.58 1201.05 L757.58 1182.6 M756.354 1178.53 L762.233 1178.53 L762.233 1201.05 L767.164 1201.05 L767.164 1204.94 L762.233 1204.94 L762.233 1213.09 L757.58 1213.09 L757.58 1204.94 L741.979 1204.94 L741.979 1200.43 L756.354 1178.53 Z" fill="#000000" fill-rule="nonzero" fill-opacity="1" /><path clip-path="url(#clip560)" d="M803.699 1224.43 L833.374 1224.43 L833.374 1228.37 L803.699 1228.37 L803.699 1224.43 Z" fill="#000000" fill-rule="nonzero" fill-opacity="1" /><path clip-path="url(#clip560)" d="M857.634 1222.63 Q860.99 1223.35 862.865 1225.61 Q864.763 1227.88 864.763 1231.22 Q864.763 1236.33 861.245 1239.13 Q857.726 1241.93 851.245 1241.93 Q849.069 1241.93 846.754 1241.49 Q844.462 1241.08 842.009 1240.22 L842.009 1235.71 Q843.953 1236.84 846.268 1237.42 Q848.583 1238 851.106 1238 Q855.504 1238 857.796 1236.26 Q860.11 1234.53 860.11 1231.22 Q860.11 1228.16 857.958 1226.45 Q855.828 1224.71 852.009 1224.71 L847.981 1224.71 L847.981 1220.87 L852.194 1220.87 Q855.643 1220.87 857.472 1219.5 Q859.3 1218.11 859.3 1215.52 Q859.3 1212.86 857.402 1211.45 Q855.527 1210.01 852.009 1210.01 Q850.087 1210.01 847.888 1210.43 Q845.689 1210.85 843.05 1211.72 L843.05 1207.56 Q845.712 1206.82 848.027 1206.45 Q850.365 1206.08 852.425 1206.08 Q857.749 1206.08 860.851 1208.51 Q863.953 1210.91 863.953 1215.04 Q863.953 1217.91 862.31 1219.9 Q860.666 1221.86 857.634 1222.63 Z" fill="#000000" fill-rule="nonzero" fill-opacity="1" /><path clip-path="url(#clip560)" d="M902.247 1252.61 L931.923 1252.61 L931.923 1256.54 L902.247 1256.54 L902.247 1252.61 Z" fill="#000000" fill-rule="nonzero" fill-opacity="1" /><path clip-path="url(#clip560)" d="M946.043 1265.5 L962.363 1265.5 L962.363 1269.44 L940.418 1269.44 L940.418 1265.5 Q943.08 1262.75 947.664 1258.12 Q952.27 1253.46 953.451 1252.12 Q955.696 1249.6 956.576 1247.86 Q957.478 1246.1 957.478 1244.41 Q957.478 1241.66 955.534 1239.92 Q953.613 1238.19 950.511 1238.19 Q948.312 1238.19 945.858 1238.95 Q943.428 1239.71 940.65 1241.27 L940.65 1236.54 Q943.474 1235.41 945.928 1234.83 Q948.381 1234.25 950.418 1234.25 Q955.789 1234.25 958.983 1236.94 Q962.177 1239.62 962.177 1244.11 Q962.177 1246.24 961.367 1248.16 Q960.58 1250.06 958.474 1252.65 Q957.895 1253.33 954.793 1256.54 Q951.691 1259.74 946.043 1265.5 Z" fill="#000000" fill-rule="nonzero" fill-opacity="1" /><path clip-path="url(#clip560)" d="M999.476 1280.78 L1029.15 1280.78 L1029.15 1284.72 L999.476 1284.72 L999.476 1280.78 Z" fill="#000000" fill-rule="nonzero" fill-opacity="1" /><path clip-path="url(#clip560)" d="M1040.05 1293.68 L1047.69 1293.68 L1047.69 1267.31 L1039.38 1268.98 L1039.38 1264.72 L1047.65 1263.05 L1052.32 1263.05 L1052.32 1293.68 L1059.96 1293.68 L1059.96 1297.61 L1040.05 1297.61 L1040.05 1293.68 Z" fill="#000000" fill-rule="nonzero" fill-opacity="1" /><path clip-path="url(#clip560)" d="M1145.62 1294.3 Q1142.01 1294.3 1140.18 1297.87 Q1138.37 1301.41 1138.37 1308.54 Q1138.37 1315.65 1140.18 1319.21 Q1142.01 1322.75 1145.62 1322.75 Q1149.25 1322.75 1151.06 1319.21 Q1152.89 1315.65 1152.89 1308.54 Q1152.89 1301.41 1151.06 1297.87 Q1149.25 1294.3 1145.62 1294.3 M1145.62 1290.6 Q1151.43 1290.6 1154.48 1295.21 Q1157.56 1299.79 1157.56 1308.54 Q1157.56 1317.27 1154.48 1321.87 Q1151.43 1326.46 1145.62 1326.46 Q1139.81 1326.46 1136.73 1321.87 Q1133.67 1317.27 1133.67 1308.54 Q1133.67 1299.79 1136.73 1295.21 Q1139.81 1290.6 1145.62 1290.6 Z" fill="#000000" fill-rule="nonzero" fill-opacity="1" /><path clip-path="url(#clip560)" d="M1235.25 1350.02 L1242.89 1350.02 L1242.89 1323.66 L1234.58 1325.33 L1234.58 1321.07 L1242.85 1319.4 L1247.52 1319.4 L1247.52 1350.02 L1255.16 1350.02 L1255.16 1353.96 L1235.25 1353.96 L1235.25 1350.02 Z" fill="#000000" fill-rule="nonzero" fill-opacity="1" /><path clip-path="url(#clip560)" d="M1336.44 1378.2 L1352.76 1378.2 L1352.76 1382.13 L1330.82 1382.13 L1330.82 1378.2 Q1333.48 1375.44 1338.06 1370.82 Q1342.67 1366.16 1343.85 1364.82 Q1346.09 1362.3 1346.97 1360.56 Q1347.88 1358.8 1347.88 1357.11 Q1347.88 1354.36 1345.93 1352.62 Q1344.01 1350.88 1340.91 1350.88 Q1338.71 1350.88 1336.26 1351.65 Q1333.83 1352.41 1331.05 1353.96 L1331.05 1349.24 Q1333.87 1348.11 1336.33 1347.53 Q1338.78 1346.95 1340.82 1346.95 Q1346.19 1346.95 1349.38 1349.63 Q1352.58 1352.32 1352.58 1356.81 Q1352.58 1358.94 1351.77 1360.86 Q1350.98 1362.76 1348.87 1365.35 Q1348.29 1366.02 1345.19 1369.24 Q1342.09 1372.44 1336.44 1378.2 Z" fill="#000000" fill-rule="nonzero" fill-opacity="1" /><path clip-path="url(#clip560)" d="M973.321 1406.74 Q973.321 1408.54 972.194 1409.57 Q971.067 1410.57 969.778 1410.57 Q968.555 1410.57 967.911 1409.86 Q967.266 1409.15 967.266 1408.25 Q967.266 1407.03 968.168 1405.96 Q969.07 1404.9 970.423 1404.68 Q969.102 1403.84 967.138 1403.84 Q965.849 1403.84 964.722 1404.52 Q963.627 1405.19 962.951 1406.06 Q962.307 1406.93 961.727 1408.19 Q961.179 1409.41 960.954 1410.15 Q960.761 1410.86 960.6 1411.63 L958.345 1420.65 Q957.25 1424.93 957.25 1426.45 Q957.25 1428.32 958.152 1429.57 Q959.054 1430.8 960.857 1430.8 Q961.566 1430.8 962.371 1430.6 Q963.176 1430.38 964.207 1429.8 Q965.27 1429.19 966.204 1428.28 Q967.17 1427.35 968.104 1425.77 Q969.038 1424.19 969.65 1422.16 Q969.843 1421.46 970.487 1421.46 Q971.292 1421.46 971.292 1422.1 Q971.292 1422.65 970.841 1423.81 Q970.423 1424.93 969.489 1426.42 Q968.587 1427.86 967.395 1429.19 Q966.204 1430.47 964.432 1431.38 Q962.661 1432.28 960.729 1432.28 Q957.959 1432.28 956.123 1430.8 Q954.287 1429.31 953.611 1427.25 Q953.45 1427.54 953.225 1427.93 Q952.999 1428.32 952.323 1429.19 Q951.679 1430.02 950.938 1430.67 Q950.197 1431.28 949.038 1431.76 Q947.911 1432.28 946.687 1432.28 Q945.141 1432.28 943.756 1431.83 Q942.403 1431.38 941.437 1430.34 Q940.471 1429.31 940.471 1427.9 Q940.471 1426.32 941.534 1425.22 Q942.629 1424.1 944.11 1424.1 Q945.044 1424.1 945.785 1424.64 Q946.558 1425.19 946.558 1426.38 Q946.558 1427.7 945.656 1428.7 Q944.755 1429.7 943.466 1429.96 Q944.787 1430.8 946.751 1430.8 Q948.877 1430.8 950.552 1428.93 Q952.226 1427.06 953.031 1423.94 Q955.028 1416.43 955.801 1413.08 Q956.574 1409.7 956.574 1408.25 Q956.574 1406.9 956.22 1405.96 Q955.866 1405.03 955.254 1404.61 Q954.674 1404.16 954.126 1404 Q953.611 1403.84 953.031 1403.84 Q952.065 1403.84 950.97 1404.23 Q949.907 1404.61 948.619 1405.51 Q947.363 1406.38 946.172 1408.19 Q944.98 1409.99 944.175 1412.47 Q944.014 1413.21 943.305 1413.21 Q942.532 1413.18 942.532 1412.53 Q942.532 1411.99 942.951 1410.86 Q943.402 1409.7 944.304 1408.25 Q945.238 1406.8 946.429 1405.51 Q947.653 1404.19 949.424 1403.29 Q951.228 1402.39 953.16 1402.39 Q954.03 1402.39 954.867 1402.58 Q955.737 1402.74 956.767 1403.23 Q957.83 1403.71 958.764 1404.77 Q959.698 1405.84 960.278 1407.38 Q960.664 1406.64 961.179 1405.93 Q961.727 1405.22 962.564 1404.35 Q963.434 1403.45 964.626 1402.94 Q965.849 1402.39 967.202 1402.39 Q968.522 1402.39 969.811 1402.74 Q971.099 1403.07 972.194 1404.13 Q973.321 1405.16 973.321 1406.74 Z" fill="#000000" fill-rule="nonzero" fill-opacity="1" /><path clip-path="url(#clip560)" d="M980.042 1424.19 L980.042 1422.75 Q985.588 1422.75 988.451 1419.8 Q989.24 1419.8 989.376 1419.98 Q989.511 1420.16 989.511 1420.99 L989.511 1446.9 Q989.511 1448.27 990.187 1448.7 Q990.864 1449.13 993.817 1449.13 L995.282 1449.13 L995.282 1450.55 Q993.659 1450.41 987.798 1450.41 Q981.936 1450.41 980.335 1450.55 L980.335 1449.13 L981.801 1449.13 Q984.709 1449.13 985.408 1448.72 Q986.107 1448.29 986.107 1446.9 L986.107 1422.98 Q983.695 1424.19 980.042 1424.19 Z" fill="#000000" fill-rule="nonzero" fill-opacity="1" /><polyline clip-path="url(#clip560)" style="stroke:#000000; stroke-linecap:round; stroke-linejoin:round; stroke-width:4; stroke-opacity:1; fill:none" points="1419.37,1354.51 1794.56,1029.59 "/>
<polyline clip-path="url(#clip560)" style="stroke:#000000; stroke-linecap:round; stroke-linejoin:round; stroke-width:4; stroke-opacity:1; fill:none" points="1456.08,1322.72 1448.28,1320.47 "/>
<polyline clip-path="url(#clip560)" style="stroke:#000000; stroke-linecap:round; stroke-linejoin:round; stroke-width:4; stroke-opacity:1; fill:none" points="1501.55,1283.34 1493.75,1281.09 "/>
<polyline clip-path="url(#clip560)" style="stroke:#000000; stroke-linecap:round; stroke-linejoin:round; stroke-width:4; stroke-opacity:1; fill:none" points="1547.02,1243.97 1539.22,1241.72 "/>
<polyline clip-path="url(#clip560)" style="stroke:#000000; stroke-linecap:round; stroke-linejoin:round; stroke-width:4; stroke-opacity:1; fill:none" points="1592.49,1204.59 1584.69,1202.34 "/>
<polyline clip-path="url(#clip560)" style="stroke:#000000; stroke-linecap:round; stroke-linejoin:round; stroke-width:4; stroke-opacity:1; fill:none" points="1637.96,1165.21 1630.16,1162.96 "/>
<polyline clip-path="url(#clip560)" style="stroke:#000000; stroke-linecap:round; stroke-linejoin:round; stroke-width:4; stroke-opacity:1; fill:none" points="1683.43,1125.83 1675.63,1123.58 "/>
<polyline clip-path="url(#clip560)" style="stroke:#000000; stroke-linecap:round; stroke-linejoin:round; stroke-width:4; stroke-opacity:1; fill:none" points="1728.9,1086.46 1721.1,1084.2 "/>
<polyline clip-path="url(#clip560)" style="stroke:#000000; stroke-linecap:round; stroke-linejoin:round; stroke-width:4; stroke-opacity:1; fill:none" points="1774.37,1047.08 1766.57,1044.83 "/>
<path clip-path="url(#clip560)" d="M1465.58 1350.36 L1495.26 1350.36 L1495.26 1354.3 L1465.58 1354.3 L1465.58 1350.36 Z" fill="#000000" fill-rule="nonzero" fill-opacity="1" /><path clip-path="url(#clip560)" d="M1509.38 1363.25 L1525.7 1363.25 L1525.7 1367.19 L1503.75 1367.19 L1503.75 1363.25 Q1506.41 1360.5 1511 1355.87 Q1515.6 1351.22 1516.79 1349.88 Q1519.03 1347.35 1519.91 1345.62 Q1520.81 1343.86 1520.81 1342.17 Q1520.81 1339.41 1518.87 1337.68 Q1516.95 1335.94 1513.85 1335.94 Q1511.65 1335.94 1509.19 1336.7 Q1506.76 1337.47 1503.98 1339.02 L1503.98 1334.3 Q1506.81 1333.16 1509.26 1332.58 Q1511.72 1332 1513.75 1332 Q1519.12 1332 1522.32 1334.69 Q1525.51 1337.38 1525.51 1341.87 Q1525.51 1344 1524.7 1345.92 Q1523.91 1347.81 1521.81 1350.41 Q1521.23 1351.08 1518.13 1354.3 Q1515.03 1357.49 1509.38 1363.25 Z" fill="#000000" fill-rule="nonzero" fill-opacity="1" /><path clip-path="url(#clip560)" d="M1523 1296.33 Q1519.38 1296.33 1517.56 1299.9 Q1515.75 1303.44 1515.75 1310.57 Q1515.75 1317.67 1517.56 1321.24 Q1519.38 1324.78 1523 1324.78 Q1526.63 1324.78 1528.44 1321.24 Q1530.26 1317.67 1530.26 1310.57 Q1530.26 1303.44 1528.44 1299.9 Q1526.63 1296.33 1523 1296.33 M1523 1292.63 Q1528.81 1292.63 1531.86 1297.23 Q1534.94 1301.82 1534.94 1310.57 Q1534.94 1319.29 1531.86 1323.9 Q1528.81 1328.48 1523 1328.48 Q1517.19 1328.48 1514.11 1323.9 Q1511.05 1319.29 1511.05 1310.57 Q1511.05 1301.82 1514.11 1297.23 Q1517.19 1292.63 1523 1292.63 Z" fill="#000000" fill-rule="nonzero" fill-opacity="1" /><path clip-path="url(#clip560)" d="M1562.15 1284.5 L1578.46 1284.5 L1578.46 1288.43 L1556.52 1288.43 L1556.52 1284.5 Q1559.18 1281.74 1563.77 1277.12 Q1568.37 1272.46 1569.55 1271.12 Q1571.8 1268.6 1572.68 1266.86 Q1573.58 1265.1 1573.58 1263.41 Q1573.58 1260.66 1571.64 1258.92 Q1569.71 1257.18 1566.61 1257.18 Q1564.41 1257.18 1561.96 1257.95 Q1559.53 1258.71 1556.75 1260.26 L1556.75 1255.54 Q1559.58 1254.41 1562.03 1253.83 Q1564.48 1253.25 1566.52 1253.25 Q1571.89 1253.25 1575.09 1255.93 Q1578.28 1258.62 1578.28 1263.11 Q1578.28 1265.24 1577.47 1267.16 Q1576.68 1269.06 1574.58 1271.65 Q1574 1272.32 1570.9 1275.54 Q1567.79 1278.74 1562.15 1284.5 Z" fill="#000000" fill-rule="nonzero" fill-opacity="1" /><path clip-path="url(#clip560)" d="M1617.59 1218.57 L1605.79 1237.02 L1617.59 1237.02 L1617.59 1218.57 M1616.36 1214.5 L1622.24 1214.5 L1622.24 1237.02 L1627.18 1237.02 L1627.18 1240.91 L1622.24 1240.91 L1622.24 1249.06 L1617.59 1249.06 L1617.59 1240.91 L1601.99 1240.91 L1601.99 1236.39 L1616.36 1214.5 Z" fill="#000000" fill-rule="nonzero" fill-opacity="1" /><path clip-path="url(#clip560)" d="M1659.8 1190.54 Q1656.65 1190.54 1654.8 1192.69 Q1652.97 1194.84 1652.97 1198.59 Q1652.97 1202.32 1654.8 1204.49 Q1656.65 1206.65 1659.8 1206.65 Q1662.95 1206.65 1664.77 1204.49 Q1666.63 1202.32 1666.63 1198.59 Q1666.63 1194.84 1664.77 1192.69 Q1662.95 1190.54 1659.8 1190.54 M1669.08 1175.88 L1669.08 1180.14 Q1667.32 1179.31 1665.51 1178.87 Q1663.73 1178.43 1661.97 1178.43 Q1657.34 1178.43 1654.89 1181.55 Q1652.46 1184.68 1652.11 1191 Q1653.48 1188.98 1655.54 1187.92 Q1657.6 1186.83 1660.08 1186.83 Q1665.28 1186.83 1668.29 1190 Q1671.32 1193.15 1671.32 1198.59 Q1671.32 1203.92 1668.18 1207.13 Q1665.03 1210.35 1659.8 1210.35 Q1653.8 1210.35 1650.63 1205.77 Q1647.46 1201.16 1647.46 1192.43 Q1647.46 1184.24 1651.35 1179.38 Q1655.24 1174.49 1661.79 1174.49 Q1663.55 1174.49 1665.33 1174.84 Q1667.14 1175.19 1669.08 1175.88 Z" fill="#000000" fill-rule="nonzero" fill-opacity="1" /><path clip-path="url(#clip560)" d="M1704.78 1153.89 Q1701.45 1153.89 1699.53 1155.67 Q1697.63 1157.45 1697.63 1160.58 Q1697.63 1163.7 1699.53 1165.49 Q1701.45 1167.27 1704.78 1167.27 Q1708.11 1167.27 1710.04 1165.49 Q1711.96 1163.68 1711.96 1160.58 Q1711.96 1157.45 1710.04 1155.67 Q1708.14 1153.89 1704.78 1153.89 M1700.1 1151.9 Q1697.1 1151.16 1695.41 1149.1 Q1693.74 1147.04 1693.74 1144.07 Q1693.74 1139.93 1696.68 1137.52 Q1699.64 1135.12 1704.78 1135.12 Q1709.94 1135.12 1712.88 1137.52 Q1715.82 1139.93 1715.82 1144.07 Q1715.82 1147.04 1714.13 1149.1 Q1712.47 1151.16 1709.48 1151.9 Q1712.86 1152.69 1714.73 1154.98 Q1716.63 1157.27 1716.63 1160.58 Q1716.63 1165.6 1713.55 1168.29 Q1710.5 1170.97 1704.78 1170.97 Q1699.06 1170.97 1695.98 1168.29 Q1692.93 1165.6 1692.93 1160.58 Q1692.93 1157.27 1694.83 1154.98 Q1696.73 1152.69 1700.1 1151.9 M1698.39 1144.51 Q1698.39 1147.2 1700.06 1148.7 Q1701.75 1150.21 1704.78 1150.21 Q1707.79 1150.21 1709.48 1148.7 Q1711.19 1147.2 1711.19 1144.51 Q1711.19 1141.83 1709.48 1140.32 Q1707.79 1138.82 1704.78 1138.82 Q1701.75 1138.82 1700.06 1140.32 Q1698.39 1141.83 1698.39 1144.51 Z" fill="#000000" fill-rule="nonzero" fill-opacity="1" /><path clip-path="url(#clip560)" d="M1739.07 1126.99 L1746.71 1126.99 L1746.71 1100.62 L1738.4 1102.29 L1738.4 1098.03 L1746.66 1096.36 L1751.34 1096.36 L1751.34 1126.99 L1758.98 1126.99 L1758.98 1130.92 L1739.07 1130.92 L1739.07 1126.99 Z" fill="#000000" fill-rule="nonzero" fill-opacity="1" /><path clip-path="url(#clip560)" d="M1778.42 1099.44 Q1774.81 1099.44 1772.98 1103.01 Q1771.18 1106.55 1771.18 1113.68 Q1771.18 1120.79 1772.98 1124.35 Q1774.81 1127.89 1778.42 1127.89 Q1782.06 1127.89 1783.86 1124.35 Q1785.69 1120.79 1785.69 1113.68 Q1785.69 1106.55 1783.86 1103.01 Q1782.06 1099.44 1778.42 1099.44 M1778.42 1095.74 Q1784.23 1095.74 1787.29 1100.35 Q1790.37 1104.93 1790.37 1113.68 Q1790.37 1122.41 1787.29 1127.01 Q1784.23 1131.6 1778.42 1131.6 Q1772.61 1131.6 1769.53 1127.01 Q1766.48 1122.41 1766.48 1113.68 Q1766.48 1104.93 1769.53 1100.35 Q1772.61 1095.74 1778.42 1095.74 Z" fill="#000000" fill-rule="nonzero" fill-opacity="1" /><path clip-path="url(#clip560)" d="M1784.54 1087.61 L1792.18 1087.61 L1792.18 1061.25 L1783.87 1062.91 L1783.87 1058.65 L1792.13 1056.99 L1796.81 1056.99 L1796.81 1087.61 L1804.45 1087.61 L1804.45 1091.55 L1784.54 1091.55 L1784.54 1087.61 Z" fill="#000000" fill-rule="nonzero" fill-opacity="1" /><path clip-path="url(#clip560)" d="M1817.92 1087.61 L1834.24 1087.61 L1834.24 1091.55 L1812.29 1091.55 L1812.29 1087.61 Q1814.96 1084.86 1819.54 1080.23 Q1824.15 1075.57 1825.33 1074.23 Q1827.57 1071.71 1828.45 1069.97 Q1829.35 1068.21 1829.35 1066.52 Q1829.35 1063.77 1827.41 1062.03 Q1825.49 1060.3 1822.39 1060.3 Q1820.19 1060.3 1817.73 1061.06 Q1815.3 1061.82 1812.52 1063.38 L1812.52 1058.65 Q1815.35 1057.52 1817.8 1056.94 Q1820.26 1056.36 1822.29 1056.36 Q1827.66 1056.36 1830.86 1059.05 Q1834.05 1061.73 1834.05 1066.22 Q1834.05 1068.35 1833.24 1070.27 Q1832.46 1072.17 1830.35 1074.76 Q1829.77 1075.44 1826.67 1078.65 Q1823.57 1081.85 1817.92 1087.61 Z" fill="#000000" fill-rule="nonzero" fill-opacity="1" /><path clip-path="url(#clip560)" d="M1730.5 1338.07 Q1730.5 1339.88 1729.38 1340.91 Q1728.25 1341.91 1726.96 1341.91 Q1725.74 1341.91 1725.09 1341.2 Q1724.45 1340.49 1724.45 1339.59 Q1724.45 1338.36 1725.35 1337.3 Q1726.25 1336.24 1727.61 1336.01 Q1726.29 1335.17 1724.32 1335.17 Q1723.03 1335.17 1721.91 1335.85 Q1720.81 1336.53 1720.13 1337.4 Q1719.49 1338.27 1718.91 1339.52 Q1718.36 1340.75 1718.14 1341.49 Q1717.94 1342.2 1717.78 1342.97 L1715.53 1351.99 Q1714.43 1356.27 1714.43 1357.78 Q1714.43 1359.65 1715.34 1360.91 Q1716.24 1362.13 1718.04 1362.13 Q1718.75 1362.13 1719.55 1361.94 Q1720.36 1361.71 1721.39 1361.13 Q1722.45 1360.52 1723.39 1359.62 Q1724.35 1358.68 1725.29 1357.11 Q1726.22 1355.53 1726.83 1353.5 Q1727.03 1352.79 1727.67 1352.79 Q1728.48 1352.79 1728.48 1353.43 Q1728.48 1353.98 1728.02 1355.14 Q1727.61 1356.27 1726.67 1357.75 Q1725.77 1359.2 1724.58 1360.52 Q1723.39 1361.81 1721.62 1362.71 Q1719.84 1363.61 1717.91 1363.61 Q1715.14 1363.61 1713.31 1362.13 Q1711.47 1360.65 1710.79 1358.59 Q1710.63 1358.88 1710.41 1359.26 Q1710.18 1359.65 1709.51 1360.52 Q1708.86 1361.36 1708.12 1362 Q1707.38 1362.61 1706.22 1363.1 Q1705.09 1363.61 1703.87 1363.61 Q1702.32 1363.61 1700.94 1363.16 Q1699.59 1362.71 1698.62 1361.68 Q1697.65 1360.65 1697.65 1359.23 Q1697.65 1357.65 1698.72 1356.56 Q1699.81 1355.43 1701.29 1355.43 Q1702.23 1355.43 1702.97 1355.98 Q1703.74 1356.53 1703.74 1357.72 Q1703.74 1359.04 1702.84 1360.04 Q1701.94 1361.04 1700.65 1361.29 Q1701.97 1362.13 1703.93 1362.13 Q1706.06 1362.13 1707.73 1360.26 Q1709.41 1358.39 1710.21 1355.27 Q1712.21 1347.77 1712.98 1344.42 Q1713.76 1341.04 1713.76 1339.59 Q1713.76 1338.23 1713.4 1337.3 Q1713.05 1336.37 1712.44 1335.95 Q1711.86 1335.5 1711.31 1335.34 Q1710.79 1335.17 1710.21 1335.17 Q1709.25 1335.17 1708.15 1335.56 Q1707.09 1335.95 1705.8 1336.85 Q1704.55 1337.72 1703.35 1339.52 Q1702.16 1341.33 1701.36 1343.81 Q1701.2 1344.55 1700.49 1344.55 Q1699.72 1344.51 1699.72 1343.87 Q1699.72 1343.32 1700.13 1342.2 Q1700.58 1341.04 1701.49 1339.59 Q1702.42 1338.14 1703.61 1336.85 Q1704.84 1335.53 1706.61 1334.63 Q1708.41 1333.72 1710.34 1333.72 Q1711.21 1333.72 1712.05 1333.92 Q1712.92 1334.08 1713.95 1334.56 Q1715.01 1335.05 1715.95 1336.11 Q1716.88 1337.17 1717.46 1338.72 Q1717.85 1337.98 1718.36 1337.27 Q1718.91 1336.56 1719.75 1335.69 Q1720.62 1334.79 1721.81 1334.27 Q1723.03 1333.72 1724.39 1333.72 Q1725.71 1333.72 1726.99 1334.08 Q1728.28 1334.4 1729.38 1335.46 Q1730.5 1336.49 1730.5 1338.07 Z" fill="#000000" fill-rule="nonzero" fill-opacity="1" /><path clip-path="url(#clip560)" d="M1737.23 1381.88 Q1737.23 1381.05 1737.29 1380.8 Q1737.38 1380.55 1737.74 1380.17 L1746.6 1370.29 Q1751.45 1364.84 1751.45 1360.08 Q1751.45 1356.99 1749.83 1354.78 Q1748.23 1352.57 1745.27 1352.57 Q1743.24 1352.57 1741.53 1353.81 Q1739.82 1355.05 1739.03 1357.26 Q1739.16 1357.22 1739.64 1357.22 Q1740.79 1357.22 1741.42 1357.94 Q1742.07 1358.66 1742.07 1359.63 Q1742.07 1360.87 1741.26 1361.48 Q1740.47 1362.07 1739.68 1362.07 Q1739.37 1362.07 1738.94 1362 Q1738.53 1361.93 1737.88 1361.3 Q1737.23 1360.65 1737.23 1359.5 Q1737.23 1356.27 1739.66 1353.7 Q1742.12 1351.13 1745.86 1351.13 Q1750.1 1351.13 1752.87 1353.66 Q1755.67 1356.16 1755.67 1360.08 Q1755.67 1361.46 1755.24 1362.72 Q1754.83 1363.96 1754.27 1364.93 Q1753.73 1365.9 1752.24 1367.45 Q1750.75 1369.01 1749.56 1370.11 Q1748.36 1371.22 1745.68 1373.56 L1740.79 1378.32 L1749.11 1378.32 Q1753.16 1378.32 1753.48 1377.96 Q1753.93 1377.31 1754.49 1373.86 L1755.67 1373.86 L1754.36 1381.88 L1737.23 1381.88 Z" fill="#000000" fill-rule="nonzero" fill-opacity="1" /><polyline clip-path="url(#clip560)" style="stroke:#000000; stroke-linecap:round; stroke-linejoin:round; stroke-width:4; stroke-opacity:1; fill:none" points="769.517,1166.92 769.517,517.064 "/>
<polyline clip-path="url(#clip560)" style="stroke:#000000; stroke-linecap:round; stroke-linejoin:round; stroke-width:4; stroke-opacity:1; fill:none" points="769.517,1126.08 774.019,1122.18 "/>
<polyline clip-path="url(#clip560)" style="stroke:#000000; stroke-linecap:round; stroke-linejoin:round; stroke-width:4; stroke-opacity:1; fill:none" points="769.517,1035.07 774.019,1031.17 "/>
<polyline clip-path="url(#clip560)" style="stroke:#000000; stroke-linecap:round; stroke-linejoin:round; stroke-width:4; stroke-opacity:1; fill:none" points="769.517,944.056 774.019,940.157 "/>
<polyline clip-path="url(#clip560)" style="stroke:#000000; stroke-linecap:round; stroke-linejoin:round; stroke-width:4; stroke-opacity:1; fill:none" points="769.517,853.046 774.019,849.147 "/>
<polyline clip-path="url(#clip560)" style="stroke:#000000; stroke-linecap:round; stroke-linejoin:round; stroke-width:4; stroke-opacity:1; fill:none" points="769.517,762.036 774.019,758.137 "/>
<polyline clip-path="url(#clip560)" style="stroke:#000000; stroke-linecap:round; stroke-linejoin:round; stroke-width:4; stroke-opacity:1; fill:none" points="769.517,671.027 774.019,667.127 "/>
<polyline clip-path="url(#clip560)" style="stroke:#000000; stroke-linecap:round; stroke-linejoin:round; stroke-width:4; stroke-opacity:1; fill:none" points="769.517,580.017 774.019,576.118 "/>
<path clip-path="url(#clip560)" d="M679.652 1126.53 L709.328 1126.53 L709.328 1130.46 L679.652 1130.46 L679.652 1126.53 Z" fill="#000000" fill-rule="nonzero" fill-opacity="1" /><path clip-path="url(#clip560)" d="M733.587 1124.72 Q736.944 1125.44 738.819 1127.71 Q740.717 1129.98 740.717 1133.31 Q740.717 1138.42 737.198 1141.23 Q733.68 1144.03 727.198 1144.03 Q725.022 1144.03 722.708 1143.59 Q720.416 1143.17 717.962 1142.31 L717.962 1137.8 Q719.907 1138.93 722.221 1139.51 Q724.536 1140.09 727.059 1140.09 Q731.457 1140.09 733.749 1138.36 Q736.064 1136.62 736.064 1133.31 Q736.064 1130.25 733.911 1128.54 Q731.782 1126.8 727.962 1126.8 L723.934 1126.8 L723.934 1122.96 L728.147 1122.96 Q731.596 1122.96 733.425 1121.6 Q735.254 1120.21 735.254 1117.61 Q735.254 1114.95 733.356 1113.54 Q731.481 1112.11 727.962 1112.11 Q726.041 1112.11 723.842 1112.52 Q721.643 1112.94 719.004 1113.82 L719.004 1109.65 Q721.666 1108.91 723.981 1108.54 Q726.319 1108.17 728.379 1108.17 Q733.703 1108.17 736.805 1110.6 Q739.907 1113.01 739.907 1117.13 Q739.907 1120 738.263 1121.99 Q736.619 1123.96 733.587 1124.72 Z" fill="#000000" fill-rule="nonzero" fill-opacity="1" /><path clip-path="url(#clip560)" d="M680.601 1035.52 L710.277 1035.52 L710.277 1039.45 L680.601 1039.45 L680.601 1035.52 Z" fill="#000000" fill-rule="nonzero" fill-opacity="1" /><path clip-path="url(#clip560)" d="M724.397 1048.41 L740.717 1048.41 L740.717 1052.35 L718.772 1052.35 L718.772 1048.41 Q721.434 1045.66 726.018 1041.03 Q730.624 1036.37 731.805 1035.03 Q734.05 1032.51 734.93 1030.77 Q735.832 1029.01 735.832 1027.32 Q735.832 1024.57 733.888 1022.83 Q731.967 1021.1 728.865 1021.1 Q726.666 1021.1 724.212 1021.86 Q721.782 1022.62 719.004 1024.17 L719.004 1019.45 Q721.828 1018.32 724.282 1017.74 Q726.735 1017.16 728.772 1017.16 Q734.143 1017.16 737.337 1019.85 Q740.532 1022.53 740.532 1027.02 Q740.532 1029.15 739.721 1031.07 Q738.934 1032.97 736.828 1035.56 Q736.249 1036.23 733.147 1039.45 Q730.045 1042.65 724.397 1048.41 Z" fill="#000000" fill-rule="nonzero" fill-opacity="1" /><path clip-path="url(#clip560)" d="M680.231 944.507 L709.907 944.507 L709.907 948.442 L680.231 948.442 L680.231 944.507 Z" fill="#000000" fill-rule="nonzero" fill-opacity="1" /><path clip-path="url(#clip560)" d="M720.809 957.401 L728.448 957.401 L728.448 931.035 L720.138 932.702 L720.138 928.442 L728.402 926.776 L733.078 926.776 L733.078 957.401 L740.717 957.401 L740.717 961.336 L720.809 961.336 L720.809 957.401 Z" fill="#000000" fill-rule="nonzero" fill-opacity="1" /><path clip-path="url(#clip560)" d="M728.772 838.845 Q725.161 838.845 723.333 842.41 Q721.527 845.951 721.527 853.081 Q721.527 860.187 723.333 863.752 Q725.161 867.294 728.772 867.294 Q732.407 867.294 734.212 863.752 Q736.041 860.187 736.041 853.081 Q736.041 845.951 734.212 842.41 Q732.407 838.845 728.772 838.845 M728.772 835.141 Q734.582 835.141 737.638 839.748 Q740.717 844.331 740.717 853.081 Q740.717 861.808 737.638 866.414 Q734.582 870.997 728.772 870.997 Q722.962 870.997 719.883 866.414 Q716.828 861.808 716.828 853.081 Q716.828 844.331 719.883 839.748 Q722.962 835.141 728.772 835.141 Z" fill="#000000" fill-rule="nonzero" fill-opacity="1" /><path clip-path="url(#clip560)" d="M720.809 775.381 L728.448 775.381 L728.448 749.016 L720.138 750.682 L720.138 746.423 L728.402 744.756 L733.078 744.756 L733.078 775.381 L740.717 775.381 L740.717 779.316 L720.809 779.316 L720.809 775.381 Z" fill="#000000" fill-rule="nonzero" fill-opacity="1" /><path clip-path="url(#clip560)" d="M724.397 684.371 L740.717 684.371 L740.717 688.307 L718.772 688.307 L718.772 684.371 Q721.434 681.617 726.018 676.987 Q730.624 672.334 731.805 670.992 Q734.05 668.469 734.93 666.733 Q735.832 664.973 735.832 663.284 Q735.832 660.529 733.888 658.793 Q731.967 657.057 728.865 657.057 Q726.666 657.057 724.212 657.821 Q721.782 658.584 719.004 660.135 L719.004 655.413 Q721.828 654.279 724.282 653.7 Q726.735 653.122 728.772 653.122 Q734.143 653.122 737.337 655.807 Q740.532 658.492 740.532 662.983 Q740.532 665.112 739.721 667.033 Q738.934 668.932 736.828 671.524 Q736.249 672.195 733.147 675.413 Q730.045 678.607 724.397 684.371 Z" fill="#000000" fill-rule="nonzero" fill-opacity="1" /><path clip-path="url(#clip560)" d="M733.587 578.663 Q736.944 579.38 738.819 581.649 Q740.717 583.917 740.717 587.251 Q740.717 592.366 737.198 595.167 Q733.68 597.968 727.198 597.968 Q725.022 597.968 722.708 597.528 Q720.416 597.112 717.962 596.255 L717.962 591.741 Q719.907 592.875 722.221 593.454 Q724.536 594.033 727.059 594.033 Q731.457 594.033 733.749 592.297 Q736.064 590.561 736.064 587.251 Q736.064 584.195 733.911 582.482 Q731.782 580.746 727.962 580.746 L723.934 580.746 L723.934 576.903 L728.147 576.903 Q731.596 576.903 733.425 575.538 Q735.254 574.149 735.254 571.556 Q735.254 568.894 733.356 567.482 Q731.481 566.047 727.962 566.047 Q726.041 566.047 723.842 566.464 Q721.643 566.88 719.004 567.76 L719.004 563.593 Q721.666 562.852 723.981 562.482 Q726.319 562.112 728.379 562.112 Q733.703 562.112 736.805 564.542 Q739.907 566.95 739.907 571.07 Q739.907 573.94 738.263 575.931 Q736.619 577.899 733.587 578.663 Z" fill="#000000" fill-rule="nonzero" fill-opacity="1" /><path clip-path="url(#clip560)" d="M587.571 841.935 Q589.374 841.935 590.405 843.062 Q591.403 844.189 591.403 845.478 Q591.403 846.702 590.695 847.346 Q589.986 847.99 589.084 847.99 Q587.86 847.99 586.798 847.088 Q585.735 846.186 585.509 844.834 Q584.672 846.154 584.672 848.119 Q584.672 849.407 585.348 850.534 Q586.025 851.629 586.894 852.305 Q587.764 852.949 589.02 853.529 Q590.244 854.077 590.984 854.302 Q591.693 854.495 592.466 854.656 L601.484 856.911 Q605.767 858.006 607.281 858.006 Q609.149 858.006 610.405 857.104 Q611.628 856.202 611.628 854.399 Q611.628 853.69 611.435 852.885 Q611.21 852.08 610.63 851.049 Q610.018 849.987 609.116 849.053 Q608.182 848.086 606.604 847.152 Q605.026 846.218 602.997 845.607 Q602.289 845.413 602.289 844.769 Q602.289 843.964 602.933 843.964 Q603.48 843.964 604.64 844.415 Q605.767 844.834 607.248 845.768 Q608.698 846.669 610.018 847.861 Q611.306 849.053 612.208 850.824 Q613.11 852.595 613.11 854.528 Q613.11 857.297 611.628 859.133 Q610.147 860.969 608.086 861.645 Q608.376 861.806 608.762 862.032 Q609.149 862.257 610.018 862.933 Q610.855 863.577 611.5 864.318 Q612.111 865.059 612.595 866.218 Q613.11 867.345 613.11 868.569 Q613.11 870.115 612.659 871.5 Q612.208 872.853 611.177 873.819 Q610.147 874.785 608.73 874.785 Q607.152 874.785 606.057 873.722 Q604.93 872.627 604.93 871.146 Q604.93 870.212 605.477 869.471 Q606.025 868.698 607.216 868.698 Q608.537 868.698 609.535 869.6 Q610.533 870.502 610.791 871.79 Q611.628 870.469 611.628 868.505 Q611.628 866.379 609.76 864.705 Q607.893 863.03 604.769 862.225 Q597.265 860.228 593.915 859.455 Q590.534 858.682 589.084 858.682 Q587.732 858.682 586.798 859.036 Q585.864 859.391 585.445 860.003 Q584.994 860.582 584.833 861.13 Q584.672 861.645 584.672 862.225 Q584.672 863.191 585.059 864.286 Q585.445 865.349 586.347 866.637 Q587.216 867.893 589.02 869.085 Q590.823 870.276 593.303 871.081 Q594.044 871.242 594.044 871.951 Q594.012 872.724 593.368 872.724 Q592.82 872.724 591.693 872.305 Q590.534 871.854 589.084 870.953 Q587.635 870.019 586.347 868.827 Q585.026 867.603 584.125 865.832 Q583.223 864.028 583.223 862.096 Q583.223 861.226 583.416 860.389 Q583.577 859.519 584.06 858.489 Q584.543 857.426 585.606 856.492 Q586.669 855.558 588.215 854.978 Q587.474 854.592 586.765 854.077 Q586.057 853.529 585.187 852.692 Q584.286 851.822 583.77 850.631 Q583.223 849.407 583.223 848.054 Q583.223 846.734 583.577 845.445 Q583.899 844.157 584.962 843.062 Q585.993 841.935 587.571 841.935 Z" fill="#000000" fill-rule="nonzero" fill-opacity="1" /><path clip-path="url(#clip560)" d="M625.158 835.214 Q623.783 835.214 623.129 834.425 Q622.475 833.636 622.475 832.621 Q622.475 831.562 623.174 830.818 Q623.85 830.051 625.045 830.051 Q626.33 830.051 627.052 830.953 Q627.773 831.832 627.593 833.095 Q629.441 831.99 630.275 829.961 Q631.11 827.909 631.11 826.016 Q631.11 824.032 629.396 822.431 Q627.683 820.808 623.49 820.808 Q619.928 820.808 617.876 822.206 Q615.825 823.581 615.825 826.309 L615.825 828.338 Q615.825 829.037 615.757 829.24 Q615.689 829.442 615.306 829.442 Q614.855 829.442 614.765 828.744 Q614.765 828.045 614.63 826.94 Q614.54 824.257 612.218 822.837 Q610.053 821.552 606.965 821.552 Q604.147 821.552 602.974 822.905 Q601.78 824.235 601.78 825.971 Q601.78 827.594 602.456 829.375 Q603.132 831.156 604.643 832.125 Q604.643 829.262 606.965 829.262 Q607.979 829.262 608.656 829.916 Q609.309 830.547 609.309 831.607 Q609.309 832.621 608.678 833.298 Q608.024 833.974 606.92 833.974 Q604.282 833.974 602.456 831.629 Q600.63 829.262 600.63 825.79 Q600.63 822.364 602.433 819.839 Q604.237 817.291 607.01 817.291 Q609.738 817.291 611.97 819.095 Q614.201 820.898 615.126 823.761 Q615.825 820.244 618.214 818.148 Q620.581 816.051 623.49 816.051 Q627.097 816.051 629.757 818.892 Q632.395 821.732 632.395 825.881 Q632.395 829.713 630.32 832.463 Q628.246 835.214 625.158 835.214 Z" fill="#000000" fill-rule="nonzero" fill-opacity="1" /><path clip-path="url(#clip560)" d="M682.365 12.096 L733.528 12.096 L733.528 18.9825 L712.058 18.9825 L712.058 72.576 L703.834 72.576 L703.834 18.9825 L682.365 18.9825 L682.365 12.096 Z" fill="#000000" fill-rule="nonzero" fill-opacity="1" /><path clip-path="url(#clip560)" d="M755.2 34.1734 Q753.944 33.4443 752.445 33.1202 Q750.987 32.7556 749.205 32.7556 Q742.885 32.7556 739.482 36.8875 Q736.12 40.9789 736.12 48.6757 L736.12 72.576 L728.626 72.576 L728.626 27.2059 L736.12 27.2059 L736.12 34.2544 Q738.47 30.1225 742.237 28.1376 Q746.004 26.1121 751.392 26.1121 Q752.162 26.1121 753.093 26.2337 Q754.025 26.3147 755.159 26.5172 L755.2 34.1734 Z" fill="#000000" fill-rule="nonzero" fill-opacity="1" /><path clip-path="url(#clip560)" d="M783.637 49.7694 Q774.604 49.7694 771.12 51.8354 Q767.636 53.9013 767.636 58.8839 Q767.636 62.8538 770.229 65.2034 Q772.862 67.5124 777.358 67.5124 Q783.556 67.5124 787.283 63.1374 Q791.05 58.7219 791.05 51.4303 L791.05 49.7694 L783.637 49.7694 M798.504 46.6907 L798.504 72.576 L791.05 72.576 L791.05 65.6895 Q788.498 69.8214 784.691 71.8063 Q780.883 73.7508 775.373 73.7508 Q768.406 73.7508 764.274 69.8619 Q760.183 65.9325 760.183 59.3701 Q760.183 51.7138 765.287 47.825 Q770.431 43.9361 780.599 43.9361 L791.05 43.9361 L791.05 43.2069 Q791.05 38.0623 787.648 35.2672 Q784.285 32.4315 778.169 32.4315 Q774.28 32.4315 770.593 33.3632 Q766.907 34.295 763.504 36.1584 L763.504 29.2718 Q767.596 27.692 771.444 26.9223 Q775.292 26.1121 778.938 26.1121 Q788.782 26.1121 793.643 31.2163 Q798.504 36.3204 798.504 46.6907 Z" fill="#000000" fill-rule="nonzero" fill-opacity="1" /><path clip-path="url(#clip560)" d="M813.857 27.2059 L821.311 27.2059 L821.311 73.3862 Q821.311 82.0551 817.989 85.944 Q814.708 89.8329 807.376 89.8329 L804.54 89.8329 L804.54 83.5134 L806.525 83.5134 Q810.778 83.5134 812.318 81.5285 Q813.857 79.5841 813.857 73.3862 L813.857 27.2059 M813.857 9.54393 L821.311 9.54393 L821.311 18.9825 L813.857 18.9825 L813.857 9.54393 Z" fill="#000000" fill-rule="nonzero" fill-opacity="1" /><path clip-path="url(#clip560)" d="M875.714 48.0275 L875.714 51.6733 L841.444 51.6733 Q841.93 59.3701 846.062 63.421 Q850.234 67.4314 857.647 67.4314 Q861.941 67.4314 865.952 66.3781 Q870.003 65.3249 873.972 63.2184 L873.972 70.267 Q869.962 71.9684 865.749 72.8596 Q861.536 73.7508 857.202 73.7508 Q846.345 73.7508 839.985 67.4314 Q833.666 61.1119 833.666 50.3365 Q833.666 39.1965 839.661 32.6746 Q845.697 26.1121 855.905 26.1121 Q865.06 26.1121 870.367 32.0264 Q875.714 37.9003 875.714 48.0275 M868.261 45.84 Q868.18 39.7232 864.817 36.0774 Q861.496 32.4315 855.986 32.4315 Q849.748 32.4315 845.981 35.9558 Q842.254 39.4801 841.687 45.8805 L868.261 45.84 Z" fill="#000000" fill-rule="nonzero" fill-opacity="1" /><path clip-path="url(#clip560)" d="M920.598 28.9478 L920.598 35.9153 Q917.439 34.1734 914.238 33.3227 Q911.079 32.4315 907.838 32.4315 Q900.587 32.4315 896.576 37.0496 Q892.566 41.6271 892.566 49.9314 Q892.566 58.2358 896.576 62.8538 Q900.587 67.4314 907.838 67.4314 Q911.079 67.4314 914.238 66.5807 Q917.439 65.6895 920.598 63.9476 L920.598 70.8341 Q917.479 72.2924 914.117 73.0216 Q910.795 73.7508 907.028 73.7508 Q896.779 73.7508 890.743 67.3098 Q884.707 60.8689 884.707 49.9314 Q884.707 38.832 890.784 32.472 Q896.901 26.1121 907.514 26.1121 Q910.957 26.1121 914.238 26.8413 Q917.52 27.5299 920.598 28.9478 Z" fill="#000000" fill-rule="nonzero" fill-opacity="1" /><path clip-path="url(#clip560)" d="M940.934 14.324 L940.934 27.2059 L956.287 27.2059 L956.287 32.9987 L940.934 32.9987 L940.934 57.6282 Q940.934 63.1779 942.433 64.7578 Q943.972 66.3376 948.631 66.3376 L956.287 66.3376 L956.287 72.576 L948.631 72.576 Q940.002 72.576 936.721 69.3758 Q933.44 66.1351 933.44 57.6282 L933.44 32.9987 L927.971 32.9987 L927.971 27.2059 L933.44 27.2059 L933.44 14.324 L940.934 14.324 Z" fill="#000000" fill-rule="nonzero" fill-opacity="1" /><path clip-path="url(#clip560)" d="M983.671 32.4315 Q977.676 32.4315 974.192 37.1306 Q970.708 41.7891 970.708 49.9314 Q970.708 58.0738 974.151 62.7728 Q977.635 67.4314 983.671 67.4314 Q989.626 67.4314 993.11 62.7323 Q996.593 58.0333 996.593 49.9314 Q996.593 41.8701 993.11 37.1711 Q989.626 32.4315 983.671 32.4315 M983.671 26.1121 Q993.393 26.1121 998.943 32.4315 Q1004.49 38.7509 1004.49 49.9314 Q1004.49 61.0714 998.943 67.4314 Q993.393 73.7508 983.671 73.7508 Q973.908 73.7508 968.359 67.4314 Q962.849 61.0714 962.849 49.9314 Q962.849 38.7509 968.359 32.4315 Q973.908 26.1121 983.671 26.1121 Z" fill="#000000" fill-rule="nonzero" fill-opacity="1" /><path clip-path="url(#clip560)" d="M1043.14 34.1734 Q1041.88 33.4443 1040.38 33.1202 Q1038.93 32.7556 1037.14 32.7556 Q1030.82 32.7556 1027.42 36.8875 Q1024.06 40.9789 1024.06 48.6757 L1024.06 72.576 L1016.56 72.576 L1016.56 27.2059 L1024.06 27.2059 L1024.06 34.2544 Q1026.41 30.1225 1030.18 28.1376 Q1033.94 26.1121 1039.33 26.1121 Q1040.1 26.1121 1041.03 26.2337 Q1041.96 26.3147 1043.1 26.5172 L1043.14 34.1734 Z" fill="#000000" fill-rule="nonzero" fill-opacity="1" /><path clip-path="url(#clip560)" d="M1069.83 76.7889 Q1066.67 84.8907 1063.68 87.3618 Q1060.68 89.8329 1055.66 89.8329 L1049.7 89.8329 L1049.7 83.5945 L1054.08 83.5945 Q1057.15 83.5945 1058.86 82.1361 Q1060.56 80.6778 1062.62 75.2496 L1063.96 71.8468 L1045.61 27.2059 L1053.51 27.2059 L1067.69 62.6918 L1081.86 27.2059 L1089.76 27.2059 L1069.83 76.7889 Z" fill="#000000" fill-rule="nonzero" fill-opacity="1" /><path clip-path="url(#clip560)" d="M1144.33 9.62495 Q1138.9 18.942 1136.27 28.0566 Q1133.64 37.1711 1133.64 46.5287 Q1133.64 55.8863 1136.27 65.0818 Q1138.94 74.2369 1144.33 83.5134 L1137.85 83.5134 Q1131.77 73.9938 1128.73 64.7983 Q1125.74 55.6027 1125.74 46.5287 Q1125.74 37.4952 1128.73 28.3401 Q1131.73 19.1851 1137.85 9.62495 L1144.33 9.62495 Z" fill="#000000" fill-rule="nonzero" fill-opacity="1" /><path clip-path="url(#clip560)" d="M1158.02 54.671 L1158.02 27.2059 L1165.48 27.2059 L1165.48 54.3874 Q1165.48 60.8284 1167.99 64.0691 Q1170.5 67.2693 1175.52 67.2693 Q1181.56 67.2693 1185.04 63.421 Q1188.57 59.5726 1188.57 52.9291 L1188.57 27.2059 L1196.02 27.2059 L1196.02 72.576 L1188.57 72.576 L1188.57 65.6084 Q1185.85 69.7404 1182.25 71.7658 Q1178.68 73.7508 1173.94 73.7508 Q1166.12 73.7508 1162.07 68.8897 Q1158.02 64.0286 1158.02 54.671 M1176.78 26.1121 L1176.78 26.1121 Z" fill="#000000" fill-rule="nonzero" fill-opacity="1" /><path clip-path="url(#clip560)" d="M1218.58 65.7705 L1218.58 89.8329 L1211.09 89.8329 L1211.09 27.2059 L1218.58 27.2059 L1218.58 34.0924 Q1220.93 30.0415 1224.5 28.0971 Q1228.1 26.1121 1233.09 26.1121 Q1241.35 26.1121 1246.49 32.6746 Q1251.68 39.2371 1251.68 49.9314 Q1251.68 60.6258 1246.49 67.1883 Q1241.35 73.7508 1233.09 73.7508 Q1228.1 73.7508 1224.5 71.8063 Q1220.93 69.8214 1218.58 65.7705 M1243.94 49.9314 Q1243.94 41.7081 1240.54 37.0496 Q1237.18 32.3505 1231.26 32.3505 Q1225.35 32.3505 1221.95 37.0496 Q1218.58 41.7081 1218.58 49.9314 Q1218.58 58.1548 1221.95 62.8538 Q1225.35 67.5124 1231.26 67.5124 Q1237.18 67.5124 1240.54 62.8538 Q1243.94 58.1548 1243.94 49.9314 Z" fill="#000000" fill-rule="nonzero" fill-opacity="1" /><path clip-path="url(#clip560)" d="M1297.78 14.324 L1297.78 27.2059 L1313.13 27.2059 L1313.13 32.9987 L1297.78 32.9987 L1297.78 57.6282 Q1297.78 63.1779 1299.28 64.7578 Q1300.82 66.3376 1305.47 66.3376 L1313.13 66.3376 L1313.13 72.576 L1305.47 72.576 Q1296.85 72.576 1293.57 69.3758 Q1290.28 66.1351 1290.28 57.6282 L1290.28 32.9987 L1284.82 32.9987 L1284.82 27.2059 L1290.28 27.2059 L1290.28 14.324 L1297.78 14.324 Z" fill="#000000" fill-rule="nonzero" fill-opacity="1" /><path clip-path="url(#clip560)" d="M1340.52 32.4315 Q1334.52 32.4315 1331.04 37.1306 Q1327.55 41.7891 1327.55 49.9314 Q1327.55 58.0738 1331 62.7728 Q1334.48 67.4314 1340.52 67.4314 Q1346.47 67.4314 1349.95 62.7323 Q1353.44 58.0333 1353.44 49.9314 Q1353.44 41.8701 1349.95 37.1711 Q1346.47 32.4315 1340.52 32.4315 M1340.52 26.1121 Q1350.24 26.1121 1355.79 32.4315 Q1361.34 38.7509 1361.34 49.9314 Q1361.34 61.0714 1355.79 67.4314 Q1350.24 73.7508 1340.52 73.7508 Q1330.75 73.7508 1325.2 67.4314 Q1319.69 61.0714 1319.69 49.9314 Q1319.69 38.7509 1325.2 32.4315 Q1330.75 26.1121 1340.52 26.1121 Z" fill="#000000" fill-rule="nonzero" fill-opacity="1" /><path clip-path="url(#clip560)" d="M1425.91 39.9662 Q1431.78 41.222 1435.06 45.1919 Q1438.38 49.1618 1438.38 54.9951 Q1438.38 63.9476 1432.23 68.8492 Q1426.07 73.7508 1414.73 73.7508 Q1410.92 73.7508 1406.87 72.9811 Q1402.86 72.2519 1398.56 70.7531 L1398.56 62.8538 Q1401.97 64.8388 1406.02 65.8515 Q1410.07 66.8642 1414.48 66.8642 Q1422.18 66.8642 1426.19 63.826 Q1430.24 60.7879 1430.24 54.9951 Q1430.24 49.6479 1426.48 46.6502 Q1422.75 43.612 1416.06 43.612 L1409.02 43.612 L1409.02 36.8875 L1416.39 36.8875 Q1422.42 36.8875 1425.62 34.4975 Q1428.82 32.067 1428.82 27.5299 Q1428.82 22.8714 1425.5 20.4004 Q1422.22 17.8888 1416.06 17.8888 Q1412.7 17.8888 1408.85 18.618 Q1405.01 19.3471 1400.39 20.8865 L1400.39 13.5948 Q1405.05 12.2985 1409.1 11.6504 Q1413.19 11.0023 1416.79 11.0023 Q1426.11 11.0023 1431.54 15.2557 Q1436.97 19.4686 1436.97 26.6793 Q1436.97 31.7024 1434.09 35.1862 Q1431.21 38.6294 1425.91 39.9662 Z" fill="#000000" fill-rule="nonzero" fill-opacity="1" /><path clip-path="url(#clip560)" d="M1471.4 17.4837 Q1465.08 17.4837 1461.88 23.7221 Q1458.72 29.92 1458.72 42.3968 Q1458.72 54.833 1461.88 61.0714 Q1465.08 67.2693 1471.4 67.2693 Q1477.76 67.2693 1480.92 61.0714 Q1484.12 54.833 1484.12 42.3968 Q1484.12 29.92 1480.92 23.7221 Q1477.76 17.4837 1471.4 17.4837 M1471.4 11.0023 Q1481.57 11.0023 1486.91 19.0636 Q1492.3 27.0843 1492.3 42.3968 Q1492.3 57.6687 1486.91 65.73 Q1481.57 73.7508 1471.4 73.7508 Q1461.23 73.7508 1455.84 65.73 Q1450.5 57.6687 1450.5 42.3968 Q1450.5 27.0843 1455.84 19.0636 Q1461.23 11.0023 1471.4 11.0023 Z" fill="#000000" fill-rule="nonzero" fill-opacity="1" /><path clip-path="url(#clip560)" d="M1524.18 17.4837 Q1517.86 17.4837 1514.66 23.7221 Q1511.5 29.92 1511.5 42.3968 Q1511.5 54.833 1514.66 61.0714 Q1517.86 67.2693 1524.18 67.2693 Q1530.54 67.2693 1533.7 61.0714 Q1536.9 54.833 1536.9 42.3968 Q1536.9 29.92 1533.7 23.7221 Q1530.54 17.4837 1524.18 17.4837 M1524.18 11.0023 Q1534.35 11.0023 1539.7 19.0636 Q1545.09 27.0843 1545.09 42.3968 Q1545.09 57.6687 1539.7 65.73 Q1534.35 73.7508 1524.18 73.7508 Q1514.02 73.7508 1508.63 65.73 Q1503.28 57.6687 1503.28 42.3968 Q1503.28 27.0843 1508.63 19.0636 Q1514.02 11.0023 1524.18 11.0023 Z" fill="#000000" fill-rule="nonzero" fill-opacity="1" /><path clip-path="url(#clip560)" d="M1623.59 48.0275 L1623.59 51.6733 L1589.32 51.6733 Q1589.81 59.3701 1593.94 63.421 Q1598.11 67.4314 1605.53 67.4314 Q1609.82 67.4314 1613.83 66.3781 Q1617.88 65.3249 1621.85 63.2184 L1621.85 70.267 Q1617.84 71.9684 1613.63 72.8596 Q1609.41 73.7508 1605.08 73.7508 Q1594.22 73.7508 1587.86 67.4314 Q1581.54 61.1119 1581.54 50.3365 Q1581.54 39.1965 1587.54 32.6746 Q1593.58 26.1121 1603.78 26.1121 Q1612.94 26.1121 1618.25 32.0264 Q1623.59 37.9003 1623.59 48.0275 M1616.14 45.84 Q1616.06 39.7232 1612.7 36.0774 Q1609.37 32.4315 1603.86 32.4315 Q1597.63 32.4315 1593.86 35.9558 Q1590.13 39.4801 1589.56 45.8805 L1616.14 45.84 Z" fill="#000000" fill-rule="nonzero" fill-opacity="1" /><path clip-path="url(#clip560)" d="M1630.48 27.2059 L1638.38 27.2059 L1652.56 65.2844 L1666.73 27.2059 L1674.63 27.2059 L1657.62 72.576 L1647.49 72.576 L1630.48 27.2059 Z" fill="#000000" fill-rule="nonzero" fill-opacity="1" /><path clip-path="url(#clip560)" d="M1723.73 48.0275 L1723.73 51.6733 L1689.46 51.6733 Q1689.95 59.3701 1694.08 63.421 Q1698.25 67.4314 1705.66 67.4314 Q1709.96 67.4314 1713.97 66.3781 Q1718.02 65.3249 1721.99 63.2184 L1721.99 70.267 Q1717.98 71.9684 1713.77 72.8596 Q1709.55 73.7508 1705.22 73.7508 Q1694.36 73.7508 1688 67.4314 Q1681.68 61.1119 1681.68 50.3365 Q1681.68 39.1965 1687.68 32.6746 Q1693.71 26.1121 1703.92 26.1121 Q1713.08 26.1121 1718.38 32.0264 Q1723.73 37.9003 1723.73 48.0275 M1716.28 45.84 Q1716.2 39.7232 1712.83 36.0774 Q1709.51 32.4315 1704 32.4315 Q1697.76 32.4315 1694 35.9558 Q1690.27 39.4801 1689.7 45.8805 L1716.28 45.84 Z" fill="#000000" fill-rule="nonzero" fill-opacity="1" /><path clip-path="url(#clip560)" d="M1773.68 45.1919 L1773.68 72.576 L1766.22 72.576 L1766.22 45.4349 Q1766.22 38.994 1763.71 35.7938 Q1761.2 32.5936 1756.18 32.5936 Q1750.14 32.5936 1746.66 36.4419 Q1743.17 40.2903 1743.17 46.9338 L1743.17 72.576 L1735.68 72.576 L1735.68 27.2059 L1743.17 27.2059 L1743.17 34.2544 Q1745.85 30.163 1749.45 28.1376 Q1753.1 26.1121 1757.84 26.1121 Q1765.66 26.1121 1769.67 30.9732 Q1773.68 35.7938 1773.68 45.1919 Z" fill="#000000" fill-rule="nonzero" fill-opacity="1" /><path clip-path="url(#clip560)" d="M1795.92 14.324 L1795.92 27.2059 L1811.27 27.2059 L1811.27 32.9987 L1795.92 32.9987 L1795.92 57.6282 Q1795.92 63.1779 1797.42 64.7578 Q1798.96 66.3376 1803.61 66.3376 L1811.27 66.3376 L1811.27 72.576 L1803.61 72.576 Q1794.99 72.576 1791.7 69.3758 Q1788.42 66.1351 1788.42 57.6282 L1788.42 32.9987 L1782.95 32.9987 L1782.95 27.2059 L1788.42 27.2059 L1788.42 14.324 L1795.92 14.324 Z" fill="#000000" fill-rule="nonzero" fill-opacity="1" /><path clip-path="url(#clip560)" d="M1850 28.5427 L1850 35.5912 Q1846.84 33.9709 1843.43 33.1607 Q1840.03 32.3505 1836.39 32.3505 Q1830.84 32.3505 1828.04 34.0519 Q1825.29 35.7533 1825.29 39.156 Q1825.29 41.7486 1827.27 43.2475 Q1829.26 44.7058 1835.25 46.0426 L1837.8 46.6097 Q1845.74 48.3111 1849.07 51.4303 Q1852.43 54.509 1852.43 60.0587 Q1852.43 66.3781 1847.4 70.0644 Q1842.42 73.7508 1833.67 73.7508 Q1830.03 73.7508 1826.06 73.0216 Q1822.13 72.3329 1817.75 70.9151 L1817.75 63.2184 Q1821.88 65.3654 1825.89 66.4591 Q1829.9 67.5124 1833.83 67.5124 Q1839.1 67.5124 1841.94 65.73 Q1844.77 63.9071 1844.77 60.6258 Q1844.77 57.5877 1842.71 55.9673 Q1840.68 54.3469 1833.75 52.8481 L1831.16 52.2405 Q1824.23 50.7821 1821.15 47.7845 Q1818.08 44.7463 1818.08 39.4801 Q1818.08 33.0797 1822.61 29.5959 Q1827.15 26.1121 1835.5 26.1121 Q1839.63 26.1121 1843.27 26.7198 Q1846.92 27.3274 1850 28.5427 Z" fill="#000000" fill-rule="nonzero" fill-opacity="1" /><path clip-path="url(#clip560)" d="M1863.12 9.62495 L1869.6 9.62495 Q1875.68 19.1851 1878.68 28.3401 Q1881.72 37.4952 1881.72 46.5287 Q1881.72 55.6027 1878.68 64.7983 Q1875.68 73.9938 1869.6 83.5134 L1863.12 83.5134 Q1868.51 74.2369 1871.14 65.0818 Q1873.82 55.8863 1873.82 46.5287 Q1873.82 37.1711 1871.14 28.0566 Q1868.51 18.942 1863.12 9.62495 Z" fill="#000000" fill-rule="nonzero" fill-opacity="1" /><polyline clip-path="url(#clip561)" style="stroke:#78c2ad; stroke-linecap:round; stroke-linejoin:round; stroke-width:8; stroke-opacity:1; fill:none" points="1243.07,894.856 1376.43,803.399 1461.65,828.957 1425.4,797.491 1240.15,1056.1 1067.96,945.61 1334.93,839.853 1316.95,741.9 1280.38,987.449 1205.47,988.923 1287.99,757.048 1336.55,1015.63 1394.76,981.83 1313.89,861.8 1227.88,764.75 1087.69,856.61 1178.39,1038.27 1268.19,941.253 1324.44,894.787 1280.67,767.566 1113.69,1082.94 1172.26,1129.7 1297.7,1121.68 1465.19,863.972 1448.78,754.25 1553.01,767.432 1467.55,746.623 1412.72,1113.86 1479.18,1113.69 1369.63,882.275 1454.35,834.349 1425.35,792.904 1468.96,839.948 1449.92,862.624 1481.6,972.422 1393.25,1025.3 1361.81,1018.02 1128.81,917.973 1366.25,866.883 1171.91,728.188 1120.53,927.859 1230.55,932.551 1303.04,846.934 1196.52,715.096 1104.14,865.952 1210.22,922.879 1099.72,908.448 1170.94,750.944 1274.66,944.501 1113.88,939.393 1318.09,1057.9 1205.73,1116.5 1170.56,1103.98 1088.6,927.101 1252.17,858.451 1245.01,1004.08 1148.79,950.359 1249.22,703.217 1334.93,769.286 1362.04,919.901 1103.94,865.342 1189.8,828.6 1111.83,855.759 1248.49,1041.56 1249.96,760.935 1215.12,855.582 1117.62,899.875 1243.91,1089.62 1231.81,1073.95 1166.44,639.643 1088.88,726.864 1381.74,1036.37 1306.98,1044.72 1102.99,881.198 1175.39,798.299 1268.68,818.878 1129.04,924.956 1169.16,903.866 1120.38,779.114 1144.38,768.69 1201.9,855.748 1119.03,877.905 1351.3,872.065 1165.8,710.259 1122.81,867.543 1151.93,1038.92 1301.92,969.464 1282.12,807.195 1109.63,797.75 1191.44,785.498 1222.04,1072.45 1086.08,844.96 1222.88,841.224 1330.89,955.823 1120.19,845.332 1150.65,758.619 1215.7,848.431 1182.65,995.897 1127.41,1037.26 1235.96,1067.19 1178.14,763.115 1246.12,776.299 1332.04,1040.56 1216.18,1028.1 1221.12,890.945 1176,836.075 1239.6,860.6 1262.31,981.604 1158.41,752.032 1082.99,847.812 1181.99,972.564 1122.71,941.961 1203.4,820.823 1100.25,745.743 1291.53,923.752 1165.65,996.625 1323.26,1088.16 1290.63,1100.22 1077.37,665.202 1126.27,625.19 1087.12,864.201 1396.73,1169.13 1382.01,1198.04 1124.63,612.524 1137.2,850.616 1087.35,823.554 1255.95,756.97 1334.3,807.848 1161.28,1022.16 1080.63,931.64 1202.4,906.929 1270.18,900.937 1198.88,752.172 1093.93,972.79 1340.96,1013.25 1241.41,958.54 1085.52,808.922 1357.26,633.896 1499.47,779.108 1402.48,824.576 1497.56,898.081 1422.67,1107.56 1139,1081.05 1108.31,818.119 1171.7,734.608 1098.49,695.235 1140.27,591.941 1099.32,600.714 1147.88,657.332 1111.69,700.853 1133.66,849.545 1093.57,846.457 1150.16,857.53 1068.71,768.628 1131.91,579.069 1242.18,894.983 1134.39,899.51 1180.8,952.775 1146.78,939.971 1120.09,908.725 1144.23,721.55 1386.93,938.693 1377.16,996.401 1119.51,647.8 1370.76,840.435 1327.2,905.785 1368.76,986.75 1283.76,1018.18 1266.06,1066.06 1154.73,1009.29 1226.03,812.87 1083.14,847.673 1167.17,898.151 1342.43,944.527 1318.82,774.962 1313.73,821.857 1152.77,848.936 1180.48,995.93 1362.11,957.112 1256.92,810.592 1181.97,955.548 1230.49,932.141 1227.17,843.538 1161.76,865.721 1285.65,1050.88 1121.7,976.422 1178.12,877.013 1069.22,654.89 1128.23,551.774 1152.34,571.529 1097.29,604.638 1177.36,666.139 1170.77,833.44 1242.21,887.113 1234.47,977.748 1341.92,816.995 1412.84,845.697 1384.8,953.306 1331.5,976.254 1364.39,1040.27 1053.02,978.853 1171,1006.45 1073.61,858.232 1179.94,833.394 1128.16,777.953 1228.85,814.975 1128.56,1046.42 1176.03,899.833 1267.05,943.014 1243.22,970.135 1164.43,1044.4 1081.58,1009.15 1235.9,1009.36 1255.47,841.966 1111.78,856.25 1298.51,1213.67 1511.66,754.645 1458.12,732.892 1068.93,866.706 1151.35,1036.68 1296.2,762.538 1353.87,754.743 1146.14,874.969 1233.29,993.717 1273.68,842.653 1242.09,961.908 1120.59,942.662 1220.78,920.679 1293.88,906.331 1171.38,845.493 1198.03,761.483 1071.96,742.395 1174.24,789.99 1111.97,802.925 1345.36,1058.04 1184.49,1062.94 1286.06,632.819 1432.57,1015.88 1422.58,1072.17 1402.96,1073.75 1145.49,698.291 1075.82,718.852 1171.07,1022.82 1282.29,971.825 1210.75,844.768 1097.55,971.601 1159.02,1060.15 1308.25,1032 1297.84,931.86 1378.74,813.951 1073.75,668.622 1182.8,584.525 1095.13,585.188 1141.85,620.503 1107.11,718.575 1176.86,730.171 1164.3,233.772 1197.52,246.161 1151.09,253.59 1210.43,324.007 1145.06,351.696 1206.68,550.746 1150.6,638.241 1204.82,673.82 1155.39,647.912 1196.48,704.904 1163.43,760.729 1179.82,766.55 1140.59,788.909 1182.52,799.68 1147.71,789.295 1134.29,561.143 1088.54,578.479 1163.15,844.487 1086.02,840.559 1361.4,1015.88 1254.98,1080.42 1150.23,1026.14 1224.63,770.894 1120.29,794.706 1175.64,870.031 1265.27,981.869 1176.79,1013.47 1162.21,751.865 1086.43,758.984 1217.01,894.692 1112.01,992.477 1296.97,1018.39 1429.19,792.21 1489.16,778.698 1450.13,751.884 1455.71,875.318 1206.87,1082.7 1097.89,916.069 1201.55,683.244 1306.39,877.203 1176.71,888.468 1151.5,948.58 1253.73,1009.81 1289.24,952.132 "/>
</svg>
